<svg width="2649" height="1559" xmlns="http://www.w3.org/2000/svg"><g fill="none" fill-rule="evenodd"><path fill="#B2E0F7" d="M183 175.001h2466v-175H183z"/><path fill="#96DCFF" d="M183 347h2466V172H183z"/><path fill="#7DD3FF" d="M183 518h2466V343H183z"/><path fill="#5AC8FF" d="M183 687h2466V512H183z"/><path fill="#E8AE3A" d="M183 1559.001h2466v-207H183z"/><path fill="#EAC839" d="M183 1352.001h2466v-207H183z"/><path fill="#F4DB4A" d="M183 1146.001h2466v-207H183z"/><path fill="#FAE586" d="M183 941.001h2466v-279H183z"/><path fill="#04477F" d="M183 662.001l669.837 166.065 339.443 80.84 869.665 104.342L2649 1170.001v-508z"/><path d="M1918.788 291.391c0 103.488-83.903 187.385-187.39 187.385-103.495 0-187.398-83.897-187.398-187.385C1544 187.897 1627.903 104 1731.397 104c103.488 0 187.391 83.897 187.391 187.391" fill="#E8AE3A"/><path fill="#5D5F5B" d="M2214.92 984.818L1774.577 865 1609 1007.106 1727.386 1209 2252 1172.346z"/><path fill="#8C8C8C" d="M2290 1135.522L2056.036 1093 1931 1187.492 2089.151 1256l179.525-25.989z"/><path fill="#005D9C" d="M662 713.001l556.37 16.027L1368 746H662zm264 115.237L1138.64 807l187.526 21 184.322 5.9L1877 843.34l-547.625 5.662-189.133-21.945zm1723-109.237l-344 9.977L2649 738zm-249.873 135.957l-127.485-2.571L2149 834l91.1 31 365.9-1.591zM1558 741.522l244.014-12.021 176.586 16.5 120.4-16.5-112.375 2.828L1797.195 713z"/><path fill="#EFF8FC" d="M0 175.332v166.75l392.371-49.042 375.15 30.516 212.048-79.924-221.843-79.924H424.985L212.97 139zM1826.229 288.41l-127.855 19.146L1682 385.1l392.94-27.627 181.655 5.025 106.194-55.254-141.481-60.645-223.218-5.909zM2280.995 415l-172.66 13.629L2015 463.223l67.663 32.5 165.666-5.242 118.993 11.53 65.945-34.593z"/><path fill="#5D5F5B" d="M1246.871 1105.052l62.097 3.949 22.032-35.853-45.563-37.147-67.437 39.533zm818 180.998l62.097 3.95 22.032-35.853-45.563-37.147-67.437 39.533z"/><path fill="#4594D1" d="M1474.448 652.153V426l132.495 163.168z"/><path fill="#EA5158" d="M1402 627.352h226.157l-12.73 36.55-17.135 13.057h-168.878l-17.136-17.788z"/><path fill="#3E3F3E" d="M920.383 1179.298l-242.138-83.813-91.056 99.408 65.101 141.233 248.177-22.063z"/><path fill="#5D5F5B" d="M591.876 1361.248l143.89-23.11 35.209-123.913-111.404-22.22L570 1265.528z"/><path fill="#111416" d="M870.948 889.374l-17.45-50.159 4.802-38.385 31.403-22.674h51.907l21.368 20.494v25.728l17.44 20.936-5.666 5.243-4.36 27.476 1.739 13.521-29.224 9.17-18.314 27.035 42.754 73.708 26.16-31.845-14.386-23.116 2.18-23.98 12.207-13.09 26.17 6.108 22.674 20.503-50.15 122.993 35.763 8.72 23.116 27.926 4.801 36.196 2.18 52.78 9.153 53.205 12.224 15.71 31.836 13.08 32.719 8.288 11.774 14.828-6.982 10.91-85.49 14.386 39.25 13.09 49.736 18.314 18.755 21.377-8.729 12.215-30.538 4.793-119.507-6.54-14.395-14.829 10.476-33.15-34.466-91.598-16.575-62.366-87.23 8.287-77.634 4.802-34.025-10.044-20.494-27.043 18.314-81.122 20.936-70.23 47.537-82.427z"/></g></svg>