<svg width="2449" height="1554" xmlns="http://www.w3.org/2000/svg"><g fill="none" fill-rule="evenodd"><path fill="#86D0F5" d="M0 1554.001h2448v-624H0z"/><path fill="#133759" d="M0 930.001h2448v-467H0z"/><path fill="#005D9C" d="M0 231.001h2448v-231H0z"/><path fill="#04477F" d="M0 463.001h2448v-232H0z"/><path d="M1086.984 361.968c-50.802 0-91.984-41.185-91.984-91.984 0-50.799 41.182-91.984 91.984-91.984 50.802 0 91.984 41.185 91.984 91.984 0 50.8-41.182 91.984-91.984 91.984z" fill="#F9F5CD"/><path fill="#64B7D8" d="M2449 997.001H993l515.42 33.784-140.63 31.529L1789.677 1092H2449zM0 1325.723l684.32-28.722 404.504 53.137L1264 1432.001l-544.645-53.137-143.324 17.234H0zm1667.638 155.501l321.36-18.223L2164 1481.224l-120.912 21.777H1394l140.002-40zm692.043-312.223l88.319-5.144v-35.856h-142.314L2185 1150.32zM101 1007.001h449l-363.022 37z"/><path fill="#000" d="M1265 930.001l187.708-153.306 204.573-51.433 141.418-114.734 200.475-8.164 241.845-239.363 123.04 19.29L2448 444.219v485.783z"/><path fill="#112337" d="M0 930.001h1732l-98.725-54.516-47.77-44.159-420.376-34.188L866 696 177.878 852.693 0 865.513z"/><path fill="#C7EFFF" d="M1607.112 1554.001l-525.112-624h82.745L1799 1347.099 2110.028 1554z"/><path fill="#000" d="M1029.2 284.505l42.273-9.368-17.439-23.737h10.57l15.326 21.239 19.55-2.503 8.72 3.437-20.08 9.059 17.438 21.868h-11.626l-15.587-19.68-35.143 3.123z"/><path fill="#38A5D6" d="M1031.13 284.401L0 392.481v15.69l1045.194-122.454z"/><path fill="#1990BA" d="M0 399.16l846-93.159-846 97z"/><path fill="#112337" d="M1459.5 1018.648l-4.85-17.324L1465.39 984l16.98 2.077 7.969 19.752v20.789l19.404 4.504 15.247 48.163-10.395 13.859 6.235 33.61-11.78 5.546.693 13.859h-4.853l-6.234 46.082 2.77 21.137-4.85 55.787 7.277 3.465.693 3.465-14.727 7.97-13.34-1.733 1.038-37.42.347-51.283-4.501-38.808-11.438 29.798-10.047 46.43-4.504 39.5 3.117 11.435-10.395 2.08-20.096-4.157 2.772-6.93 7.278-3.464 1.732-41.58 6.93-75.882-5.444-3.464-4.258-13.17-5.893-1.385-3.117-50.587 7.277-37.768 14.207-19.06z"/></g></svg>