<svg width="2444" height="1554" xmlns="http://www.w3.org/2000/svg"><g fill="none" fill-rule="evenodd"><path fill="#5B5956" d="M0 1553.246h2444v-589H0z"/><path fill="#DA6915" d="M0 463h2444V0H0z"/><path fill="#F08323" d="M0 542h2444v-79H0z"/><path fill="#F59F49" d="M0 622h2444v-80H0z"/><path fill="#F4B749" d="M0 701h2444v-79H0z"/><path fill="#7167AC" d="M0 993.854l818.019 76.552 694.513 32.609 684.795 73.413L2444 1193.595v-325.16H0z"/><path d="M1341.38 550.08c0 68.89-55.846 124.737-124.736 124.737-68.89 0-124.736-55.846-124.736-124.736 0-68.89 55.846-124.736 124.736-124.736 68.89 0 124.736 55.846 124.736 124.736" fill="#EA5158"/><path fill="#FFF" d="M0 475.404l129.532 7.74 107.802 9.292 156.419 5.677 101.454 11.29 38.05 8.323L640 522.372l-36.99 13.419-109.915 4.129H330.34l-151.66-5.162-104.104 5.162H-.001zm861.099 98.633l-80.406 5.754h-87.61l-80.867-7.52-20.217-12.011 20.217-4.985 103.785 2.615 61.962-1.665 57.934-.95 35.102 5.965z"/><path fill="#005D9C" d="M482.532 683.961l104.966-35.446h161.413l214.416-66.851 38.545 31.102 74.685-24.56 50.594 44.607 45.773-20.047 53 11.887 59.561-42.99 99.044 51.15 248.545 35.298 84.393 15.85v47.703H482.532z"/><path fill="#CAE9F9" d="M960.533 582.266l114.336-37.602h135.206l76.541 37.602 43.443 21.84-64.17-1.428-39.557 21.946-53.649-11.71-46.33 19.75-51.21-43.953-75.593 24.202z"/><path fill="#FFF" d="M2163.186 489.516l-126.671 6.822-113.63 14.1-91.275-2.275-52.16 2.274-7.45 13.644 52.16 15.463h150.885l137.844-6.11 121.084 6.11 102.453-6.11 20.573-14.03-20.573-13.97-86.164-11.824z"/><path fill="#133759" d="M2354.011 676.426v-8.934h-61.47v23.263H2269.6v-12.23h-61.47v-3.29h-89.758v15.52h-40.769v-22.049h-137.408v10.678h-87.196v-6.533h-87.204v17.904h-106.427v-5.615h-59.22v-12.289h-91.577v-7.286h-188.187v25.19h-22.556v-19.434h-78.451v5.105h-84.737v-8.934h-61.47v23.263h-22.947v-12.23h-61.465v-3.29H899v15.52h-40.774v-22.049H720.821v10.678h-87.2v-6.533h-87.2v17.904H439.994v-5.615h-59.22v-12.289h-91.58v-7.286H101.01v25.19H78.45v-19.434H-.002V799.75h2444V676.426z"/><path fill="#4594D1" d="M269 772.435h191V609.597H269z"/><path fill="#04477F" d="M460 772.435h92V609.597h-92z"/><path fill="#4594D1" d="M552 772.435h148V640.048H552z"/><path fill="#04477F" d="M700 772.435h76V640.048h-76z"/><path fill="#4594D1" d="M1275 788.01h167V655.623h-167z"/><path fill="#04477F" d="M1442 788.01h79V655.623h-79z"/><path fill="#4594D1" d="M1909 788.01h91V655.623h-91z"/><path fill="#04477F" d="M2000 788.01h41V655.623h-41z"/><path fill="#4594D1" d="M1645 797.952h87V665.565h-87z"/><path fill="#04477F" d="M1732 797.952h44V665.565h-44z"/><path d="M2169 760.51v-65.935s10.85-72.088 129.224-77.364c118.375-5.274 94.878 143.3 94.878 143.3h-224.103z" fill="#4594D1"/><path d="M2194 760.51V710.4s7.057-54.789 84.052-58.798 61.713 108.908 61.713 108.908H2194z" fill="#04477F"/><path fill="#112337" d="M2287.438 732.028v38.869h-45.023v-50.382h-375.56v14.574h-182.768v24.579H1565.9v11.229h-212.4v-35.808h-174.022v13.065h-174.03V726.8H731.224v44.097H649.86v-31.042H470.73v6.58H348.056v24.462h-45.79V724.37H179.593v17.867H-.001v86.648h2444v-96.858z"/><path fill="#133759" d="M0 797.92l1083.565 24h350.02l285.56-12h321.034l241.569 12h162.251v56.515H0z"/><path fill="#F4B749" d="M670.264 948.047H1227l-347.232 9.248 219.71 11.835H618.797l148.29-5.29-269.089-3.16 334.062-7.938z"/><path fill="#FF8E93" d="M1103.798 916.13h248.201l-154.801 7.457 97.95 9.543h-214.295l66.11-4.265L1027 926.316l148.93-6.4z"/><path fill="#F4B749" d="M1445 896.663h-226l155.654 4.133zm436 70.564l-.911-.235-134.34-13.73 135.25-5.665.228.291-148.363-.907-200.814-2.129 56.352 4.392-182.403.823 172.631 8.198-153.208 8.962zm-46.85 31.231h-171.409l79.195 5.827-190.937 5.827h294l-51.801-5.827z"/><path d="M452.186 869.353h10.737v-16.079h-10.737v16.079zm4.708-37.974h8.12V819.22h-8.12v12.158zm4.6-39.266h5.562v-8.328h-5.562v8.328zm7.217 0h5.573v-8.328h-5.573v8.328zm-1.276 39.266h8.13V819.22h-8.13v12.158zm-1.31 37.974h10.747v-16.079h-10.748v16.079zm9.816-77.24h5.561v-8.328h-5.561v8.328zm2.041 39.266h8.12V819.22h-8.12v12.158zm2.092 37.974h10.738v-16.079h-10.738v16.079zm15.785-10.453l8.944 33.848-62.998-12.07 5.334-21.778c-19.234 0-30.14-10.717-30.14-10.717 12.868 0 23.498-6.547 31.855-14.951l3.262-12.349c-15.308 0-23.984-8.535-23.984-8.535 12.314 0 22.06-7.529 29.169-16.107l-.386-15.573c-11.51 0-18.035-6.413-18.035-6.413 21.485 0 32.618-30.507 32.618-30.507s11.135 30.507 32.62 30.507c0 0-6.524 6.413-18.035 6.413l-.387 15.573c7.109 8.578 16.855 16.107 29.168 16.107 0 0-8.674 8.535-23.972 8.535l3.252 12.349c8.357 8.404 18.986 14.95 31.855 14.95 0 0-10.907 10.718-30.14 10.718zm1113.526 45.635h13.003v-14.567h-13.003v14.567zm-2.534-34.407h9.833v-11.016h-9.833v11.016zm-2.474-35.575h6.736v-7.546h-6.736v7.546zm-8.751 0h6.746v-7.546h-6.746v7.546zm-1.549 35.575h9.846v-11.016h-9.846v11.016zm-1.586 34.407h13.016v-14.567h-13.016v14.567zm-5.606-69.982h6.736v-7.546h-6.736v7.546zm-5.571 35.575h9.833v-11.016h-9.833v11.016zm-5.703 34.407h13.003v-14.567h-13.003v14.567zM1533 885.355s13.207 9.712 36.5 9.712l-10.83 30.665 76.29-10.936-6.46-19.73c23.293 0 36.5-9.711 36.5-9.711-15.583 0-28.455-5.933-38.577-13.544l-3.95-11.19c18.538 0 29.044-7.734 29.044-7.734-14.912 0-26.714-6.821-35.324-14.594l.47-14.11c13.94 0 21.84-5.81 21.84-5.81-26.02 0-39.502-27.641-39.502-27.641s-13.484 27.64-39.501 27.64c0 0 7.9 5.81 21.838 5.81l.469 14.11c-8.608 7.774-20.41 14.595-35.324 14.595 0 0 10.507 7.733 29.034 7.733l-3.94 11.19c-10.122 7.612-22.992 13.545-38.577 13.545z" fill="#000"/><path fill="#112337" d="M2444 930.064H1443l668.976-59.44L2444 829.758zM0 908.076h710l-236.626-26.348-65.569-18.027L0 849.14z"/><path fill="#000" d="M1243.644 996.57l19.44 9.15 16.796 286.96 80.808-.52 34.474-281.297 9.721-2.285 5.147-83.48-12.007-62.321-23.444-31.45-29.732-13.149 8.005-28.59L1335.128 761l-28.018 3.43-13.149 32.591v34.306l-32.02 7.434-25.158 79.477 17.153 22.87z"/><path fill="#112337" d="M515 1059.748l41.678 41.796 136.956-.654 123.505-7.379 176.595-2.616 50.095-47.688-98.963-13.937-151.133 4.424-152.942 8.85z"/><path fill="#112337" d="M661.876 1089.82l-26.825-3.189-23.047-11.393 32.328-13.521 18.567 14.47 6.869 10.595 109.796 57.996 18.539 3.945 29.813 13.387-32.128 12.363-19.498-15.195-4.018-10.342z"/><path fill="#112337" d="M800.369 1116.876l28.166.094 27.544 8.558-27.245 16.873-24.237-12.066-10.984-9.597-132.632-44.375-20.138-1.774-35.098-9.738 27.492-15.718 25.44 12.667 8.027 9.672z"/></g></svg>