{
  "asset": {
    "generator": "Khronos glTF Blender I/O v1.5.17",
    "version": "2.0"
  },
  "scene": 0,
  "scenes": [
    {
      "name": "Scene",
      "nodes": [0]
    }
  ],
  "nodes": [
    {
      "mesh": 0,
      "name": "Diamond",
      "translation": [0, 1.3129146099090576, 0]
    }
  ],
  "materials": [
    {
      "doubleSided": true,
      "name": "Material",
      "pbrMetallicRoughness": {
        "baseColorFactor": [0.3571353852748871, 0.8000000715255737, 0.7407574653625488, 1],
        "roughnessFactor": 0
      }
    }
  ],
  "meshes": [
    {
      "name": "Diamond",
      "primitives": [
        {
          "attributes": {
            "POSITION": 0,
            "NORMAL": 1
          },
          "indices": 2,
          "material": 0
        }
      ]
    }
  ],
  "accessors": [
    {
      "bufferView": 0,
      "componentType": 5126,
      "count": 315,
      "max": [1, 0.3500000238418579, 1],
      "min": [-1, -0.800000011920929, -1],
      "type": "VEC3"
    },
    {
      "bufferView": 1,
      "componentType": 5126,
      "count": 315,
      "type": "VEC3"
    },
    {
      "bufferView": 2,
      "componentType": 5123,
      "count": 384,
      "type": "SCALAR"
    }
  ],
  "bufferViews": [
    {
      "buffer": 0,
      "byteLength": 3780,
      "byteOffset": 0
    },
    {
      "buffer": 0,
      "byteLength": 3780,
      "byteOffset": 3780
    },
    {
      "buffer": 0,
      "byteLength": 768,
      "byteOffset": 7560
    }
  ],
  "buffers": [
    {
      "byteLength": 8328,
      "uri": "data:application/octet-stream;base64,"
    }
  ]
}
