{
  "asset": {
    "generator": "Khronos glTF Blender I/O v1.5.17",
    "version": "2.0"
  },
  "scene": 0,
  "scenes": [
    {
      "name": "Scene",
      "nodes": [0]
    }
  ],
  "nodes": [
    {
      "mesh": 0,
      "name": "lightning",
      "rotation": [0.7071068286895752, 0, 0, 0.7071067094802856]
    }
  ],
  "materials": [
    {
      "doubleSided": true,
      "name": "Yellow.026",
      "pbrMetallicRoughness": {
        "baseColorFactor": [1, 0.5052202939987183, 0.017695415765047073, 1],
        "metallicFactor": 0,
        "roughnessFactor": 0.20000000298023224
      }
    }
  ],
  "meshes": [
    {
      "name": "Cube.1372",
      "primitives": [
        {
          "attributes": {
            "POSITION": 0,
            "NORMAL": 1,
            "TEXCOORD_0": 2
          },
          "indices": 3,
          "material": 0
        }
      ]
    }
  ],
  "accessors": [
    {
      "bufferView": 0,
      "componentType": 5126,
      "count": 206,
      "max": [0.3984317481517792, 0.1398487091064453, 0.6621757745742798],
      "min": [-0.4041382372379303, -0.1398487091064453, -0.5749139785766602],
      "type": "VEC3"
    },
    {
      "bufferView": 1,
      "componentType": 5126,
      "count": 206,
      "type": "VEC3"
    },
    {
      "bufferView": 2,
      "componentType": 5126,
      "count": 206,
      "type": "VEC2"
    },
    {
      "bufferView": 3,
      "componentType": 5123,
      "count": 684,
      "type": "SCALAR"
    }
  ],
  "bufferViews": [
    {
      "buffer": 0,
      "byteLength": 2472,
      "byteOffset": 0
    },
    {
      "buffer": 0,
      "byteLength": 2472,
      "byteOffset": 2472
    },
    {
      "buffer": 0,
      "byteLength": 1648,
      "byteOffset": 4944
    },
    {
      "buffer": 0,
      "byteLength": 1368,
      "byteOffset": 6592
    }
  ],
  "buffers": [
    {
      "byteLength": 7960,
      "uri": "data:application/octet-stream;base64,"
    }
  ]
}
