
<svg width="2649px" height="1559px" viewBox="0 0 2649 1559" version="1.1" xmlns="http://www.w3.org/2000/svg" xmlns:xlink="http://www.w3.org/1999/xlink">
    <g id="Page-1" stroke="none" stroke-width="1" fill="none" fill-rule="evenodd">
        <g id="Group-42">
            <polygon id="Fill-6" fill="#B2E0F7" points="183 175.001 2649 175.001 2649 0.001 183 0.001"></polygon>
            <polygon id="Fill-6-Copy" fill="#96DCFF" points="183 347 2649 347 2649 172 183 172"></polygon>
            <polygon id="Fill-6-Copy-2" fill="#7DD3FF" points="183 518 2649 518 2649 343 183 343"></polygon>
            <polygon id="Fill-6-Copy-3" fill="#5AC8FF" points="183 687 2649 687 2649 512 183 512"></polygon>
            <polygon id="Fill-1" fill="#E8AE3A" points="183 1559.001 2649 1559.001 2649 1352.001 183 1352.001"></polygon>
            <polygon id="Fill-2" fill="#EAC839" points="183 1352.001 2649 1352.001 2649 1145.001 183 1145.001"></polygon>
            <polygon id="Fill-3" fill="#F4DB4A" points="183 1146.001 2649 1146.001 2649 939.001 183 939.001"></polygon>
            <polygon id="Fill-4" fill="#FAE586" points="183 941.001 2649 941.001 2649 662.001 183 662.001"></polygon>
            <polygon id="Fill-5" fill="#04477F" points="183 662.001 852.837309 828.066492 1192.27971 908.905759 2061.94473 1013.2483 2649 1170.001 2649 662.001"></polygon>
            <path d="M1918.78834,291.391008 C1918.78834,394.879089 1834.88542,478.775688 1731.39734,478.775688 C1627.90293,478.775688 1544,394.879089 1544,291.391008 C1544,187.896599 1627.90293,104 1731.39734,104 C1834.88542,104 1918.78834,187.896599 1918.78834,291.391008" id="Fill-7" fill="#E8AE3A"></path>
            <polygon id="Fill-9" fill="#5D5F5B" points="2214.91986 984.817554 1774.57659 865 1609 1007.10602 1727.38556 1209 2252 1172.34621"></polygon>
            <polygon id="Fill-13" fill="#8C8C8C" points="2290 1135.52246 2056.0356 1093 1931 1187.4916 2089.15115 1256 2268.67597 1230.0113"></polygon>
            <polygon id="Fill-19" fill="#005D9C" points="662 713.001 1218.37031 729.027849 1368 746.001 662 746.001"></polygon>
            <polygon id="Fill-21" fill="#005D9C" points="926 828.237818 1138.63946 807.001 1326.1663 828.001914 1510.48833 833.901335 1877 843.339311 1329.37525 849.001 1140.24186 827.056471"></polygon>
            <polygon id="Fill-23" fill="#005D9C" points="2649 719.001 2305 728.977749 2649 738.001"></polygon>
            <polygon id="Fill-25" fill="#005D9C" points="2399.12727 854.957516 2271.64219 852.38684 2149 834.001 2240.09924 865.001 2606 863.409991"></polygon>
            <polygon id="Fill-27" fill="#005D9C" points="1558 741.521593 1802.01422 729.501 1978.59991 746.001 2099 729.501 1986.62465 732.328945 1797.19523 713.001"></polygon>
            <polygon id="Fill-29" fill="#EFF8FC" points="0 175.331864 0 342.081477 392.371082 293.040062 767.521496 323.556187 979.569477 243.631954 757.725802 163.707721 424.984983 163.707721 212.969929 139"></polygon>
            <polygon id="Fill-31" fill="#EFF8FC" points="1826.22874 288.410822 1698.37407 307.556354 1682 385.09982 2074.93965 357.473171 2256.59483 362.497752 2362.78857 307.244454 2221.30786 246.599132 1998.08992 240.690123"></polygon>
            <polygon id="Fill-33" fill="#EFF8FC" points="2280.99517 415 2108.3343 428.629024 2015 463.2225 2082.66294 495.72379 2248.32943 490.480548 2367.32244 502.011706 2433.2668 467.41823"></polygon>
            <polygon id="Fill-17" fill="#5D5F5B" points="1246.87097 1105.05175 1308.96798 1109.001 1331 1073.14845 1285.43735 1036.001 1218 1075.53431"></polygon>
            <polygon id="Fill-17-Copy" fill="#5D5F5B" points="2064.87097 1286.05075 2126.96798 1290 2149 1254.14745 2103.43735 1217 2036 1256.53331"></polygon>
            <polygon id="Fill-35" fill="#4594D1" points="1474.44752 652.152621 1474.44752 426 1606.94324 589.167746"></polygon>
            <polygon id="Fill-37" fill="#EA5158" points="1402 627.352094 1628.15728 627.352094 1615.42699 663.902153 1598.29167 676.958743 1429.41371 676.958743 1412.27839 659.17083"></polygon>
            <polygon id="Fill-11" fill="#3E3F3E" points="920.383249 1179.2982 678.244514 1095.48517 587.188612 1194.89315 652.290325 1336.12574 900.467337 1314.06347"></polygon>
            <polygon id="Fill-15" fill="#5D5F5B" points="591.876014 1361.24756 735.7662 1338.13726 770.974543 1214.22509 659.571256 1192.00584 570 1265.52655"></polygon>
            <polygon id="Fill-39" fill="#111416" points="870.947578 889.37424 853.498297 839.215127 858.299661 800.83017 889.703176 778.15562 941.609812 778.15562 962.978044 798.650091 962.978044 824.37848 980.418674 845.314157 974.7522 850.556727 970.392042 878.03264 972.130915 891.554319 942.907478 900.724492 924.593087 927.759198 967.346853 1001.46662 993.507798 969.6219 979.121008 946.506145 981.301087 922.525279 993.507798 909.436155 1019.67739 915.543836 1042.35194 936.046958 992.201481 1059.03973 1027.96515 1067.76005 1051.08091 1095.68582 1055.88227 1131.88205 1058.06235 1184.66244 1067.21522 1237.86675 1079.43923 1253.57716 1111.27531 1266.65763 1143.99379 1274.94539 1155.76794 1289.77338 1148.7865 1300.68243 1063.29627 1315.06922 1102.54634 1328.15834 1152.28155 1346.47273 1171.03715 1367.84962 1162.30818 1380.06498 1131.76978 1384.85769 1012.2634 1378.31745 997.867955 1363.48946 1008.34444 1330.33842 973.878438 1238.74051 957.302919 1176.37468 870.073816 1184.66244 792.43879 1189.46381 758.41399 1179.41987 737.919519 1152.37652 756.233911 1071.25509 777.169588 1001.02542 824.707416 918.597677"></polygon>
        </g>
    </g>
</svg>