
<svg width="2444px" height="1554px" viewBox="0 0 2444 1554" version="1.1" xmlns="http://www.w3.org/2000/svg" xmlns:xlink="http://www.w3.org/1999/xlink">
    <defs>
        <polygon id="path-1" points="0.999130872 665.5653 2444.99913 665.5653 2444.99913 799.7503 0.999130872 799.7503"></polygon>
        <polygon id="path-3" points="0.999130872 1225.89 2444.99913 1225.89 2444.99913 384 0.999130872 384"></polygon>
    </defs>
    <g id="Page-1" stroke="none" stroke-width="1" fill="none" fill-rule="evenodd">
        <g id="Group-51" transform="translate(-1.000000, 0.000000)">
            <polygon id="Fill-1" fill="#5B5956" points="0.999130872 1553.246 2444.99913 1553.246 2444.99913 964.246 0.999130872 964.246"></polygon>
            <polygon id="Fill-2" fill="#DA6915" points="0.999130872 463 2444.99913 463 2444.99913 1.70530257e-13 0.999130872 1.70530257e-13"></polygon>
            <polygon id="Fill-3" fill="#F08323" points="0.999130872 542 2444.99913 542 2444.99913 463 0.999130872 463"></polygon>
            <polygon id="Fill-4" fill="#F59F49" points="0.999130872 622 2444.99913 622 2444.99913 542 0.999130872 542"></polygon>
            <polygon id="Fill-5" fill="#F4B749" points="0.999130872 701 2444.99913 701 2444.99913 622 0.999130872 622"></polygon>
            <polygon id="Fill-8" fill="#7167AC" points="0.999130872 993.854 819.018752 1070.406 1513.53195 1103.015 2198.32706 1176.428 2444.99913 1193.595 2444.99913 868.435 0.999130872 868.435"></polygon>
            <path d="M1342.3798,550.0806 C1342.3798,618.9706 1286.5338,674.8166 1217.6438,674.8166 C1148.7538,674.8166 1092.9078,618.9706 1092.9078,550.0806 C1092.9078,481.1906 1148.7538,425.3446 1217.6438,425.3446 C1286.5338,425.3446 1342.3798,481.1906 1342.3798,550.0806" id="Fill-6" fill="#EA5158"></path>
            <polygon id="Fill-10" fill="#FFFFFF" points="0.999130872 475.4038 130.531619 483.1448 238.334068 492.4358 394.752666 498.1128 496.207291 509.4038 534.257382 517.7258 640.999131 522.3718 604.00974 535.7908 494.094079 539.9198 331.339943 539.9198 179.680165 534.7578 75.5758359 539.9198 0.999130872 539.9198"></polygon>
            <polygon id="Fill-12" fill="#FFFFFF" points="862.098905 574.0366 781.69307 579.7906 694.083697 579.7906 613.216044 572.2716 592.999131 560.2596 613.216044 555.2746 717.001422 557.8896 778.963395 556.2246 836.89683 555.2746 871.999131 561.2396"></polygon>
            <polygon id="Fill-14" fill="#005D9C" points="483.531524 683.961471 588.497989 648.515464 749.91113 648.515464 964.327181 581.663833 1002.87249 612.766458 1077.55661 588.205464 1128.15096 632.812652 1173.92403 612.766458 1226.92487 624.653419 1286.48546 581.663833 1385.52905 632.812652 1634.07368 668.111385 1718.46674 683.961471 1718.46674 731.663833 483.531524 731.663833"></polygon>
            <polygon id="Fill-16" fill="#CAE9F9" points="961.532509 582.265801 1075.86855 544.663833 1211.07486 544.663833 1287.61596 582.265801 1331.05946 604.105225 1266.88848 602.67789 1227.33178 624.624365 1173.68309 612.913076 1127.35232 632.663833 1076.14363 588.71141 1000.54955 612.913076"></polygon>
            <polygon id="Fill-18" fill="#FFFFFF" points="2164.18555 489.5161 2037.51453 496.3381 1923.88456 510.4371 1832.6095 508.1631 1780.4494 510.4371 1772.99913 524.0811 1825.15923 539.5441 1976.04466 539.5441 2113.88904 533.4331 2234.97338 539.5441 2337.42589 533.4331 2357.99913 519.4041 2337.42589 505.4341 2251.2624 493.6101"></polygon>
            <mask id="mask-2" fill="white">
                <use xlink:href="#path-1"></use>
            </mask>
            <g id="Clip-21"></g>
            <polygon id="Fill-20" fill="#133759" points="2355.01131 676.4263 2355.01131 667.4923 2293.54139 667.4923 2293.54139 690.7553 2270.59897 690.7553 2270.59897 678.5253 2209.12905 678.5253 2209.12905 675.2343 2119.37114 675.2343 2119.37114 690.7553 2078.60195 690.7553 2078.60195 668.7063 1941.19377 668.7063 1941.19377 679.3843 1853.99779 679.3843 1853.99779 672.8513 1766.79361 672.8513 1766.79361 690.7553 1660.36673 690.7553 1660.36673 685.1403 1601.14671 685.1403 1601.14671 672.8513 1509.56999 672.8513 1509.56999 665.5653 1321.38303 665.5653 1321.38303 690.7553 1298.82654 690.7553 1298.82654 671.3213 1220.37562 671.3213 1220.37562 676.4263 1135.63893 676.4263 1135.63893 667.4923 1074.16901 667.4923 1074.16901 690.7553 1051.22248 690.7553 1051.22248 678.5253 989.756669 678.5253 989.756669 675.2343 899.998761 675.2343 899.998761 690.7553 859.225466 690.7553 859.225466 668.7063 721.821391 668.7063 721.821391 679.3843 634.621309 679.3843 634.621309 672.8513 547.421228 672.8513 547.421228 690.7553 440.994347 690.7553 440.994347 685.1403 381.774328 685.1403 381.774328 672.8513 290.193508 672.8513 290.193508 665.5653 102.010648 665.5653 102.010648 690.7553 79.4500545 690.7553 79.4500545 671.3213 0.999130872 671.3213 0.999130872 690.7553 0.999130872 698.9603 0.999130872 799.7503 1074.16901 799.7503 1133.0811 799.7503 1135.63893 799.7503 1220.37562 799.7503 1225.62265 799.7503 2293.54139 799.7503 2352.45759 799.7503 2355.01131 799.7503 2444.99913 799.7503 2444.99913 676.4263"></polygon>
            <mask id="mask-4" fill="white">
                <use xlink:href="#path-3"></use>
            </mask>
            <g id="Clip-24"></g>
            <polygon id="Fill-23" fill="#4594D1" points="269.999131 772.435 460.999131 772.435 460.999131 609.597 269.999131 609.597"></polygon>
            <polygon id="Fill-25" fill="#04477F" points="460.999131 772.435 552.999131 772.435 552.999131 609.597 460.999131 609.597"></polygon>
            <polygon id="Fill-26" fill="#4594D1" points="552.999131 772.435 700.999131 772.435 700.999131 640.048 552.999131 640.048"></polygon>
            <polygon id="Fill-27" fill="#04477F" points="700.999131 772.435 776.999131 772.435 776.999131 640.048 700.999131 640.048"></polygon>
            <polygon id="Fill-28" fill="#4594D1" points="1275.99913 788.01 1442.99913 788.01 1442.99913 655.623 1275.99913 655.623"></polygon>
            <polygon id="Fill-29" fill="#04477F" points="1442.99913 788.01 1521.99913 788.01 1521.99913 655.623 1442.99913 655.623"></polygon>
            <polygon id="Fill-30" fill="#4594D1" points="1909.99913 788.01 2000.99913 788.01 2000.99913 655.623 1909.99913 655.623"></polygon>
            <polygon id="Fill-31" fill="#04477F" points="2000.99913 788.01 2041.99913 788.01 2041.99913 655.623 2000.99913 655.623"></polygon>
            <polygon id="Fill-32" fill="#4594D1" points="1645.99913 797.952 1732.99913 797.952 1732.99913 665.565 1645.99913 665.565"></polygon>
            <polygon id="Fill-33" fill="#04477F" points="1732.99913 797.952 1776.99913 797.952 1776.99913 665.565 1732.99913 665.565"></polygon>
            <path d="M2169.99913,760.5103 L2169.99913,694.5753 C2169.99913,694.5753 2180.84943,622.4873 2299.22414,617.2113 C2417.59885,611.9373 2394.10153,760.5103 2394.10153,760.5103 L2169.99913,760.5103 Z" id="Fill-34" fill="#4594D1"></path>
            <path d="M2194.99913,760.5103 L2194.99913,710.3993 C2194.99913,710.3993 2202.05678,655.6113 2279.05195,651.6023 C2356.04712,647.5933 2340.76517,760.5103 2340.76517,760.5103 L2194.99913,760.5103 Z" id="Fill-35" fill="#04477F"></path>
            <polygon id="Fill-36" fill="#112337" points="2288.43805 732.0278 2288.43805 770.8968 2243.4154 770.8968 2243.4154 720.5148 1867.85439 720.5148 1867.85439 735.0888 1685.0869 735.0888 1685.0869 759.6678 1566.90141 759.6678 1566.90141 770.8968 1354.49927 770.8968 1354.49927 735.0888 1180.47683 735.0888 1180.47683 748.1538 1006.44617 748.1538 1006.44617 726.7998 732.22513 726.7998 732.22513 770.8968 650.859189 770.8968 650.859189 739.8548 471.729306 739.8548 471.729306 746.4348 349.056335 746.4348 349.056335 770.8968 303.265925 770.8968 303.265925 724.3708 180.592953 724.3708 180.592953 742.2378 0.999130872 742.2378 0.999130872 828.8858 180.592953 828.8858 185.692181 828.8858 303.265925 828.8858 2444.99913 828.8858 2444.99913 787.3058 2444.99913 770.8968 2444.99913 732.0278"></polygon>
            <polygon id="Fill-37" fill="#133759" points="0.999130872 797.9194 1084.56454 821.9194 1434.58424 821.9194 1720.14511 809.9194 2041.17887 809.9194 2282.74761 821.9194 2444.99913 821.9194 2444.99913 878.4354 0.999130872 878.4354"></polygon>
            <polygon id="Fill-38" fill="#F4B749" points="671.264187 948.0474 1227.99913 948.0474 880.767461 957.2954 1100.47635 969.1304 619.798412 969.1304 768.087444 963.8404 498.999131 960.6794 833.061009 952.7424"></polygon>
            <polygon id="Fill-38-Copy" fill="#FF8E93" points="1104.79768 916.1304 1352.99913 916.1304 1198.19763 923.587403 1296.14741 933.1304 1081.85341 933.1304 1147.96306 928.864878 1027.99913 926.316047 1176.92932 919.916152"></polygon>
            <polygon id="Fill-39" fill="#F4B749" points="1445.99913 896.6626 1219.99913 896.6626 1375.65394 900.7956"></polygon>
            <polygon id="Fill-40" fill="#F4B749" points="1881.99913 967.2271 1881.08898 966.991832 1746.74972 953.2611 1881.99913 947.5971 1882.2268 947.888336 1733.86443 946.9811 1533.05031 944.8521 1589.40221 949.2441 1406.99913 950.0671 1579.63 958.2651 1426.42193 967.2271"></polygon>
            <polygon id="Fill-41" fill="#F4B749" points="1835.15094 998.4585 1663.7413 998.4585 1742.93648 1004.2855 1551.99913 1010.1115 1845.99913 1010.1115 1794.19793 1004.2855"></polygon>
            <path d="M453.186214,869.352725 L463.922956,869.352725 L463.922956,853.274137 L453.186214,853.274137 L453.186214,869.352725 Z M457.894389,831.378926 L466.01424,831.378926 L466.01424,819.221015 L457.894389,819.221015 L457.894389,831.378926 Z M462.494258,792.112544 L468.056148,792.112544 L468.056148,783.784685 L462.494258,783.784685 L462.494258,792.112544 Z M469.711018,792.112544 L475.284058,792.112544 L475.284058,783.784685 L469.711018,783.784685 L469.711018,792.112544 Z M468.435224,831.378926 L476.564631,831.378926 L476.564631,819.221015 L468.435224,819.221015 L468.435224,831.378926 Z M467.124388,869.352725 L477.872281,869.352725 L477.872281,853.274137 L467.124388,853.274137 L467.124388,869.352725 Z M476.940521,792.112544 L482.502411,792.112544 L482.502411,783.784685 L476.940521,783.784685 L476.940521,792.112544 Z M478.982429,831.378926 L487.10228,831.378926 L487.10228,819.221015 L478.982429,819.221015 L478.982429,831.378926 Z M481.073713,869.352725 L491.812048,869.352725 L491.812048,853.274137 L481.073713,853.274137 L481.073713,869.352725 Z M496.85948,858.899973 L505.802784,892.748 L442.804654,880.678327 L448.138782,858.899973 C428.904706,858.899973 417.999131,848.182505 417.999131,848.182505 C430.866976,848.182505 441.497005,841.636121 449.854176,833.231946 L453.116132,820.883248 C437.808191,820.883248 429.132469,812.347907 429.132469,812.347907 C441.446037,812.347907 451.192088,804.818969 458.300541,796.240701 L457.915095,780.6677 C446.404274,780.6677 439.880361,774.254866 439.880361,774.254866 C461.364996,774.254866 472.498334,743.748 472.498334,743.748 C472.498334,743.748 483.633265,774.254866 505.117901,774.254866 C505.117901,774.254866 498.593987,780.6677 487.083167,780.6677 L486.696128,796.240701 C493.804581,804.818969 503.550632,812.347907 515.8642,812.347907 C515.8642,812.347907 507.190071,820.883248 491.891686,820.883248 L495.144086,833.231946 C503.501257,841.636121 514.129693,848.182505 526.999131,848.182505 C526.999131,848.182505 516.091963,858.899973 496.85948,858.899973 Z" id="Fill-42" fill="#000000"></path>
            <path d="M1610.38533,904.534698 L1623.38839,904.534698 L1623.38839,889.968161 L1610.38533,889.968161 L1610.38533,904.534698 Z M1607.85125,870.127861 L1617.68437,870.127861 L1617.68437,859.112405 L1607.85125,859.112405 L1607.85125,870.127861 Z M1605.37749,834.552928 L1612.1134,834.552928 L1612.1134,827.007098 L1605.37749,827.007098 L1605.37749,834.552928 Z M1596.62576,834.552928 L1603.3725,834.552928 L1603.3725,827.007098 L1596.62576,827.007098 L1596.62576,834.552928 Z M1595.07715,870.127861 L1604.92266,870.127861 L1604.92266,859.112405 L1595.07715,859.112405 L1595.07715,870.127861 Z M1593.49141,904.534698 L1606.50685,904.534698 L1606.50685,889.968161 L1593.49141,889.968161 L1593.49141,904.534698 Z M1587.88486,834.552928 L1594.62077,834.552928 L1594.62077,827.007098 L1587.88486,827.007098 L1587.88486,834.552928 Z M1582.31389,870.127861 L1592.14702,870.127861 L1592.14702,859.112405 L1582.31389,859.112405 L1582.31389,870.127861 Z M1576.61142,904.534698 L1589.61447,904.534698 L1589.61447,889.968161 L1576.61142,889.968161 L1576.61142,904.534698 Z M1533.99913,885.354702 C1533.99913,885.354702 1547.2064,895.066882 1570.49897,895.066882 L1559.66954,925.732 L1635.95827,914.796265 L1629.49929,895.066882 C1652.79186,895.066882 1665.99913,885.354702 1665.99913,885.354702 C1650.41557,885.354702 1637.54401,879.422369 1627.42158,871.810682 L1623.47193,860.620184 C1642.01038,860.620184 1652.51648,852.887181 1652.51648,852.887181 C1637.60435,852.887181 1625.80181,846.065778 1617.19241,838.292915 L1617.66117,824.182177 C1631.60175,824.182177 1639.50105,818.372893 1639.50105,818.372893 C1613.48255,818.372893 1599.9999,790.732 1599.9999,790.732 C1599.9999,790.732 1586.51571,818.372893 1560.49876,818.372893 C1560.49876,818.372893 1568.39806,824.182177 1582.33709,824.182177 L1582.80585,838.292915 C1574.198,846.065778 1562.39546,852.887181 1547.48178,852.887181 C1547.48178,852.887181 1557.98943,860.620184 1576.5155,860.620184 L1572.57668,871.810682 C1562.45425,879.422369 1549.58424,885.354702 1533.99913,885.354702 L1533.99913,885.354702 Z" id="Fill-43" fill="#000000"></path>
            <polygon id="Fill-44" fill="#112337" points="2444.99913 930.064 1443.99913 930.064 2112.97611 870.624 2444.99913 829.758"></polygon>
            <polygon id="Fill-45" fill="#112337" points="0.999130872 908.0757 710.999131 908.0757 474.373581 881.7277 408.805072 863.7007 0.999130872 849.1397"></polygon>
            <polygon id="Fill-46" fill="#000000" points="1244.64374 996.570447 1264.08356 1005.71962 1280.87998 1292.67913 1361.68847 1292.15921 1396.16232 1010.86302 1405.88319 1008.57813 1411.03044 925.09797 1399.02275 862.776578 1375.57909 831.327153 1345.84669 818.177982 1353.85246 789.587073 1336.12774 761 1308.11045 764.430218 1294.96128 797.021131 1294.96128 831.327153 1262.94015 838.761212 1237.7833 918.237533 1254.93631 941.107574"></polygon>
            <polygon id="Fill-47" fill="#112337" points="515.9995 1059.74771 557.678415 1101.54403 694.63412 1100.89004 818.13851 1093.51145 994.73383 1090.89547 1044.82918 1043.20692 945.865518 1029.2696 794.732645 1033.69425 641.790901 1042.54354"></polygon>
            <polygon id="Fill-48" fill="#112337" points="662.875928 1089.81997 636.051136 1086.63135 613.003761 1075.23804 645.331806 1061.7169 663.898858 1076.18618 670.767925 1086.78155 780.564412 1144.77758 799.102892 1148.72346 828.91647 1162.11005 796.788439 1174.4734 777.28989 1159.27815 773.272458 1148.93625"></polygon>
            <polygon id="Fill-49" fill="#112337" points="801.368517 1116.87634 829.534563 1116.97021 857.078997 1125.52849 829.83364 1142.40098 805.596649 1130.3349 794.612888 1120.73773 661.980896 1076.36298 641.843024 1074.58874 606.745421 1064.85076 634.237077 1049.13294 659.676241 1061.79982 667.704415 1071.47209"></polygon>
        </g>
    </g>
</svg>