<svg width="1081" height="965" xmlns="http://www.w3.org/2000/svg"><g fill="none" fill-rule="evenodd"><path fill="#962151" d="M913.28 823.399v141.177H758.333l38.358-125.98-61.827-36.627 41.481-34.861-64.678-117.532 117.106 40.712 64.163 51.825z"/><path fill="#E34C82" d="M655.235 660.024l-3.79-22.648-2.669-16.112v-62.688L703.57 635.3l8.066 14.66h.03l64.679 117.39-41.481 34.818 61.827 36.582-38.357 125.825H637.83l27.988-209.362 2.335-17.53z"/><path fill="#F0ABC2" d="M695.322 266.217l-23.046-5.276-121.987-7.823H446.706l-64.951 1.546-46.394 3.79V233.56l15.313-1.758 21.5-2.456 34.81-4.002 109.95-1.971 118.167 5.882 59.31 8.733 26.745 3.942 14.888 2.183 4.701 32.476z"/><path fill="#E97EA1" d="M740.745 276.588l-33.082 58.25-12.341-44.181v-24.44zM721.156 209.665v32.264l-26.744-3.942.91-6.186v-25.835h7.156l5.73 25.835 5.732-24.077 5.7-2.122z"/><path fill="#FADEEA" d="M719.216 390.45v42.45l-42.27 59.282 10.189-33.234-25.441 47.516-12.918 49.487v-49.487l15.95-59.857h14.586l18.193-35.235v-56.34l-14.98-15.555-14.373 14.98v-17.315l-9.581-47.243 36.75.758 12.341 44.18 4.914 17.558z"/><path fill="#F3BACD" d="M713.94 207.724l-5.73 24.078-5.732-25.836zM697.505 355.032v56.34l-18.193 35.235h-14.585l3.425-12.917v-79.234l14.373-14.979 14.98 15.555zm-4.7 50.366v-34.234l-5.003-8.794v33.144l-9.673 19.71 5.883 6.913 8.793-16.739z"/><path fill="#E34C82" d="M695.322 266.217v24.44l-36.75-.758-61.374-6.58-62.799-6.731-94.152 5.367h-25.32l-33.172-5.367v-21.924l64.95-1.546H550.29l121.987 7.823z"/><path fill="#F3BACD" d="M695.322 205.966v25.835l-13.585-3.244-13.585-29.626h27.17z"/><path fill="#EC8EAD" d="M692.805 371.164v34.234l-8.794 16.738-5.882-6.913 9.672-19.71V362.37z"/><path fill="#F7C7D8" d="M668.152 354.456v79.233l-3.425 12.918-15.951 59.857-46.94 45.757-40.48 14.676h-.789l-20.558-22.68 18.011-14.495v-28.353h-13.402v-6.518l17.89-9.25 13.827-3.668 14.95 13.797h7.459v-16.465l7.429-2.032 2.122 7.702 21.773 12.13V392.783l11.977-5.185zM658.571 289.899l9.582 47.243-14.676-1.365-28.504-14.1-7.277-3.608h-36.387l-18.498 7.611-7.731 12.918-4.003.879h-24.076l-27.867-19.072-30.535-5.58v-14.798l97.882-6.52h30.716V283.32z"/><path fill="#E97EA1" d="M655.235 644.917l12.918 68.105-2.335 15.374-17.042-28.261z"/><path fill="#E99FB6" d="M648.776 700.135l17.041 28.26-54.034 2.76 39.661-106.099 3.79 19.861z"/><path fill="#E34C82" d="M658.965 110.298h-33.991v-25.44l1.03-4.67 19.073 18.77z"/><path fill="#F0ABC2" d="M653.477 335.778l-26.412-2.456H612.784l12.19-11.644z"/><path fill="#F3BACD" d="M648.776 610.926l2.668 14.13-39.661 106.1-35.174 1.819 13.735-83.328-9.673-18.77-51.7 97.943-40.784-3.548 22.864-25.743-30.262-57.523 15.708-56.035h67.194l48.425-19.074 36.66-60.433v49.487z"/><path fill="#E97EA1" d="M456.41 74.002l-18.316 15.373L433 103.84h28.716l.455 5.67 80.203 10.189 82.6-7.823v-1.577h33.99l-13.887-11.341-19.072-18.77 1.97-8.944 32.172 20.286 29.322 30.899 13.707 38.72 16.464 44.454-5.7 2.122-11.462-1.758h-7.157v-7.035h-27.17l13.586 29.625 13.584 3.245-.91 6.186-59.31-8.733-118.167-5.883-109.951 1.971-34.81 4.002-.697-5.973 18.8-32.96h-25.259l-1.456 8.52h8.218l-14.373 24.44h-6.732v-26.593l44.18-89.998 34.447-27.775 24.652-12.523z"/><path fill="#F3BACD" d="M630.067 392.784v104.28l-21.77-12.13-2.123-7.7-6.672-24.381v-32.87l16.132-20.922z"/><path fill="#F0ABC2" d="M629.613 63.753l-1.638 7.49-1.971 8.945-1.03 4.669v27.018l-82.6 7.823-80.204-10.188 8.794-31.112L468.963 71l25.865-3.73 53.61-6.67-5.488-15.04-10.947-3.335-8.034-8.218h43.119l37.204 12.918z"/><path fill="#F3BACD" d="M624.518 339.78l16.253 2.335 12.705 6.459v10.764l-15.434 22.106-38.54 2.486-18.83-1.517-16.648-14.615 2.457-16.737 10.28 13.644 21.863 6.61 20.254-4.244 10.553-3.033-.607-10.583-8.066-8.945-9.673-4.73z"/><path fill="#E97EA1" d="M624.973 321.677l-12.19 11.645h-33.536l-16.436-7.642 18.497-7.611h36.387z"/><path fill="#FCEBF2" d="M618.878 355.335l-12.826 8.703h-1.759l4.973-7.55v-7.035z"/><path fill="#E34C82" d="M653.477 359.338v-10.764l-12.706-6.46-16.252-2.334v-6.458h2.546l26.412 2.456 14.675 1.364v17.314l-26.107 33.143-11.977 5.185-14.434 6.277h-4.215v-6.277l26.623-11.34z"/><path fill="#962151" d="M602.322 346.906l1.153 7.157-5.944 2.667-5.488-.818-.303-7.582 3.062-2.789z"/><path fill="#F3BACD" d="M597.198 283.32v10.187H566.48l-97.882 6.52v14.797l-19.922 4.822-8.43-37.691 94.152-5.367z"/><path d="M600.473 344.086l8.793 5.367v7.035l-4.973 7.55h-13.008l-3.73-5.792-2.335-5.942.758-6.46 14.495-1.758zm3.002 9.976l-1.153-7.157-7.52-1.363-3.062 2.789.303 7.58 5.488.82 5.944-2.669z" fill="#D04074"/><path fill="#E99FB6" d="M618.878 367.07l-20.255 4.245-21.863-6.61 14.524-.667h14.768l12.826-8.703 10.553 8.703zM590.344 408.643v44.21h-.242l-25.046-24.257v-13.373l-8.006-6.58h13.98zM580.672 630.877l9.672 18.77-13.736 83.327-47.636-4.153z"/><path fill="#FCEBF2" d="M587.555 358.246l3.73 5.792-16.254-9.704 10.947-8.49-.758 6.46z"/><path fill="#F3BACD" d="M586.281 479.264h12.463v16.466h-7.459l-14.95-13.797z"/><path fill="#F0ABC2" d="M579.247 333.322l-24.167 5.276 7.731-12.918z"/><path fill="#E97EA1" d="M588.252 339.78h22.832l9.675 4.73 8.065 8.945.606 10.583-10.552-8.702-9.613-5.883-8.792-5.368-14.495 1.76-10.947 8.49-.637-.273-7.913-3.001 9.824-6.55z"/><path fill="#F3BACD" d="M576.76 364.705l-10.279-13.644 7.914 3.001.636.272 16.254 9.704z"/><path fill="#F7C7D8" d="M571.03 408.643l-11.463-21.62 14.1 8.066 17.315 3.971h24.652l-16.133 20.923v32.87h-9.157v-44.21zM583.067 389.661l-18.981-8.218-9.006-18.77v-14.888l24.47-8.004h8.702l-11.947 4.73-9.824 6.549-2.457 16.738 16.647 14.616 18.831 1.516 38.54-2.487-26.623 11.34h-12.917z"/><path fill="#E5618D" d="M546.953 461.859l39.328 17.405-24.926-2.455H508.08l-8.462-5.763 9.189-5.093 14.372-5.277 9.795 4.246 1.971.849z"/><path fill="#E97EA1" d="M561.356 476.808l24.925 2.456-9.946 2.67-13.826 3.668-17.891 9.248h-13.949l21.863-18.042z"/><path fill="#F3BACD" d="M540.009 544.216l20.559 22.681h-50.882v-44.21l29.929-21.317h18.406v28.351z"/><path fill="#E34C82" d="M557.05 419.983v8.612h-6.761l-6.762-3.335 4.305-5.277z"/><path fill="#E97EA1" d="M552.532 476.808L530.67 494.85h-8.217l-13.796-6.003-14.222-9.674 13.645-2.365zM542.95 45.56l5.488 15.039-53.61 6.67L468.963 71l-5.215-19.314 21.498-9.855 38.723-7.824 8.034 8.218z"/><path fill="#F7C7D8" d="M565.055 415.223v13.372h-8.004v-8.612h-9.22l-4.304 5.277h-3.912v-13.888l5.003-14.07v-39.693l14.95 29.414 11.461 21.62h-13.978z"/><path fill="#E97EA1" d="M544.618 449.215v8.126l-9.794 3.335-5.034-5.033v-6.52z"/><path fill="#EC8EAD" d="M544.618 444.333v4.882l-14.828-.092-1.546-23.318.394-.333-.455-.364v-.03l-6.307-5.185 7.489-8.522h10.25v25.835z"/><path fill="#EC8EAD" d="M544.618 357.61v39.692l-5.003 14.07h-10.25l-5.215-13.798v-33.81l4.336-7.276h15.555z"/><path fill="#F3BACD" d="M565.055 428.595l25.047 24.258H599.501l6.672 24.38-7.43 2.032h-12.462l-39.327-17.406-12.009 3.911-1.971-.848 1.85-4.246 9.794-3.335v-13.008l-5.003-7.127V425.26h3.912l6.761 3.335h6.763z"/><path fill="#E99FB6" d="M532.974 464.922l-9.794-4.246-14.373 5.277-9.188 5.093-18.83 10.463 16.768-48.608h13.495l11.703-2.76 5.489-4.336 1.546 23.319v6.519l5.034 5.033z"/><path fill="#E34C82" d="M528.183 425.077v.031l.06.697-5.488 4.336-10.128-5.548v-4.852l9.25.152z"/><path fill="#F0ABC2" d="M527 339.477h-5.579l-22.287-7.126v-11.947z"/><path fill="#E99FB6" d="M524.15 363.795v33.78l-13.463 14.98-11.068-14.313 10.37-10.643z"/><path fill="#F3BACD" d="M512.628 419.741v4.852l10.127 5.549-11.704 2.758-6.428-9.217v-11.129h6.064l13.463-14.98 5.216 13.798-7.49 8.52z"/><path fill="#E97EA1" d="M504.623 423.683l6.428 9.217h-13.493l-9.371-12.128 6.46-17.405 4.972-5.124 11.068 14.311h-6.064z"/><path fill="#E99FB6" d="M480.789 642.007l30.262 57.521-22.864 25.745-85.419-28.353 11.887-39.449 23.44 13.311h17.617v-127.84l40.784 43.028z"/><path fill="#E34C82" d="M508.08 476.808l-13.646 2.365-13.646 2.335 18.831-10.462z"/><path fill="#F7C7D8" d="M499.619 525.233v30.718l-27.866-17.376v-16.07l16.434 10.551V519.17z"/><path d="M471.753 538.576l27.865 17.375v-30.717l-11.43-6.065v13.888l-16.435-10.552v16.07zm29.14 28.321l-57.523-36.964-5.275-107.797 25.047 10.765h34.416l-16.77 48.608v14.221h9.825l3.82-16.556 14.222 9.673 13.797 6.003h22.167v6.52h-5.004l-29.93 21.316v44.211h-8.792z" fill="#F3BACD"/><path fill="#F3BACD" d="M488.187 420.772l9.37 12.128h-34.416l-25.047-10.763-18.496-55.066 26.32 36.296h48.728z"/><path fill="#F7C7D8" d="M495.89 369.406l-7.702 16.525h-32.476l-13.706-7.611-14.282-13.705-5.852-15.647v-11.553l19.891 15.192v8.945l15.102 6.246z"/><path fill="#EC8EAD" d="M494.434 479.174l-3.821 16.555h-9.824v-14.221z"/><path fill="#FCEBF2" d="M480.789 362.4l6.003-6.943 2.304-10.947 15.527 10.947-13.434 4.7-7.156 2.517z"/><path fill="#962151" d="M480.789 342.57l2.061 4.821-2.638 6.065h-5.579l-4.396-4.003 1.606-6.883z"/><path fill="#E99FB6" d="M470.388 330.198l44.968 17.192v16.83l-10.946 18.011-16.223 3.7 7.703-16.525-4.7-9.25 13.433-4.7-15.527-10.945-2.728-1.941-16.131-6.762z"/><path fill="#E99FB6" d="M431.06 330.198h39.328l-.152 5.61-16.283 3.67-12.19 13.129-19.89-15.192z"/><path fill="#D04074" d="M482.85 347.39l-2.06-4.82h5.578l2.729 1.94-2.304 10.947-6.004 6.943-10.553-.848-4.275-6.671-3.335-9.098 4.972-3.214h4.245l-1.607 6.884 4.397 4.003h5.58z"/><path fill="#FCEBF2" d="M465.96 354.88l4.277 6.672-7.945-.638-9.825-8.52 10.158-6.611z"/><path fill="#F3BACD" d="M470.237 361.551l10.552.85 3.244.272 7.156-2.516 4.701 9.248-39.025-1.607 5.427-6.883z"/><path fill="#E97EA1" d="M470.964 78.398l-8.794 31.112-.455-5.671-1.515-18.193L456.41 74l-2.457-7.52-1.97-9.4 11.765-5.397L468.963 71z"/><path fill="#E99FB6" d="M462.292 360.915l-5.428 6.883-15.1-6.247v-8.944l10.703-.213z"/><path fill="#E34C82" d="M460.2 85.646l1.516 18.193H433l5.094-14.464 18.315-15.373z"/><path fill="#E97EA1" d="M443.37 529.933l57.522 36.965h60.464l40.481-14.677 46.94-45.758-36.661 60.435-48.425 19.073h-67.194l-40.785-43.03zM455.712 620.902v49.88h-17.617l-23.44-13.31 23.44-12.615-1.76-65.619z"/><path fill="#E97EA1" d="M455.712 542.942v77.96l-19.377-41.664 5.793-40.663 1.242-8.642zM453.953 339.477l16.284-3.67 16.13 6.762H467.599l-4.972 3.214-10.16 6.612-10.703.212zM470.085 323.042h-35.508l14.1-3.396 19.922-4.822 30.535 5.58v11.947z"/><path fill="#F7C7D8" d="M440.247 281.955l8.43 37.69-14.1 3.397H429.3l-14.372 3.335v-44.422zM438.095 422.137l5.276 107.796-29.93-56.945-3.183-24.957-4.76-37.448-.273-2.152v-63.374l14.372 22.014z"/><path fill="#E34C82" d="M442.128 538.576l-5.792 46.388-1.759 14.045-19.922 75.202-11.887 45.004-4.002 15.047-22.287 230.314H271.623L258.31 757.473l70.44-8.06-35.235-41.06 68.469-95.889 10.582-14.805z"/><path fill="#E34C82" d="M436.336 579.239l1.758 65.618-23.439 12.614 19.922-65.921z"/><path fill="#E99FB6" d="M436.336 382.626l21.135 9.097h31.11l21.408-4.124-10.37 10.643-4.973 5.125h-48.728l-26.32-36.297z"/><path d="M427.724 364.614l14.282 13.706 13.706 7.61h32.476l16.222-3.699 10.946-18.011v-16.83l-44.968-17.192H431.06l-9.188 7.217v11.553l5.852 15.646zm29.747 27.108l-21.136-9.096-16.738-15.556-14.372-22.014v-16.434l9.703-2.245 14.372-3.335H470.085l29.049 9.309 22.287 7.127h29.656l4.002-.88 24.168-5.277h45.272v6.46H579.55l-24.47 8.004v14.888l9.005 18.77 18.982 8.218 15.434 3.122h12.918v6.277h-20.437l-17.315-3.972-14.1-8.065-14.949-29.414-.576-1.12h-15.556l-4.336 7.276v.03L509.99 387.6l-21.407 4.123h-31.11z" fill="#E34C82"/><path fill="#FADEEA" d="M414.928 281.955v44.422l-9.703 2.244-10.37-2.244v16.709l-5.186-.97h-7.914v65.739l7.49 14.858 7.247 14.403 8.733 39.177-18.983-28.26v28.26l-24.258-80.78V362.37l4.185-30.019v-.03l.91-6.64 14.676-49.093z"/><path fill="#F3BACD" d="M405.498 410.584l4.76 37.448h-8.247l-5.52-10.915-7.247-14.404 5.428-2.73 4.7-8.611z"/><path fill="#E34C82" d="M405.225 342.115v2.941l-10.37-1.97v-16.709l10.37 2.244z"/><path fill="#962151" d="M402.768 719.576l85.419 32.295 40.784 4.043 47.638 4.731 35.174-2.072 54.035-3.143-27.988 209.146H376.479L398.766 734.6z"/><path fill="#EC8EAD" d="M394.066 396.544l5.306 14.828-4.7 8.61-5.883-12.188v-55.4h5.277z"/><path fill="#F3BACD" d="M390.276 190.41l-18.8 32.962h-14.07l14.373-24.44h-8.218l1.456-8.522zM405.225 408.431l.273 2.153-6.125.788-5.308-14.828v-44.15h-5.275v55.4l5.882 12.19-5.428 2.729-7.49-14.858v-65.74h7.915l5.185.97 10.37 1.971z"/><path fill="#E97EA1" d="M381.755 254.664v21.923l-14.677 49.094-.909 6.64-23.743-25.472-17.98-39.328v-8.157l10.915-.88v-.03z"/><path fill="#962151" d="M361.984 612.576l-68.468 95.859 35.235 41.046-70.44 8.058 13.312 207.037H58l27.381-116.918 47.728-133.863 47.728-71.376 114.255-24.102z"/><path fill="#E97EA1" d="M357.406 223.372h14.07l.697 5.972-21.5 2.457v-8.43z"/></g></svg>