<svg width="1081" height="965" xmlns="http://www.w3.org/2000/svg"><g fill="none" fill-rule="evenodd"><path fill="#D94178" d="M827.69 674.653l-135.18 75.48-91.26 202.779 72.096-213.474z"/><path fill="#E34C82" d="M797.021 500.142l-58.323 97.329-71.55 74.935-34.925 52.386 8.186-52.955 73.493-74.366 69.564-106.17z"/><path fill="#C81862" d="M716.718 456.661l-14.428-29.118 3.143-22.263 32.413 24.904z"/><path fill="#E86E97" d="M468.45 743.367l-26.084 16.021 29.271-29.685 61.314-61.249 54.504-71.398 27.589-29.97 26.063-28.288.021-.022 75.59-82.115 21.129-26.477-32.414-24.904h37.477l22.833 22.263 17.723 63.758-69.564 106.17-73.494 74.366-8.186 52.954z"/><path fill="#C50D5F" d="M690.24 259.514L711.085 365.4l-5.652 39.879-3.143 22.264-22.178-44.681 12.398-22.526V315.83l-9.013-31.541-12.967-7.88-58.017 36.605-38.308-43.94v-67.032l-11.59-14.079 35.754-30.82-5.632-7.312-35.732 31.279-7.226-8.753 35.776-30.822-5.63-7.333-35.776 31.3-7.4-8.992 36.059-31.061-5.631-7.334-36.06 31.541-27.306-33.222h-25.364l-87.31 39.421-87.878 27.611v113.788l2.816 16.48 1.702 9.975-49.57-81.11 11.83-55.203-18.029-14.646 37.172-63.083 105.34-72.096h109.29V.945l34.925 42.258L602.93 29.69l-13.51 25.91 47.321 19.142 53.5 103.092z"/><path fill="#F3BACD" d="M680.112 382.862l22.178 44.68 14.428 29.119-75.59 82.115 19.274-38.46 6.745-50.705-17.461 54.634-34.642 62.842-27.59 29.97-54.502 71.397-45.075 17.746-16.24-32.72L550 624.516l48.435-79.977 11.329-47.606 39.923-75.196h9.014z"/><path d="M671.381 360.052V334.71l-30.973-14.363v17.463l7.88 14.078-7.88 12.945v12.964l30.973-17.745zm8.731-65.352l-12.965-7.88-19.71 15.499v10.978l18.88-12.943 13.795 24.206V294.7zm3.384-10.412l9.014 31.542v44.506l-12.398 22.526-21.412 38.875h-9.015l-65.613 97.438-32.96-57.276-60.921-36.757-7.225-24.251-41.91-20.19-.349-.655-1.68-.328-41.276-8.229v-84.668l21.762 34.727v10.412l32.327 15.694 36.32-8.513 13.949-5.522-13.796 29.816 13.796 8.054 11.83 15.171 40.14 11.416 24.078-22.526-8.862-15.498 30.667-33.374 12.55-13.664 58.018-36.604 12.966 7.878z" fill="#F3BACD"/><path fill="#EC8EAD" d="M680.112 294.7v29.86l-13.794-24.206-18.882 12.943v-10.979l19.71-15.498zM671.381 334.71v25.342l-30.973 17.746v-12.966l7.88-12.943-7.88-14.08v-17.462z"/><path fill="#F2ACC4" d="M667.147 449.61l-6.745 50.706-19.273 38.46-.022.023-26.063 28.288 34.64-62.842z"/><path fill="#F1A9C1" d="M574.205 269.075l38.307 43.938-12.55 13.665-50.968-82.814z"/><path fill="#F2ACC4" d="M609.763 496.933l-11.33 47.606L550 624.516l-78.362 28.964-9.276-18.662-3.23-6.549 85.235-30.23 47.301-67.033z"/><path fill="#F7C7D8" d="M548.994 243.864l50.968 82.813-30.668 33.375H520.27l-18.16 11.438-13.795-8.055 13.795-29.816 15.846-6.265 5.828-6.701 12.966-14.952v-20.845L474.65 249.78l-42.674 12.682-34.226 24.36v-89.276l18.183-46.144 49.418-27.655 68.866 90.497z"/><path fill="#E34C82" d="M601.25 952.911l-2.816 9.932H571.98l6.177-58.367 94.077-207.362 155.456-22.461-154.343 64.785z"/><path fill="#E86E97" d="M592.737 149.83l5.631 7.313-35.753 30.821-5.61-6.854z"/><path fill="#EC92B0" d="M591.668 531.006l-47.301 67.032-85.237 30.232-12.224-24.6 75.48-18.576z"/><path fill="#E86E97" d="M579.924 134.202l5.631 7.333-35.776 30.822-5.63-6.855z"/><path fill="#F2ACC4" d="M551.112 461.9l32.96 57.275-75.764 47.039-42.957 5.151 48.588-28.528v-83.928l-16.043-7.88-7.705-25.886z"/><path fill="#F3BACD" d="M569.294 360.052l8.862 15.498-24.076 22.526-40.141-11.416-11.83-15.17 18.16-11.438z"/><path fill="#EC8EAD" d="M549.78 172.357l7.225 8.753 5.61 6.853 11.59 14.08v67.031l-25.21-25.21v-42.237l-70.547-85.193h25.363l27.307 33.222 5.631 6.854 7.4 8.992z"/><path fill="#E86E97" d="M567.177 118.115l5.63 7.333-36.058 31.062-5.632-6.854z"/><path fill="#F1A9C1" d="M548.994 201.628v42.236l-14.777-29.62-68.866-90.498 13.096-7.312z"/><path fill="#E86E97" d="M536.75 284.856V305.7l-62.515-36.91-63.387 28.31-13.098-10.28 34.226-24.36 42.674-12.682z"/><path fill="#F1A9C1" d="M536.75 305.702l-12.966 14.951-7.793-8.818-6.287-7.116-21.958-12.464h-28.31l-21.959 17.31-2.968-8.578 39.726-32.196z"/><path fill="#D11F69" d="M532.951 668.454l-61.313 61.249-29.272 29.685-.02.021v-60.527l20.014-64.064v51.381h25.517z"/><path fill="#F1A9C1" d="M515.99 311.835l7.794 8.818-5.828 6.701-15.847 6.265-13.948 5.522-36.322 8.513-32.325-15.693 11.044-5.283h52.124z"/><path fill="#E97EA1" d="M509.704 304.719l6.287 7.116-33.309 14.842h-52.125l13.38-6.438h.023l28.572-2.009 6.898-.48 2.117-.152 12.595-5.763z"/><path fill="#F2ACC4" d="M513.939 491.301v51.535l-48.588 28.529-13.38 1.616-41.123 9.843-.502.305-37.565-61.138 44.549 18.597 51.121-17.462z"/><path fill="#E99FB6" d="M513.939 458.91V491.3h-25.625l-17.42-3.34 17.42-12.441-20.562 1.638 8.73-16.83 21.414-9.299z"/><path fill="#F2ACC4" d="M513.939 491.301l-45.488 31.825v-13.795l-18.444-6.484 20.867-14.885h.02l17.42 3.34z"/><path fill="#F8E1EE" d="M509.704 304.719l-15.562 7.116 1.986-10.849z"/><path fill="#F2ACC4" d="M490.19 425.142l7.706 25.888-27.328-28.726-16.065-9.015v-7.9L441.056 380.7l41.91 20.19z"/><path fill="#F2ACC4" d="M470.568 422.304l27.327 28.725-21.412 9.299-8.73 16.83-32.96 2.596-11.045-46.47h12.18l18.574-12.114v-7.88z"/><path fill="#E5618D" d="M488.314 475.52l-17.42 12.442h-.02l-9.037-2.86 5.915-7.944z"/><path fill="#C81862" d="M471.637 653.48l16.24 32.72H462.36v-51.382z"/><path fill="#EC8EAD" d="M480.783 302.427l2.947 6.723-4.716 2.795-2.88-6.243-.35-5.043z"/><path fill="#D04074" d="M480.783 302.427l-4.999-1.768v-1.855h12.377l7.967 2.182-1.986 10.848-12.594 5.763-2.118.153-.416-5.805 4.716-2.795z"/><path fill="#D04074" d="M479.015 311.944l.416 5.806-6.899.48-7.181-9.713 1.266-9.713h9.167v1.855l.35 5.042z"/><path fill="#EC8EAD" d="M474.235 268.79l-39.726 32.197 2.968 8.577-17.964-1.047v13.032L397.75 286.82l13.098 10.282z"/><path fill="#F8E1EE" d="M465.35 308.518l7.182 9.712-28.572 2.008h-.022l-1.397.11 24.075-21.544z"/><path fill="#E99FB6" d="M468.45 509.331v13.795l-51.12 17.462-44.55-18.598-9.516-28.375 9.516-63.431 18.008 24.49h17.528v-21.39h15.432l11.044 46.47-15.28-9.866-11.196 7.27.85 7.944-27.328 16.065 39.857 5.894 28.311-4.213z"/><path fill="#E86E97" d="M467.752 477.157l-5.915 7.945-13.664 5.348h-13.097l-19.142 5.217-7.619-.153.851-10.412h17.179l8.447-5.347z"/><path fill="#F2ACC4" d="M454.503 413.29v7.88l-18.576 12.114H402.684l-4.78-3.1-26.062-16.895 13.38-9.865h33.244v6.482l-14.08 8.164 8.447 4.234h21.13l5.064-4.234-4.802-8.164v-6.482h3.099z"/><path fill="#F3BACD" d="M454.503 405.388v7.901l-17.179-9.866H385.221l-9.56-11.263 4.78-32.108v-39.704l-23.246-26.63-25.342-6.898-11.612 4.235V226.14l36.125-41.407 59.567-33.33-18.182 46.143V371.49l41.276 8.229 2.03.982z"/><path fill="#E5618D" d="M448.172 490.45l-9.843 6.483h-9.735l-12.66-1.266 19.142-5.217z"/><path fill="#EC8EAD" d="M487.746 292.256l21.959 12.462-13.577-3.732-7.967-2.182h-21.544l-24.076 21.543 1.396-.109-13.38 6.44-11.044 5.282v-23.442l17.964 1.046 21.958-17.308z"/><path fill="#E34C82" d="M434.225 409.906l4.802 8.164-5.064 4.234h-21.13l-8.446-4.234 14.079-8.164z"/><path fill="#E99FB6" d="M434.792 479.754l-8.447 5.348h-17.179l-.85-7.945 11.197-7.27z"/><path fill="#E34C82" d="M434.508 764.212l7.837-4.802.021-.022 26.085-16.022 163.771-18.575-176.17 47.585-21.544 23.944zM434.508 796.32l-34.64-9.582-57.166-75.48 30.406 28.18z"/><path d="M442.345 759.41l-7.837 4.801v32.109l-61.4-56.882c2.27-1.703 45.771-73.93 45.771-73.93l23.466 33.374v60.528z" fill="#E86E97"/><path fill="#F2ACC4" d="M418.465 409.906h15.76v-6.482h-15.76z"/><path fill="#E5618D" d="M421.696 507.06l-39.858-5.893 27.328-16.064-.85 10.412z"/><path fill="#F2B0C7" d="M391.137 155.855l87.31-39.421-13.096 7.312-49.418 27.656-59.567 33.33-36.125 41.408v64.915l-16.982 6.199V183.466z"/><path fill="#E97EA1" d="M421.696 507.06l-13.38-11.545 7.617.152 12.66 1.266h9.735l9.844-6.483 13.665-5.347 9.037 2.86-20.867 14.885z"/><path fill="#EC92B0" d="M410.848 583.96l-.502-.83.502-.305 41.123-9.845 13.38-1.615 42.957-5.15 75.763-47.04 65.615-97.438-39.923 75.196-18.096 34.072-69.28 54.089-75.48 18.576-25.211-13.773z"/><path fill="#E99FB6" d="M410.345 583.13l.502.83-42.803-46.755-60.266-136.314 9.713-29.161 17.877 3.82 10.586 66.465 17.31 51.6 9.516 28.375zM408.316 433.284v21.391h-17.528l-18.008-24.49h25.124l4.78 3.099z"/><path fill="#E34C82" d="M421.696 589.897l-14.21 53.783-64.784 67.578 56.337-70.96 11.809-44.595z"/><path fill="#EC8EAD" d="M397.904 430.185H372.78l-9.516-16.896 2.575-9.865 6.003 9.865z"/><path fill="#F2B0C7" d="M375.662 392.16l9.559 11.264-13.38 9.865-6.002-9.865-2.575-4.213 3.928-11.547 13.25-27.612z"/><path fill="#E99FB6" d="M380.442 342.088v17.964l-34.488 17.746-10.587-2.248-17.876-3.82 4.933-14.843 17.462 2.117z"/><path fill="#E97EA1" d="M380.442 333.008v9.08l-40.556 16.916-17.462-2.117v-10.913l15.759 1.68 11.154-3.863 13.293-4.606 7.552-2.62zM380.442 320.347v12.66l-7.661-5.653-9.518-7.007z"/><path fill="#E86E97" d="M357.195 293.718l23.247 26.63L350.45 305.7l-44.375 8.032-2.816-16.48 16.982-6.198 11.612-4.234z"/><path fill="#F2ACC4" d="M380.442 360.052l-13.25 27.612-3.929 11.547 2.576 4.213-2.576 9.865 9.518 16.895-9.518 63.43-17.31-51.6-10.586-66.464 10.587 2.247z"/><path fill="#F1A9C1" d="M380.442 320.347h-32.109l-42.258-6.614 44.375-8.03z"/><path fill="#F8E1EE" d="M380.442 333.008l-10.26 3.557 2.599-9.211z"/><path d="M373.108 739.438l-30.406-28.18 64.784-67.578 14.21-53.783 25.21 13.773 12.225 24.6 3.23 6.548-20.016 64.063-23.465-33.374s-43.502 72.228-45.772 73.93" fill="#D94178"/><path fill="#D04074" d="M372.78 327.354l-2.598 9.211-7.552 2.62-2.052-5.893-4.932-9.583v-3.362h7.617z"/><path fill="#D04074" d="M360.578 333.291l2.052 5.894-13.293 4.606-6.788-13.031 2.969-9.212 2.815-1.2h7.313v3.361l-2.38 4.933 2.38 5.347z"/><path fill="#F1A9C1" d="M355.646 323.71l4.932 9.581-4.932.699-2.38-5.348z"/><path fill="#F8E1EE" d="M342.55 330.76l6.787 13.03-11.154 3.864-15.76-1.68v-14.647l23.094-9.779z"/><path fill="#E97EA1" d="M317.491 371.73l-9.714 29.16V323.71l-1.702-9.975 42.258 6.614-2.815 1.2-23.094 9.78v25.558z"/><path fill="#E86E97" d="M598.434 962.843l2.816-9.932 91.26-202.778 135.18-75.48-155.457 22.46-94.077 207.363-6.177 58.367-424.486 1.21 17.98-90.56 109.345-172.08 47.606-58.3 88.424-47.41-11.809 44.594-56.337 70.961 57.166 75.48 34.64 9.582 21.545-23.945 176.17-47.584 34.924-52.386 71.551-74.934 58.323-97.33 151.79 99.032 63.648 66.334 47.869 117.302 20.278 135.178v44.856z"/></g></svg>