
<svg width="2453px" height="1970px" viewBox="0 0 2453 1970" version="1.1" xmlns="http://www.w3.org/2000/svg" xmlns:xlink="http://www.w3.org/1999/xlink">
    <g id="Page-1" stroke="none" stroke-width="1" fill="none" fill-rule="evenodd">
        <g id="Group-94">
            <path d="M201.754605,569.812447 L270.831409,569.812447 L270.831409,538.892182 L201.754605,538.892182 L201.754605,569.812447 Z M334.635804,507.971916 L403.712608,507.971916 L403.712608,477.033222 L334.635804,477.033222 L334.635804,507.971916 Z M334.635804,631.67325 L403.712608,631.67325 L403.712608,600.752985 L334.635804,600.752985 L334.635804,631.67325 Z M472.830603,724.452475 L472.830603,694.951247 L403.712608,694.951247 L403.712608,724.452475 L377.803658,724.452475 L385.712272,755.39117 L403.712608,755.39117 L403.712608,724.452475 L472.830603,724.452475 Z M541.907407,507.971916 L610.984211,507.971916 L610.984211,477.033222 L541.907407,477.033222 L541.907407,507.971916 Z M610.984211,600.752985 L610.984211,569.812447 L541.907407,569.812447 L541.907407,538.892182 L472.830603,538.892182 L472.830603,569.812447 L541.907407,569.812447 L541.907407,600.752985 L610.984211,600.752985 Z M610.984211,662.611944 L680.102206,662.611944 L680.102206,631.67325 L610.984211,631.67325 L610.984211,662.611944 Z M817.761526,600.752985 L817.761526,584.88557 L817.761526,569.812447 L748.643531,569.812447 L748.643531,590.672292 L748.643531,600.752985 L817.761526,600.752985 Z M817.761526,662.611944 L817.761526,643.576575 L817.761526,631.67325 L748.643531,631.67325 L748.643531,654.374158 L748.643531,662.611944 L817.761526,662.611944 Z M817.761526,724.452475 L817.761526,694.951247 L817.761526,693.530367 L748.643531,693.530367 L748.643531,694.951247 L748.643531,724.452475 L749.179011,724.452475 L817.761526,724.452475 Z M955.956325,631.67325 L955.956325,627.250277 L955.956325,600.752985 L886.838331,600.752985 L886.838331,631.67325 L913.612286,631.67325 L955.956325,631.67325 Z M1093.61565,820.106633 L1093.61565,800.997548 L886.879521,779.60326 L886.879521,757.086643 L886.879521,755.667606 L817.761526,755.667606 L817.761526,755.39117 L749.179011,755.39117 L748.643531,755.39117 L748.643531,761.472757 L748.643531,786.311435 L749.179011,786.311435 L749.179011,817.25013 L748.643531,817.25013 L680.102206,817.25013 L680.102206,786.311435 L610.984211,786.311435 L610.984211,755.39117 L680.102206,755.39117 L680.102206,743.983586 L642.08319,724.452475 L610.984211,724.452475 L610.984211,755.39117 L541.907407,755.39117 L541.907407,786.311435 L610.984211,786.311435 L610.984211,817.25013 L541.907407,817.25013 L472.830603,817.25013 L472.830603,786.311435 L403.712608,786.311435 L393.579696,786.311435 L395.227324,792.759761 L469.906063,818.927173 L553.317231,848.170395 L610.984211,848.170395 L610.984211,865.178568 L680.102206,873.784936 L680.102206,848.170395 L748.643531,848.170395 L749.179011,848.170395 L749.179011,879.09066 L722.734581,879.09066 L817.761526,890.938699 L817.761526,881.025711 L817.761526,880.419395 L817.761526,850.087017 L886.302851,850.087017 L886.838331,850.087017 L955.420846,850.087017 L955.420846,820.106633 L1024.49765,820.106633 L1093.61565,820.106633 Z M1093.61565,600.751142 L1162.69245,600.751142 L1162.69245,569.812447 L1093.61565,569.812447 L1093.61565,600.751142 Z M1231.76925,709.010772 L1231.76925,694.951247 L1231.76925,678.072077 L1162.69245,678.072077 L1162.69245,694.951247 L1162.69245,709.010772 L1093.61565,709.010772 L1024.49765,709.010772 L1024.49765,739.931037 L1024.49765,770.869731 L1093.61565,770.869731 L1093.61565,739.931037 L1162.69245,739.931037 L1162.69245,709.010772 L1231.76925,709.010772 Z M1231.76925,804.644657 L1231.76925,789.167938 L1231.76925,773.707806 L1162.69245,773.707806 L1162.69245,789.167938 L1162.69245,804.644657 L1231.76925,804.644657 Z M1263.69205,538.892182 L1332.76885,538.892182 L1332.76885,507.971916 L1263.69205,507.971916 L1263.69205,538.892182 Z M2452.2497,694.951247 L2452.2497,1552.245 L2345.9365,1552.245 L2249.8386,1528.27249 L1588.48072,1363.11131 L1517.71509,1342.56476 L1304.05893,1288.79431 L1144.60973,1240.97829 L1099.95901,1196.01693 L1157.37885,1154.61053 L1399.74493,1111.7851 L1648.45438,1077.03343 L1822.32032,1046.81347 L1985.43549,1008.55844 L2094.92038,960.464145 L2094.92038,929.451734 L2021.60093,893.391606 L1836.6135,869.122386 L1577.23566,845.850177 L1577.23566,851.045327 L1508.15885,851.045327 L1508.15885,839.656172 L1290.21886,820.106633 L1231.76925,820.106633 L1231.76925,851.045327 L1300.88725,851.045327 L1300.88725,881.965593 L1231.76925,881.965593 L1162.69245,881.965593 L1162.69245,851.045327 L1093.61565,851.045327 L1024.49765,851.045327 L1024.49765,881.025711 L955.420846,881.025711 L886.838331,881.025711 L886.838331,899.526638 L940.509813,906.216384 L1093.61565,917.953848 L1093.61565,912.904287 L1093.61565,881.965593 L1162.69245,881.965593 L1162.69245,912.904287 L1162.69245,923.242986 L1231.76925,928.530281 L1231.76925,912.904287 L1300.88725,912.904287 L1300.88725,933.81942 L1388.04677,940.507323 L1288.11813,955.709449 L773.110807,976.901017 L395.227324,1015.43064 L0.2497,1091.09296 L0.2497,694.951247 L0.2497,453.245 L748.643531,453.245 L748.643531,477.033222 L817.761526,477.033222 L817.761526,507.971916 L748.643531,507.971916 L748.643531,538.892182 L817.761526,538.892182 L817.761526,507.971916 L886.838331,507.971916 L886.838331,538.892182 L955.956325,538.892182 L955.956325,507.971916 L886.838331,507.971916 L886.838331,477.033222 L817.761526,477.033222 L817.761526,453.245 L2242.67142,453.245 L2452.2497,453.245 L2452.2497,458.05314 L2452.2497,463.471282 L2452.2497,694.951247 Z" id="Fill-1" fill="#453E60"></path>
            <path d="M541.907407,414.9536 L610.984211,414.9536 L610.984211,383.854117 L541.907407,383.854117 L541.907407,414.9536 Z M2452.2497,362.245 L2452.2497,453.245 L2242.67142,453.245 L817.761526,453.245 L817.761526,446.071618 L748.643531,446.071618 L748.643531,453.245 L0.2497,453.245 L0.2497,362.245 L403.712608,362.245 L403.712608,383.854117 L334.635804,383.854117 L334.635804,414.9536 L403.712608,414.9536 L403.712608,383.854117 L472.830603,383.854117 L472.830603,362.245 L2452.2497,362.245 Z" id="Fill-3" fill="#FFEF94"></path>
            <path d="M541.907407,352.838868 L610.984211,352.838868 L610.984211,322.057163 L541.907407,322.057163 L541.907407,352.838868 Z M748.643531,352.838868 L817.761526,352.838868 L817.761526,322.057163 L748.643531,322.057163 L748.643531,352.838868 Z M2452.2497,272.245 L2452.2497,362.245 L472.830603,362.245 L472.830603,352.838868 L403.712608,352.838868 L403.712608,362.245 L0.2497,362.245 L0.2497,272.245 L2452.2497,272.245 Z" id="Fill-4" fill="#FFD092"></path>
            <path d="M886.838331,250.819388 L955.956325,250.819388 L955.956325,219.719905 L886.838331,219.719905 L886.838331,250.819388 Z M0.2497,272.245 L2452.2497,272.245 L2452.2497,181.245 L0.2497,181.245 L0.2497,272.245 Z" id="Fill-5" fill="#FEB08A"></path>
            <path d="M680.102206,140.708787 L680.102206,109.928916 L610.984211,109.928916 L610.984211,140.708787 L541.907407,140.708787 L541.907407,171.472157 L610.984211,171.472157 L610.984211,140.708787 L680.102206,140.708787 Z M0.2497,181.245 L2452.2497,181.245 L2452.2497,91.245 L0.2497,91.245 L0.2497,181.245 Z" id="Fill-6" fill="#DD92AF"></path>
            <polygon id="Fill-7" fill="#BC7D91" points="0.2497 91.245 2452.2497 91.245 2452.2497 0.245 0.2497 0.245"></polygon>
            <path d="M1638.98971,454.654023 C1596.31962,381.3303 1516.94595,332 1425.99486,332 C1335.04376,332 1255.6701,381.3303 1213,454.654023 L1638.98971,454.654023 Z" id="Fill-68" fill="#F4B749"></path>
            <path d="M758.877723,1295.99322 L650.408128,1218.90985 L650.408128,1180.38567 L577.078892,1180.38567 L577.078892,1231.76906 L679.121879,1310.25277 L758.877723,1295.99322 Z M1033.16202,1077.12325 L1010.83368,1060.50338 L806.706511,1091.18011 L841.764477,1107.59545 L1033.16202,1077.12325 Z M1250.01882,1037.65936 L1371.21804,1015.7532 L1348.8897,1006.5054 L1211.74755,1025.00283 L1250.01882,1037.65936 Z M1439.27416,913.025116 L1439.27416,882.092269 L1439.27416,851.177847 L1370.14694,851.177847 L1370.14694,882.092269 L1370.14694,913.025116 L1439.27416,913.025116 Z M1508.36019,913.025116 L1577.44622,913.025116 L1577.44622,882.092269 L1508.36019,882.092269 L1508.36019,913.025116 Z M1519.52436,990.550703 L1591.28814,977.359838 L1565.78769,972.016422 L1513.13895,982.703253 L1501.97478,985.559216 L1519.52436,990.550703 Z M1652.67048,906.336634 L1662.228,902.430414 L1591.28814,896.001732 L1591.28814,901.179317 L1652.67048,906.336634 Z M1733.99178,936.145522 L1733.99178,924.909609 L1718.04885,924.909609 L1714.09401,935.963109 L1687.76964,947.38512 L1710.88071,947.38512 L1733.99178,936.145522 Z M2346.2497,1552.245 L2232.83656,1552.245 L1646.40865,1552.245 L1301.06091,1552.245 L1112.87667,1461.28901 L975.734519,1470.11302 L1125.64749,1552.245 L427.16592,1552.245 L347.410077,1481.64743 L165.652443,1390.19211 L0.2497,1295.99322 L0.2497,1091.18011 L395.280062,1015.53209 L773.214,977.009752 L1288.29009,955.822189 L1388.23207,940.622936 L1301.06091,933.936296 L1301.06091,913.025116 L1231.93369,913.025116 L1231.93369,928.648158 L1162.84766,923.361861 L1162.84766,913.025116 L1162.84766,882.092269 L1231.93369,882.092269 L1301.06091,882.092269 L1301.06091,851.177847 L1231.93369,851.177847 L1231.93369,820.245 L1290.39109,820.245 L1508.36019,839.790845 L1508.36019,851.177847 L1577.44622,851.177847 L1577.44622,845.983679 L1836.85869,869.249647 L2021.87082,893.51428 L2095.20006,929.569436 L2095.20006,960.575986 L1985.70056,1008.6612 L1822.56361,1046.90715 L1648.67445,1077.12325 L1399.93179,1111.86834 L1157.53335,1154.68568 L1100.10585,1196.08241 L1144.76253,1241.03712 L1304.23302,1288.8441 L1517.91771,1342.60439 L1588.69278,1363.14706 L2250.13897,1528.27518 L2346.2497,1552.245 Z" id="Fill-8" fill="#686384"></path>
            <polygon id="Fill-9" fill="#78759B" points="1734.2497 924.245 1734.2497 935.745 1710.7497 947.245 1687.2497 947.245 1714.01708 935.556444 1718.03847 924.245"></polygon>
            <polygon id="Fill-10" fill="#78759B" points="1662.2497 902.087396 1652.68408 906.245 1591.2497 900.753825 1591.2497 895.245"></polygon>
            <polygon id="Fill-11" fill="#78759B" points="1591.2497 976.722682 1519.73771 990.245 1502.2497 985.126201 1513.3747 982.198475 1565.83872 971.245"></polygon>
            <polygon id="Fill-12" fill="#453E60" points="1508.2497 912.245 1577.2497 912.245 1577.2497 881.245 1508.2497 881.245"></polygon>
            <polygon id="Fill-13" fill="#453E60" points="1439.2497 881.735913 1439.2497 912.245 1370.2497 912.245 1370.2497 881.735913 1370.2497 851.245 1439.2497 851.245"></polygon>
            <polygon id="Fill-14" fill="#78759B" points="1371.2497 1015.44838 1249.64805 1037.245 1211.2497 1024.65177 1348.84722 1006.245"></polygon>
            <polygon id="Fill-15" fill="#686384" points="1263.2497 538.245 1333.2497 538.245 1333.2497 507.245 1263.2497 507.245"></polygon>
            <polygon id="Fill-16" fill="#78759B" points="1112.67581 1461.245 1301.2497 1552.245 1125.47308 1552.245 975.2497 1470.07328"></polygon>
            <polygon id="Fill-17" fill="#686384" points="1232.2497 788.73669 1232.2497 804.245 1162.2497 804.245 1162.2497 788.73669 1162.2497 773.245 1232.2497 773.245"></polygon>
            <polygon id="Fill-18" fill="#686384" points="1232.2497 694.157616 1232.2497 708.245 1162.2497 708.245 1162.2497 694.157616 1162.2497 677.245 1232.2497 677.245"></polygon>
            <polygon id="Fill-19" fill="#686384" points="1162.2497 851.245 1162.2497 881.745413 1093.38678 881.745413 1093.38678 912.264005 1093.38678 917.245 940.755001 905.666914 887.2497 899.068004 887.2497 880.818294 955.619866 880.818294 1024.48279 880.818294 1024.48279 851.245 1093.38678 851.245"></polygon>
            <polygon id="Fill-20" fill="#686384" points="1162.2497 708.245 1162.2497 739.235764 1093.27027 739.235764 1093.27027 770.245 1024.2497 770.245 1024.2497 739.235764 1024.2497 708.245 1093.27027 708.245"></polygon>
            <polygon id="Fill-21" fill="#686384" points="1093.2497 600.245 1162.2497 600.245 1162.2497 569.245 1093.2497 569.245"></polygon>
            <polygon id="Fill-22" fill="#686384" points="1093.2497 800.794693 1093.2497 820.044242 1024.34571 820.044242 955.482789 820.044242 955.482789 850.245 887.112624 850.245 886.578803 850.245 818.2497 850.245 818.2497 848.316147 818.2497 817.166741 887.112624 817.166741 887.112624 786.279096 887.153687 786.279096 887.153687 779.245"></polygon>
            <polygon id="Fill-23" fill="#78759B" points="1010.86767 1060.245 1033.2497 1076.83237 841.391959 1107.245 806.2497 1090.85992"></polygon>
            <polygon id="Fill-24" fill="#686384" points="956.2497 626.810622 956.2497 631.245 913.977948 631.245 887.2497 631.245 887.2497 600.245 956.2497 600.245"></polygon>
            <polygon id="Fill-25" fill="#686384" points="887.2497 538.245 956.2497 538.245 956.2497 507.245 887.2497 507.245"></polygon>
            <polygon id="Fill-26" fill="#686384" points="887.2497 250.245 956.2497 250.245 956.2497 219.245 887.2497 219.245"></polygon>
            <polygon id="Fill-27" fill="#686384" points="887.2497 779.470057 887.2497 786.245 887.208259 786.245 887.208259 785.97858 818.2497 785.97858 818.2497 771.245 857.826277 776.537645"></polygon>
            <polygon id="Fill-28" fill="#686384" points="887.2497 756.667696 887.2497 779.244225 858.054229 776.214067 818.784265 770.745 818.784265 785.967851 887.20858 785.967851 887.20858 786.245 818.784265 786.245 818.2497 786.245 818.2497 756.667696 818.2497 755.245 887.2497 755.245"></polygon>
            <polygon id="Fill-74" fill="#BC7D91" points="1952.91306 562.245 1883.2497 651.35462 1952.91306 666.245 2024.2497 650.56246"></polygon>
            <polygon id="Fill-76" fill="#BC7D91" points="1634.91306 656.245 1565.2497 745.354884 1634.91306 760.245 1706.2497 744.562739"></polygon>
            <polygon id="Fill-78" fill="#BC7D91" points="2255.04818 954.245 2113.2497 1135.88983 2255.04818 1166.245 2400.2497 1134.27789"></polygon>
            <polygon id="Fill-80" fill="#BC7D91" points="253.133864 704.245 118.2497 875.60824 253.133864 904.245 391.2497 874.087509"></polygon>
            <polygon id="Fill-82" fill="#BC7D91" points="2073.7497 620.245 2036.2497 673.471727 2073.7497 680.245 2111.2497 672.523322"></polygon>
            <polygon id="Fill-84" fill="#BC7D91" points="1491.2497 493.245 1454.2497 546.473361 1491.2497 553.245 1528.2497 545.523085"></polygon>
            <polygon id="Fill-86" fill="#BC7D91" points="2005.2497 605.74334 2053.52314 619.245 2105.2497 605.74334 2055.24763 549.245"></polygon>
            <polygon id="Fill-88" fill="#BC7D91" points="1552.2497 508.493061 1575.90669 515.245 1601.2497 508.493061 1576.7497 480.245"></polygon>
            <polygon id="Fill-90" fill="#BC7D91" points="397.2497 932.991975 470.145119 953.245 548.2497 932.991975 472.751752 848.245"></polygon>
            <polygon id="Fill-29" fill="#453E60" points="887.2497 786.245 887.2497 817.245 818.2497 817.245 818.2497 786.245 818.784584 786.245"></polygon>
            <polygon id="Fill-30" fill="#686384" points="818.2497 507.245 887.2497 507.245 887.2497 476.245 818.2497 476.245"></polygon>
            <polygon id="Fill-31" fill="#686384" points="818.2497 880.508283 818.2497 890.245 722.2497 878.607994 748.964915 878.607994 748.964915 848.245 818.2497 848.245 818.2497 850.125381 818.2497 879.912859"></polygon>
            <polygon id="Fill-32" fill="#453E60" points="818.2497 817.245 818.2497 848.245 748.792012 848.245 748.2497 848.245 748.2497 817.245 748.792012 817.245"></polygon>
            <polygon id="Fill-33" fill="#686384" points="818.2497 786.511899 818.2497 817.245 748.792012 817.245 748.792012 786.236688 748.2497 786.236688 748.2497 761.340272 748.2497 755.245 748.792012 755.245 818.2497 755.245 818.2497 755.523905 818.2497 756.944288"></polygon>
            <polygon id="Fill-34" fill="#686384" points="818.2497 694.669459 818.2497 724.245 748.792012 724.245 748.2497 724.245 748.2497 694.669459 748.2497 693.245 818.2497 693.245"></polygon>
            <polygon id="Fill-35" fill="#686384" points="818.2497 643.171912 818.2497 662.245 748.2497 662.245 748.2497 653.99089 748.2497 631.245 818.2497 631.245"></polygon>
            <polygon id="Fill-36" fill="#686384" points="818.2497 584.34799 818.2497 600.245 748.2497 600.245 748.2497 590.146179 748.2497 569.245 818.2497 569.245"></polygon>
            <polygon id="Fill-37" fill="#686384" points="748.2497 538.245 818.2497 538.245 818.2497 507.245 748.2497 507.245"></polygon>
            <polygon id="Fill-38" fill="#686384" points="748.2497 476.245 818.2497 476.245 818.2497 453.245 748.2497 453.245"></polygon>
            <polygon id="Fill-39" fill="#686384" points="748.2497 453.245 818.2497 453.245 818.2497 445.245 748.2497 445.245"></polygon>
            <polygon id="Fill-40" fill="#686384" points="748.2497 353.245 818.2497 353.245 818.2497 322.245 748.2497 322.245"></polygon>
            <polygon id="Fill-41" fill="#78759B" points="650.660078 1218.8086 759.2497 1295.97086 679.405603 1310.245 577.2497 1231.68097 577.2497 1180.245 650.660078 1180.245"></polygon>
            <polygon id="Fill-42" fill="#686384" points="680.2497 848.245 748.2497 848.245 748.2497 817.245 680.2497 817.245"></polygon>
            <polygon id="Fill-43" fill="#686384" points="680.2497 848.245 680.2497 873.245 611.2497 864.84631 611.2497 848.245"></polygon>
            <polygon id="Fill-44" fill="#453E60" points="611.2497 848.245 680.2497 848.245 680.2497 817.245 611.2497 817.245"></polygon>
            <polygon id="Fill-45" fill="#686384" points="611.2497 817.245 680.2497 817.245 680.2497 786.245 611.2497 786.245"></polygon>
            <polygon id="Fill-46" fill="#686384" points="680.2497 743.816658 680.2497 755.245 611.2497 755.245 611.2497 724.245 642.295588 724.245"></polygon>
            <polygon id="Fill-47" fill="#686384" points="611.2497 662.245 680.2497 662.245 680.2497 631.245 611.2497 631.245"></polygon>
            <polygon id="Fill-48" fill="#686384" points="611.2497 140.245 680.2497 140.245 680.2497 109.245 611.2497 109.245"></polygon>
            <polygon id="Fill-49" fill="#686384" points="611.2497 817.245 611.2497 848.245 553.614664 848.245 470.2497 818.926368 473.17262 817.245 542.21116 817.245"></polygon>
            <polygon id="Fill-50" fill="#686384" points="542.2497 786.245 611.2497 786.245 611.2497 755.245 542.2497 755.245"></polygon>
            <polygon id="Fill-51" fill="#686384" points="542.2497 600.245 611.2497 600.245 611.2497 569.245 542.2497 569.245"></polygon>
            <polygon id="Fill-52" fill="#686384" points="542.2497 507.245 611.2497 507.245 611.2497 476.245 542.2497 476.245"></polygon>
            <polygon id="Fill-53" fill="#686384" points="542.2497 414.245 611.2497 414.245 611.2497 384.245 542.2497 384.245"></polygon>
            <polygon id="Fill-54" fill="#686384" points="542.2497 353.245 611.2497 353.245 611.2497 322.245 542.2497 322.245"></polygon>
            <polygon id="Fill-55" fill="#686384" points="542.2497 171.245 611.2497 171.245 611.2497 140.245 542.2497 140.245"></polygon>
            <polygon id="Fill-56" fill="#686384" points="473.2497 569.245 542.2497 569.245 542.2497 538.245 473.2497 538.245"></polygon>
            <polygon id="Fill-57" fill="#686384" points="473.2497 786.245 473.2497 816.599616 470.297517 818.245 394.912902 792.571591 393.2497 786.245 403.47839 786.245"></polygon>
            <polygon id="Fill-58" fill="#686384" points="403.2497 724.245 473.2497 724.245 473.2497 694.245 403.2497 694.245"></polygon>
            <polygon id="Fill-59" fill="#686384" points="403.2497 384.245 473.2497 384.245 473.2497 362.245 403.2497 362.245"></polygon>
            <polygon id="Fill-60" fill="#686384" points="403.2497 362.245 473.2497 362.245 473.2497 353.245 403.2497 353.245"></polygon>
            <polygon id="Fill-61" fill="#453E60" points="347.478205 1481.71679 427.2497 1552.245 0.2497 1552.245 0.2497 1296.245 165.684902 1390.35133"></polygon>
            <polygon id="Fill-62" fill="#686384" points="403.2497 724.245 403.2497 755.245 385.880861 755.245 378.2497 724.245"></polygon>
            <polygon id="Fill-63" fill="#686384" points="334.2497 631.245 403.2497 631.245 403.2497 600.245 334.2497 600.245"></polygon>
            <polygon id="Fill-64" fill="#686384" points="334.2497 507.245 403.2497 507.245 403.2497 476.245 334.2497 476.245"></polygon>
            <polygon id="Fill-65" fill="#686384" points="334.2497 414.245 403.2497 414.245 403.2497 384.245 334.2497 384.245"></polygon>
            <polygon id="Fill-66" fill="#686384" points="202.2497 569.245 271.2497 569.245 271.2497 538.245 202.2497 538.245"></polygon>
            <polygon id="Fill-70" fill="#FFE9E9" points="1937.97973 60.9682925 2057.57274 45.245 2187.88822 45.245 2308.17658 65.7919845 2338.2497 98.6209577 2308.17658 112.245 2153.80754 105.098382 2061.64201 109.65073 1975.46723 112.245 1923.2497 95.9423511"></polygon>
            <polygon id="Fill-72" fill="#FFE9E9" points="1753.1109 125.245 1625.57375 137.790455 1511.16682 163.718095 1419.26354 159.534438 1366.75091 163.718095 1359.2497 188.809004 1411.76645 217.245 1563.67945 217.245 1702.47048 206.007053 1824.38275 217.245 1927.53579 206.007053 1948.2497 180.206302 1927.53579 154.517727 1840.78315 132.771905"></polygon>
            <polygon id="Fill-46-Copy" fill="#BC7D91" points="1622.77048 1220.96957 1664.6243 1244.03837 1700.78687 1967.58081 1874.76706 1966.26988 1948.98904 1257.00701 1969.91801 1251.24586 1981 1040.75818 1955.14753 883.620433 1904.67347 804.323554 1840.65981 771.169109 1857.89616 699.079717 1819.73496 627 1759.41392 635.648986 1731.10384 717.824023 1731.10384 804.323554 1662.16255 823.06786 1608 1023.46021 1644.93033 1081.12495"></polygon>
            <polygon id="Fill-46" fill="#191624" points="1629.77048 1222.96957 1671.6243 1246.03837 1707.78687 1969.58081 1881.76706 1968.26988 1955.98904 1259.00701 1976.91801 1253.24586 1988 1042.75818 1962.14753 885.620433 1911.67347 806.323554 1847.65981 773.169109 1864.89616 701.079717 1826.73496 629 1766.41392 637.648986 1738.10384 719.824023 1738.10384 806.323554 1669.16255 825.06786 1615 1025.46021 1651.93033 1083.12495"></polygon>
        </g>
    </g>
</svg>