<svg width="2453" height="1970" xmlns="http://www.w3.org/2000/svg"><g fill="none" fill-rule="evenodd"><path d="M201.755 569.812h69.076v-30.92h-69.076v30.92zm132.88-61.84h69.078v-30.939h-69.077v30.939zm0 123.701h69.078v-30.92h-69.077v30.92zm138.196 92.78V694.95h-69.118v29.501h-25.91l7.91 30.94h18v-30.94h69.118zm69.076-216.481h69.077v-30.939h-69.077v30.939zm69.077 92.781v-30.94h-69.077v-30.92h-69.076v30.92h69.076v30.94h69.077zm0 61.859h69.118v-30.939h-69.118v30.939zm206.778-61.859v-30.941h-69.118v30.941h69.118zm0 61.859v-30.939h-69.118v30.939h69.118zm0 61.84V693.53h-69.118v30.922h69.118zm138.194-92.779v-30.92h-69.118v30.92h69.118zm137.66 188.434v-19.11L886.88 779.604v-23.936h-69.118v-.276h-69.118v30.92h.535v30.94h-69.077v-30.94h-69.118v-30.92h69.118v-11.407l-38.019-19.532h-31.099v30.94h-69.077v30.92h69.077v30.938H472.831v-30.939H393.58l1.647 6.449 74.68 26.167 83.41 29.243h57.667v17.009l69.118 8.606V848.17h69.077v30.92h-26.444l95.027 11.849v-40.852H955.42v-29.98h138.195zm0-219.356h69.076v-30.939h-69.076v30.94zm138.153 108.26v-30.939h-69.077v30.939h-138.194v61.859h69.118v-30.94h69.076v-30.92h69.077zm0 95.634v-30.937h-69.077v30.937h69.077zm31.923-265.753h69.077v-30.92h-69.077v30.92zm1188.558 156.06v857.293h-106.314l-96.097-23.973-661.358-165.16-70.766-20.547-213.656-53.77-159.45-47.817-44.65-44.961 57.42-41.406 242.366-42.826 248.71-34.752 173.865-30.22 163.115-38.255 109.485-48.094v-31.012l-73.32-36.06-184.986-24.27-259.378-23.272v5.195h-69.077v-11.389l-217.94-19.55h-58.45v30.94h69.118v30.92h-138.195v-30.92h-138.194v29.98h-137.66v18.5l53.672 6.69 153.106 11.738v-35.988h69.076v41.277l69.077 5.287v-15.626h69.118v20.915l87.16 6.688-99.929 15.202-515.007 21.192-377.884 38.53L.25 1091.093V453.245h748.394v23.788h69.118v30.939h-69.118v30.92h69.118v-30.92h69.076v30.92h69.118v-30.92h-69.118v-30.939h-69.076v-23.788H2452.25v241.706z" fill="#453E60"/><path d="M541.907 414.954h69.077v-31.1h-69.077v31.1zm1910.343-52.709v91H817.76v-7.173h-69.117v7.173H.25v-91h403.463v21.61h-69.077v31.099h69.077v-31.1h69.118v-21.609H2452.25z" fill="#FFEF94"/><path d="M541.907 352.839h69.077v-30.782h-69.077v30.782zm206.737 0h69.118v-30.782h-69.118v30.782zm1703.606-80.594v90H472.83v-9.406h-69.117v9.406H.25v-90h2452z" fill="#FFD092"/><path d="M886.838 250.82h69.118v-31.1h-69.118v31.1zM.25 272.244h2452v-91H.25v91z" fill="#FEB08A"/><path d="M680.102 140.709v-30.78h-69.118v30.78h-69.077v30.763h69.077V140.71h69.118zM.25 181.245h2452v-90H.25v90z" fill="#DD92AF"/><path fill="#BC7D91" d="M.25 91.245h2452v-91H.25z"/><path d="M1638.99 454.654C1596.32 381.33 1516.946 332 1425.995 332c-90.951 0-170.325 49.33-212.995 122.654h425.99z" fill="#F4B749"/><path d="M758.878 1295.993l-108.47-77.083v-38.524h-73.33v51.383l102.044 78.484 79.756-14.26zm274.284-218.87l-22.328-16.62-204.127 30.677 35.057 16.415 191.398-30.472zm216.857-39.464l121.199-21.906-22.328-9.248-137.142 18.498 38.27 12.656zm189.255-124.634v-61.847h-69.127v61.847h69.127zm69.086 0h69.086v-30.933h-69.086v30.933zm11.164 77.526l71.764-13.191-25.5-5.344-52.649 10.687-11.164 2.856 17.55 4.992zm133.146-84.214l9.558-3.907-70.94-6.428v5.177l61.382 5.158zm81.322 29.809V924.91h-15.943l-3.955 11.053-26.324 11.422h23.11l23.112-11.24zm612.258 616.099H1301.06l-188.184-90.956-137.142 8.824 149.912 82.132h-698.48l-79.756-70.598-181.758-91.455L.25 1295.993V1091.18l395.03-75.648 377.934-38.522 515.076-21.188 99.942-15.2-87.171-6.686v-20.91h-69.127v15.622l-69.086-5.286v-41.27h138.213v-30.914h-69.127v-30.933h58.457l217.97 19.546v11.387h69.085v-5.194l259.413 23.266 185.012 24.264 73.33 36.055v31.007l-109.5 48.085-163.137 38.246-173.89 30.216-248.742 34.745-242.399 42.818-57.427 41.396 44.657 44.955 159.47 47.807 213.685 53.76 70.775 20.543 661.446 165.128 96.11 23.97z" fill="#686384"/><path fill="#78759B" d="M1734.25 924.245v11.5l-23.5 11.5h-23.5l26.767-11.689 4.021-11.311zm-72-22.158l-9.566 4.158-61.434-5.491v-5.509zm-71 74.636l-71.512 13.522-17.488-5.119 11.125-2.928 52.464-10.953z"/><path fill="#453E60" d="M1508.25 912.245h69v-31h-69zm-69-30.509v30.509h-69v-61h69z"/><path fill="#78759B" d="M1371.25 1015.448l-121.602 21.797-38.398-12.593 137.597-18.407z"/><path fill="#686384" d="M1263.25 538.245h70v-31h-70z"/><path fill="#78759B" d="M1112.676 1461.245l188.574 91h-175.777l-150.223-82.172z"/><path fill="#686384" d="M1232.25 788.737v15.508h-70v-31h70zm0-94.579v14.087h-70v-31h70zm-70 157.087v30.5h-68.863v35.5l-152.632-11.578-53.505-6.599v-18.25h137.233v-29.573h68.904zm0-143v30.99h-68.98v31.01h-69.02v-62h69.02zm-69-108h69v-31h-69zm0 200.55v19.25H955.483v30.2H818.249v-33.079h68.864V786.28h.04v-7.034z"/><path fill="#78759B" d="M1010.868 1060.245l22.382 16.587-191.858 30.413-35.142-16.385z"/><path fill="#686384" d="M956.25 626.81v4.435h-69v-31h69zm-69-88.565h69v-31h-69zm0-288h69v-31h-69zm0 529.225v6.775h-.042v-.266H818.25v-14.734l39.576 5.293z"/><path fill="#686384" d="M887.25 756.668v22.576l-29.196-3.03-39.27-5.469v15.223h68.425v.277H818.25v-31h69z"/><path fill="#BC7D91" d="M1952.913 562.245l-69.663 89.11 69.663 14.89 71.337-15.683zm-318 94l-69.663 89.11 69.663 14.89 71.337-15.682zm620.135 298L2113.25 1135.89l141.798 30.355 145.202-31.967zm-2001.914-250L118.25 875.608l134.884 28.637 138.116-30.157zm1820.616-84l-37.5 53.227 37.5 6.773 37.5-7.722zm-582.5-127l-37 53.228 37 6.772 37-7.722zm514 112.498l48.273 13.502 51.727-13.502-50.002-56.498zm-453-97.25l23.657 6.752 25.343-6.752-24.5-28.248zm-1155 424.499l72.895 20.253 78.105-20.253-75.498-84.747z"/><path fill="#453E60" d="M887.25 786.245v31h-69v-31h.535z"/><path fill="#686384" d="M818.25 507.245h69v-31h-69zm0 373.263v9.737l-96-11.637h26.715v-30.363h69.285v31.668z"/><path fill="#453E60" d="M818.25 817.245v31h-70v-31h.542z"/><path fill="#686384" d="M818.25 786.512v30.733h-69.458v-31.008h-.542v-30.992h70v1.699zm0-91.842v29.575h-70v-31h70zm0-51.498v19.073h-70v-31h70zm0-58.824v15.897h-70v-31h70zm-70-46.103h70v-31h-70zm0-62h70v-23h-70zm0-23h70v-8h-70zm0-100h70v-31h-70z"/><path fill="#78759B" d="M650.66 1218.809l108.59 77.162-79.844 14.274-102.156-78.564v-51.436h73.41z"/><path fill="#686384" d="M680.25 848.245h68v-31h-68zm0 0v25l-69-8.399v-16.601z"/><path fill="#453E60" d="M611.25 848.245h69v-31h-69z"/><path fill="#686384" d="M611.25 817.245h69v-31h-69zm69-73.428v11.428h-69v-31h31.046zm-69-81.572h69v-31h-69zm0-522h69v-31h-69zm0 677v31h-57.635l-83.365-29.319 2.923-1.681h69.038zm-69-31h69v-31h-69zm0-186h69v-31h-69zm0-93h69v-31h-69zm0-93h69v-30h-69zm0-61h69v-31h-69zm0-182h69v-31h-69zm-69 398h69v-31h-69zm0 217V816.6l-2.952 1.645-75.385-25.673-1.663-6.327h10.228zm-70-62h70v-30h-70zm0-340h70v-22h-70zm0-22h70v-9h-70z"/><path fill="#453E60" d="M347.478 1481.717l79.772 70.528H.25v-256l165.435 94.106z"/><path fill="#686384" d="M403.25 724.245v31h-17.37l-7.63-31zm-69-93h69v-31h-69zm0-124h69v-31h-69zm0-93h69v-30h-69zm-132 155h69v-31h-69z"/><path fill="#FFE9E9" d="M1937.98 60.968l119.593-15.723h130.315l120.289 20.547 30.073 32.829-30.073 13.624-154.37-7.147-92.165 4.553-86.175 2.594-52.217-16.303zm-184.87 64.277l-127.536 12.545-114.407 25.928-91.903-4.184-52.513 4.184-7.501 25.091 52.516 28.436h151.913l138.791-11.238 121.913 11.238 103.153-11.238 20.714-25.8-20.714-25.69-86.753-21.745z"/><path fill="#BC7D91" d="M1622.77 1220.97l41.854 23.068 36.163 723.543 173.98-1.311 74.222-709.263 20.929-5.761L1981 1040.758l-25.852-157.138-50.475-79.296-64.013-33.155 17.236-72.09L1819.735 627l-60.321 8.649-28.31 82.175v86.5l-68.941 18.744L1608 1023.46l36.93 57.665z"/><path fill="#191624" d="M1629.77 1222.97l41.854 23.068 36.163 723.543 173.98-1.311 74.222-709.263 20.929-5.761L1988 1042.758l-25.852-157.138-50.475-79.296-64.013-33.155 17.236-72.09L1826.735 629l-60.321 8.649-28.31 82.175v86.5l-68.941 18.744L1615 1025.46l36.93 57.665z"/></g></svg>