
<svg width="2449px" height="1554px" viewBox="0 0 2449 1554" version="1.1" xmlns="http://www.w3.org/2000/svg" xmlns:xlink="http://www.w3.org/1999/xlink">
    <defs>
        <polygon id="path-1" points="1082 930.001 1799 930.001 1799 1554.001 1082 1554.001"></polygon>
        <polygon id="path-3" points="0 284.40105 1045.19439 284.40105 1045.19439 408.170109 0 408.170109"></polygon>
    </defs>
    <g id="Page-1" stroke="none" stroke-width="1" fill="none" fill-rule="evenodd">
        <g id="Group-34">
            <polygon id="Fill-1" fill="#86D0F5" points="0 1554.001 2448 1554.001 2448 930.001 0 930.001"></polygon>
            <polygon id="Fill-2" fill="#133759" points="0 930.001 2448 930.001 2448 463.001 0 463.001"></polygon>
            <polygon id="Fill-3" fill="#005D9C" points="0 231.001 2448 231.001 2448 0.001 0 0.001"></polygon>
            <polygon id="Fill-4" fill="#04477F" points="0 463.001 2448 463.001 2448 231.001 0 231.001"></polygon>
            <path d="M1086.98418,361.968353 C1036.18212,361.968353 995,320.783123 995,269.984176 C995,219.185229 1036.18212,178 1086.98418,178 C1137.78623,178 1178.96835,219.185229 1178.96835,269.984176 C1178.96835,320.783123 1137.78623,361.968353 1086.98418,361.968353 Z" id="Fill-5" fill="#F9F5CD"></path>
            <polygon id="Fill-7" fill="#64B7D8" points="2449 997.001 993 997.001 1508.4205 1030.78536 1367.79071 1062.31373 1789.67599 1092.001 2449 1092.001"></polygon>
            <polygon id="Fill-9" fill="#64B7D8" points="0 1325.72326 684.320231 1297.001 1088.82442 1350.13802 1264 1432.001 719.355346 1378.86398 576.030621 1396.09771 0 1396.09771"></polygon>
            <polygon id="Fill-11" fill="#64B7D8" points="1667.63759 1481.22401 1988.99869 1463.001 2164 1481.22401 2043.08836 1503.001 1394 1503.001 1534.00187 1463.001"></polygon>
            <polygon id="Fill-13" fill="#64B7D8" points="2359.68106 1169.001 2448 1163.85696 2448 1128.001 2305.68627 1128.001 2185 1150.31971"></polygon>
            <polygon id="Fill-15" fill="#64B7D8" points="101 1007.001 550 1007.001 186.978023 1044.001"></polygon>
            <polygon id="Fill-17" fill="#000000" points="1265 930.001 1452.70823 776.694649 1657.28093 725.262126 1798.6992 610.528321 1999.17396 602.364165 2241.01867 363.001 2364.05988 382.291888 2448 444.218018 2448 930.001"></polygon>
            <polygon id="Fill-19" fill="#112337" points="0 930.001 1732 930.001 1633.27491 875.484963 1585.50431 831.326035 1165.12878 797.137825 866 696.001 177.877924 852.693437 0 865.512405"></polygon>
            <mask id="mask-2" fill="white">
                <use xlink:href="#path-1"></use>
            </mask>
            <g id="Clip-22"></g>
            <polygon id="Fill-21" fill="#C7EFFF" points="1607.11159 1554.001 1082 930.001 1164.74468 930.001 1799 1347.09858 2110.02821 1554.001"></polygon>
            <polygon id="Fill-26" fill="#000000" points="1029.2 284.505197 1071.47258 275.137172 1054.03442 251.4 1064.60461 251.4 1079.92955 272.639032 1099.48092 270.13605 1108.2 273.573414 1088.12032 282.631592 1105.55848 304.5 1093.93167 304.5 1078.34463 284.819885 1043.20213 287.94256"></polygon>
            <mask id="mask-4" fill="white">
                <use xlink:href="#path-3"></use>
            </mask>
            <g id="Clip-29"></g>
            <polygon id="Fill-28" fill="#38A5D6" points="1031.12957 284.40105 -0.000411372549 392.481256 -0.000411372549 408.170109 1045.19439 285.716638"></polygon>
            <polygon id="Fill-31" fill="#1990BA" points="-5.68434189e-14 399.1603 846 306.001 -5.68434189e-14 403.001"></polygon>
            <polygon id="Fill-64" fill="#112337" points="1459.50044 1018.64795 1454.65092 1001.32397 1465.39 984 1482.36927 986.077094 1490.3389 1005.8288 1490.3389 1026.61757 1509.74293 1031.12239 1524.98981 1079.28482 1514.59543 1093.144 1520.82968 1126.75488 1509.05057 1132.29974 1509.74293 1146.15892 1504.89044 1146.15892 1498.65618 1192.24128 1501.42564 1213.37772 1496.57612 1269.16507 1503.85338 1272.62987 1504.54574 1276.09466 1489.81888 1284.06428 1476.47972 1282.33188 1477.51678 1244.91151 1477.86445 1193.62898 1473.36259 1154.82091 1461.9252 1184.61933 1451.87849 1231.04936 1447.37366 1270.5498 1450.49079 1281.98422 1440.0964 1284.06428 1420 1279.90712 1422.77243 1272.97753 1430.04969 1269.51274 1431.78208 1227.93223 1438.71167 1152.05145 1433.26785 1148.58666 1429.00965 1135.41687 1423.11713 1134.03214 1420 1083.44495 1427.27726 1045.67691 1441.4841 1026.61757"></polygon>
        </g>
    </g>
</svg>