<svg width="1081" height="965" xmlns="http://www.w3.org/2000/svg"><g fill="none" fill-rule="evenodd"><path d="M467.707 854l-7.027-9.065h-11.332l-6.59 7.255v10.208l6.59 6.8s11.332-2.039 12.226-2.039c.914 0 6.132-13.159 6.132-13.159zm14.055-124.003l-3.409-12.457-12.245-5.218-8.153 4.533-4.075 9.98 4.99 10.875 12.228 1.581 10.664-9.294zm598.477 36.28v198.128H413.98l9.295-115.166 25.176-140.096 80.24-46.928 108.805-60.527 35.14-42.166 48.068-68.959-1.582-23.49 64.604 14.917 136.02 50.335 84.332 102.007 76.162 131.945z" fill="#D94178"/><path fill="#F1A9C1" d="M721.3 267.593l2.126 3.11-5.956 45.68-3.97-.51.51-26.353 3.057-19.028z"/><path fill="#F1A9C1" d="M721.3 267.593l-4.233 2.899-12.229 22.102 8.661 23.279 3.971.51-4.937 37.756-11.332 21.311-15.408-3.18 7.906-53.146 6.887 17.323 5.78-2.881.74-18.712-10.825-13.071 5.377-36.052 15.865-3.637z"/><path fill="#E45D8C" d="M719.121 467.074l1.582 23.49-48.068 68.959 22.68-65.288 7.028-21.68 4.762-14.688-5.447-29.376 4.444-2.512 11.65 20.644z"/><path fill="#E34C82" d="M715.029 168.134l2.723 33.33-.23 60.63-15.863 3.637 3.18-20.644-7.151-15.075v-68.01l-22.436-50.652 22.436 20.047z"/><path fill="#E86E97" d="M717.067 270.492l-3.058 19.028-.51 26.353-8.661-23.279zM696.282 301.783l10.823 13.071-.738 18.712-5.78 2.881-6.887-17.323z"/><path d="M701.659 428.491l5.446 29.377-4.761 14.688c0-.493-17.464-11.42-17.464-11.42l-5.447 11.42-14.143-14.688 1.459-23.034 8.503-27.918 26.407 21.575z" fill="#C81862"/><path fill="#E45D8C" d="M699.848 414.893l6.255 11.086-4.444 2.512-26.408-21.575 1.687-5.586z"/><path fill="#E86E97" d="M697.688 230.012l7.15 15.076-3.18 20.643-9.715-15.232-9.102-14.25 4.147-18.588 3.11 2.268z"/><path d="M702.343 472.556l-7.027 21.68-30.027 58.945-182.632 121.052 39.057-44.89 74.985-51.231 65.06-45.786 13.492-33.1-10.769-28.567.807-12.791 14.144 14.688 5.446-11.42s17.464 10.928 17.464 11.42" fill="#E45D8C"/><path d="M514.757 334.374l-32.31-2.337-32.66 6.466-.72 7.625-.617 6.659-1.72 18.359 15.987 30.254 24.474 12.246 10.84-24.825 13.457 1.388 32.662 3.373 1.002 24.492 17.762 2.038 27.285-15.303 5.183-35.016.72-4.778.597-4.077-20.186-13.95-49.247-11.718-12.509-.896zm181.524-32.591l-2.582 17.34-7.906 53.147-8.855 29.06-1.687 5.587-8.503 27.917-57.136 56.222-38.089 29.482-42.606 11.788-54.868-13.16-29.024-19.94-24.474-29.921-16.322-36.737-3.549-7.291-19.115-39.408-4.99-53.498 5.43-56.608 1.158-12.07 1.898-19.783 1.475-15.373-1.07-6.272h.017l18.114-17.007-5.745 31.87-5.36 29.78-4.585 73.633 19.502 24.474h27.075v-32.292l15.302-18.712 50.16-7.133 23.068 8.486 7.941 5.904 18.818-3.848 16.99-.352 23.436 9.224 18.061 7.098 9.856 27.548-7.115 19.889-2.74 7.66 19.044 9.523 29.235-14.284 18.711-29.253 7.116-44.292 9.576-59.682 9.715 15.232-5.377 36.052z" fill="#E34C82"/><path fill="#F2ACC4" d="M697.688 186.318v43.694l-7.59-10.084-3.11-2.267-9.364-6.799-5.851-1.933 3.478-45.223z"/><path fill="#F7C7D8" d="M697.688 162.002v24.316l-22.437-22.612-25.738-62.897-30.693-43.36 14.933 6.622 41.498 47.28z"/><path fill="#D11F69" d="M695.316 494.236l-22.682 65.287-35.138 42.166-108.806 60.526-80.24 46.928 34.208-34.91L665.29 553.18z"/><path d="M681.33 261.62l-11.067-8.486 6.674-16.2 5.904-.684 9.101 14.248-9.575 59.683h-.016l-40.761 10.963-40.586-20.503-31.063-24.72 6.572 18.149 13.686 32.222-23.436-9.224 6.358-10.647-14.968-10.313-19.714 4.533-11.173-9.066 8.909-27.9.473-20.187.421-18.22-1.756-5.234 4.375-2.372 10.19 3.074 10.084 24.58 2.97 7.906 3.163 8.416 6.798 7.115 3.18 3.32 22.207 7.028 42.853 2.724 10.277-2.62 15.673 14.865-7.837-20.03 4.322-4.69 13.37 12.475-10.788-18.73 2.127-5.147c.72.175 12.333 3.479 13.053 3.672" fill="#F3BACD"/><path fill="#E99FB6" d="M682.368 310.18l-7.116 44.293-18.711 29.253-29.236 14.284-19.044-9.523 2.74-7.66 24.21-4.761 28.814-20.31 18.325-45.575z"/><path fill="#F2ACC4" d="M682.35 310.18l-18.325 45.576-28.814 20.31-24.21 4.76 7.116-19.888 5.323-2.723v-28.34l-22.436-29.234 40.585 20.503z"/><path d="M670.262 253.134l11.068 8.486c-.719-.193-12.333-3.496-13.053-3.672l1.985-4.814zM666.15 263.096l10.788 18.728-13.37-12.474z" fill="#E99FB6"/><path fill="#F3BACD" d="M649.513 100.809l25.738 62.897-3.478 45.224-10.05-3.303-20.819-15.057-28.269-7.625-5.745-1.546h-18.693l-16.27 13.37-12.632.685-25.616-3.637-6.43-2.038-15.9-17.903-30.272-10.207 3.41-45.118 15.46-53.041 40.918-23.578h38.494l39.461 17.516zM402.56 443.496l-1.88-18.22 3.549 7.291 16.322 36.738 24.474 29.92 29.024 19.941 54.868 13.16 42.606-11.789 38.09-29.48 57.135-56.223-1.459 23.033-30.517 38.406-28.901 26.97 48.297-35.807 10.314-16.778 10.769 28.567-13.493 33.1-58.487 34.91-91.132 16.78-75.723-14.97-23.578-26.3-2.02-19.503z"/><path fill="#EC9CB7" d="M665.834 215.395l2.952 13.142-4.762 23.806-10.365-7.87-18.448-12.985-13.019-9.154-25.493-3.53 24.527-16.867 16.498 1.897z"/><path fill="#E99FB6" d="M659.246 274.041l7.837 20.03-15.673-14.865 4.007-1.019z"/><path fill="#EC92B0" d="M665.29 457.867l-.808 12.791-10.313 16.778-48.298 35.806 28.9-26.969z"/><path fill="#EC8EAD" d="M664.025 252.343l-2.828 6.026-21.312-12.544-4.673-14.336 18.448 12.983z"/><path fill="#E86E97" d="M661.723 205.627l-23.314-7.678-40.25-3.847 14.476-11.157 28.27 7.625z"/><path fill="#EC9CB7" d="M595.576 240.712l.614.193 21.75 2.038 21.946 2.882 21.31 12.544-4.831 10.243-38.424-6.518-34.576-13.599-4.954-13.036z"/><path fill="#F2ACC4" d="M656.365 268.612l-1.405 3.004-18.361 5.22-39.003-3.41-21.311-7.923-8.61-14.056-3.214-16.55 15.918 19.256 30.148 10.664z"/><path fill="#F7C7D8" d="M639.885 245.825l-21.944-2.881 2.9-3.145-.036-4.551z"/><path fill="#E99FB6" d="M623.44 329.876v28.34l-5.323 2.722-9.857-27.548-31.747-39.32-6.571-18.149 31.062 24.72z"/><path fill="#EC8EAD" d="M621.226 201.937L596.7 218.803l-18.289 3.531-13.951 12.562-1.546-7.94.914-18.132 8.152-7.713 22.225-2.266z"/><path fill="#FDF8F8" d="M615.48 237.708l-1.352 2.337-3.83.86-1.88-3.056 3.233-1.617z"/><path d="M598.052 229.591l15.988 1.897 6.765 3.76.035 4.551-2.899 3.145-21.75-2.039-.616-.193-.755-6.448 3.232-4.673zm17.43 8.117l-3.83-1.476-3.234 1.616 1.88 3.057 3.83-.86 1.353-2.337z" fill="#D04074"/><path fill="#EC9CB7" d="M612.635 182.945l-14.478 11.157-3.46-.334-1.406-.141-21.364 1.142 16.27-13.37h18.693z"/><path fill="#EC8EAD" d="M576.513 294.07l31.747 39.32-18.06-7.098z"/><path fill="#F7C7D8" d="M603.27 567.236l58.488-34.91-65.058 45.786-74.986 51.23-39.056 44.89-91.377-97.912 9.399-38.547 10.138-14.53 2.02 19.502 23.579 26.3 75.722 14.97z"/><path fill="#E86E97" d="M596.7 218.804l25.493 3.53-18.535.721-16.656 3.9-22.541 7.941 13.95-12.561z"/><path fill="#EC8EAD" d="M587.001 226.956l16.656-3.9 18.535-.721 13.02 9.154 4.673 14.336-19.08-10.577-6.765-3.76-15.988-1.897-19.642 5.868 4.954 13.037 34.576 13.598 38.424 6.518-45.838-3.795-30.148-10.664-15.918-19.256z"/><path fill="#F7C7D8" d="M598.052 229.591l-3.232 4.673.755 6.448-17.165-5.253z"/><path fill="#D04074" d="M641.132 281.825L598.28 279.1l-22.207-7.027-3.179-3.322 3.39-3.25 21.312 7.924 39.003 3.409 18.36-5.219 1.405-3.003 4.832-10.243 2.83-6.026 4.76-23.808-2.952-13.14-28.11-11.561-16.498-1.898-27.022-3.092.492-5.077 3.461.333 40.251 3.849 23.315 7.677 10.05 3.302 5.85 1.934 9.364 6.798-4.146 18.589-5.903.685-6.676 16.198-1.985 4.814-2.126 5.149-2.583 6.255-4.322 4.69-3.83 4.147-4.006 1.019z"/><path fill="#EC8EAD" d="M596.7 360.938l-.598 4.076h-.017l-15.198-6.975-7.572-1.3-11.297-1.932-4.445-.756-7.45-1.265-4.971-.86-.984-.07-7.678-.51-8.046-.528-9.101-.597-2.39-.158-2.195-15.689 12.508.896 49.247 11.718z"/><path fill="#D04074" d="M596.084 365.014h.018l-.72 4.78-19.766 3.9 5.271-15.655z"/><path fill="#F2ACC4" d="M595.382 369.793L590.2 404.81l-27.285 15.302-17.762-2.038-1.002-24.49-32.662-3.374.528-5.13 41.657 2.39 17.85-6.642z"/><path fill="#D04074" d="M527.249 189.78l6.43 2.037 25.616 3.637 12.633-.685 21.364-1.142 1.404.14-.491 5.078-22.226 2.267-8.152 7.712-.913 18.132 1.547 7.941 3.215 16.55-4.744 1.774-2.97-7.905-5.656-33.54-18.132-2.495-7.836 14.547-14.39 26.705-6.043 5.113-2.793-3.303 13.826-23.806 6.115-19.713V197.95l-21.75-10.436 1.527-4.849z"/><path fill="#D04074" d="M567.675 251.447l8.61 14.056-3.39 3.25-6.8-7.116-3.163-8.416z"/><path fill="#E45D8C" d="M573.315 356.74l7.572 1.3-5.27 15.653-7.08 1.09 2.986-7.73 3.584-6.115-1.792-4.18z"/><path fill="#EC8EAD" d="M573.121 306.421l-6.358 10.647-16.99.352-18.817 3.847-7.942-5.903-23.069-8.486-13.193-6.922-1.529-6.22 3.32-.808 13.95 5.095 3.637 5.446 15.409 5.447 10.542 1.265 14.178-2.864 18.817 2.038-4.095-4.972zM571.523 380.827l-17.85 6.64-41.657-2.39 5.446-9.521 14.32-.826z"/><path fill="#EC92B0" d="M566.762 368.915l-2.372 6.395.018.123-.827.123-1.563-.95z"/><path fill="#E45D8C" d="M562.018 354.807l11.297 1.933v.017l1.792 4.18-3.584 6.116-.667-3.901-3.058 1.107v-3.83l-2.214-1.617-3.566 1.617v-5.604z"/><path fill="#E34C82" d="M560.982 304.383l4.094 4.972-18.818-2.038 8.944-3.848z"/><path fill="#EC8EAD" d="M558.153 296.108l14.969 10.313-12.14-2.038-5.78-.914-8.944 3.848-14.177 2.864-10.542-1.265-11.895-10.893h-7.15l-13.95-5.095 5.464-14.74 18.008 13.598 15.25-.21 11.174 9.065z"/><path d="M564.39 375.31l2.372-6.395-4.744 5.692-4.55-2.793-9.4-2.021-7.748-2.178c-.018-.387-.86-8.17-.86-8.17l.281-3.69 4.426-3.9.985.07 4.971.862 1.266 5.252 6.184-3.988 4.445.756v5.622l3.566-1.617 2.214 1.617v3.83l3.058-1.107.667 3.9-2.987 7.73-4.128.65-.018-.122z" fill="#F3BACD"/><path fill="#F2B0C7" d="M560.314 376.066l3.268-.51.826-.123 4.129-.65 7.08-1.09 19.765-3.9-23.86 11.034-39.74-6.096 11.033-.65h.018z"/><path fill="#E45D8C" d="M557.573 354.051l-6.184 3.988-1.265-5.253zM544.167 351.855l-4.427 3.9-3.25-4.41z"/><path fill="#F2ACC4" d="M540.865 39.931l-40.92 23.578-15.46 53.041-3.408 45.118-36.386 3.41L429.23 175.6l-16.163 1.037 5.78-61.21 30.94-36.738 24.825-19.379 43.87-19.379z"/><path d="M540.32 367.615l-2.002-.563 1.142-7.607s.842 7.784.86 8.17" fill="#EC92B0"/><path fill="#F3BACD" d="M536.49 351.346l3.25 4.41-.28 3.69-1.142 7.606v3.971l-14.9-1.142v-14.125l5.026-4.938z"/><path d="M530.27 257.79l6.378-14.302-.474 20.187-8.908 27.9-15.25.21-18.008-13.598s16.322-7.255 17.34-7.958l.668-5.412 18.255-7.027z" fill="#E99FB6"/><path fill="#EC8EAD" d="M528.338 223.828l7.836-14.547 18.131 2.494 5.657 33.54-10.084-24.579-10.19-3.075-4.375 2.372z"/><path fill="#E45D8C" d="M528.444 350.819l-5.025 4.937-1.652-2.231-2.425-3.304z"/><path fill="#EC9CB7" d="M511.35 171.876l15.898 17.903-22.418-7.115-13.317-4.217-2.97-.28z"/><path fill="#EC8EAD" d="M525.052 197.949v10.875l-6.113 19.713-24.93 14.951-28.06-2.582-25.159-1.195-13.299 3.777-6.483-8.591 22.84-6.36 30.851 5.218 22.014-2.196 9.523-6.29v-19.642l-25.985-21.663 23.051 3.549z"/><path fill="#EC92B0" d="M523.418 355.756v14.125l-1.089-.087-1.125.052.51-16.286.053-.035z"/><path fill="#E34C82" d="M521.538 308.916l-15.408-5.446-3.637-5.447h7.15z"/><path fill="#D04074" d="M523.418 369.881l14.9 1.142v-3.97l2.001.561 7.748 2.18 9.401 2.02 4.55 2.793 1.563.95-3.267.51-17.482-1.987h-.018l-22.962-2.6-6.36-1.23 7.712-.404 1.125-.053z"/><path fill="#F3BACD" d="M519.342 350.221l2.425 3.303-.053.035-.51 16.287-7.713.404-6.992-1.335v-4.832l1.02-9.258 4.497-6.167 4.937 1.405z"/><path fill="#EC8EAD" d="M518.939 228.537l-13.827 23.806-15.197 4.305-26.285-2.038-34.242-8.61-1.897-2.512 13.3-3.777 25.159 1.195 28.058 2.582z"/><path fill="#E86E97" d="M531.782 374.73l-14.32.826-5.446 9.522-35.876-7.484-27.69-24.808.616-6.659h.018l19.08 10.893 12.07 8.855 2.196.158 5.376.37 9.083.65 9.61 1.844v.018l6.993 1.335 6.36 1.23 22.963 2.6z"/><path fill="#E86E97" d="M514.757 334.374l2.196 15.689-4.937-1.405-24.984-7.098-5.55.544-13.319 1.318-19.08 2.706h-.017l.72-7.625 32.661-6.466z"/><path d="M512.016 264.817l-.667 5.412c-1.019.702-17.34 7.958-17.34 7.958l-5.466 14.741-3.32.808-1.194-4.884 2.055-7.028 2.46-8.398 23.472-8.609zM512.016 385.078l-.527 5.13-13.458-1.388-10.84 24.825-24.474-12.245-15.988-30.254 1.722-18.36 27.69 24.808z" fill="#EC8EAD"/><path fill="#E86E97" d="M511.35 171.876l-22.807 6.29-40.11-3.795-19.203 1.23 15.461-10.524 36.386-3.409z"/><path fill="#D04074" d="M505.112 252.343l2.793 3.303-7.098 5.991h-10.892v-4.989z"/><path fill="#EC92B0" d="M507.519 354.825l-1.02 9.259-2.618-.123 1.723-12.598z"/><path fill="#E86E97" d="M506.236 214.13v11.14l-18.922-11.14-6.237-3.672 10.366-7.08z"/><path fill="#EC9CB7" d="M506.236 205.627v8.503l-14.793-10.752-19.994-1.757-29.815 11.736-22.348 8.978-.913-6.641 27.338-14.582-5.43-19.713h23.35l16.62 2.565z"/><path fill="#F7C7D8" d="M506.236 225.269l-20.151-1.353 2.459-3.882-1.23-5.904z"/><path fill="#F3BACD" d="M505.604 351.346v.017l-1.723 12.598-5.885-.3-10.19 2.741-.861-17.024 3.408-3.232 5.938 5.024 1.88-3.075 5.939.563z"/><path fill="#D04074" d="M503.881 363.96l2.618.123v4.814l-9.61-1.845-9.083-.65 10.19-2.74z"/><path fill="#EC8EAD" d="M500.807 261.637l-12.93 6.976-30.94-2.373-31.01 8.31-1.3.352-17.217 10.031 13.826-17.85 21.206-11.578 28.884 6.132h18.588z"/><path fill="#E86E97" d="M499.946 306.878l-50.16 7.133 34.243-25.159 1.194 4.884 1.529 6.22z"/><path fill="#D04074" d="M489.914 256.648v4.99h-18.589l-28.883-6.132-11.683-2.477-4.182-2.76 2.812-4.268 34.241 8.609z"/><path fill="#F2ACC4" d="M512.016 264.817l-23.473 8.61-.667-4.815 12.931-6.975 7.098-5.99 6.044-5.114 14.39-26.705 6.974-3.795 1.757 5.236-.422 18.22-6.377 14.301z"/><path fill="#F3BACD" d="M487.876 268.612l.667 4.814-26.283 12.421-24.034 12.176-12.299-23.473 31.01-8.31zM486.945 349.378l.86 17.025-5.375-.37-.931-13.703 2.846-6.378z"/><path fill="#E45D8C" d="M490.353 346.145l-3.408 3.232-2.6-3.425-2.846-3.743-.018-.105 5.552-.545 24.983 7.098-4.497 6.167-1.915-3.46v-.019l-1.494-2.688-5.939-.562-1.88 3.074z"/><path fill="#E45D8C" d="M484.345 345.952l-2.847 6.377.932 13.705-2.196-.16-12.07-8.854v-13.598l13.317-1.318.017.106z"/><path fill="#EC8EAD" d="M442.547 305.402l43.537-23.578-2.056 7.028-34.242 25.16-15.302 18.71z"/><path fill="#FDF8F8" d="M483.8 217.872l-.457 3.531h-4.252l-2.37-1.757 2.722-3.004z"/><path d="M487.314 214.13l1.229 5.903-2.458 3.883-7.924-.527-15.11-2.477v-5.008l2.899-5.446h15.127l6.237 3.672zm-3.971 7.273l.457-3.53-4.357-1.23-2.723 3.004 2.37 1.756h4.253z" fill="#D04074"/><path fill="#F3BACD" d="M478.354 717.54l3.408 12.457-10.665 9.294-12.227-1.58-4.991-10.877 4.077-9.979 8.152-4.533z"/><path fill="#D04074" d="M468.163 343.422v13.599l-19.08-10.893z"/><path d="M460.68 844.935l7.026 9.065s-5.217 13.16-6.13 13.16c-.897 0-12.229 2.038-12.229 2.038l-6.589-6.8v-10.207l6.59-7.256h11.331z" fill="#F3BACD"/><path fill="#F7C7D8" d="M465.95 210.458l-2.898 5.446v5.008l-19.89-3.25 20.908-7.204z"/><path fill="#E34C82" d="M449.787 78.69l-30.94 36.736-5.78 61.211-5.657 1.125-24.948 26.758 18.359-75.495 17.34-31.959z"/><path d="M371.128 575.388l77.322 133.755-25.176 140.097-9.294 115.166h-13.3c-2.566-3.62 9.663-114.482 9.663-114.482l27.215-140.781-64.619-107.454-27.655-83.717 6.905-2.741 18.94 60.157z" fill="#D11F69"/><path fill="#E86E97" d="M440.282 181.399l5.429 19.713-27.338 14.582-.545-3.918 1.37-13.827 2.038-8.626 10.648-7.924z"/><path fill="#EC8EAD" d="M419.286 222.335l22.349-8.978 29.814-11.736 19.994 1.757-10.366 7.08H464.07l-20.907 7.204-22.822 12.35z"/><path d="M372.939 601.689l64.619 107.454-27.215 140.78s-12.228 110.864-9.663 114.483H.243L70.08 744.052l88.865-118.785 67.097-59.841 119.242-47.454 27.654 83.717z" fill="#D94178"/><path fill="#D04074" d="M427.49 243.488l1.898 2.513-2.81 4.27-3.725-2.46-2.758-1.81-.616-1.669-1.264-3.427-1.617-4.392 4.41-1.616z"/><path fill="#EC8EAD" d="M422.853 247.81l-13.616 8.837 10.242-12.316.615 1.67z"/><path fill="#EC9CB7" d="M443.848 228.537l-22.84 6.36-.668-4.884 22.822-12.351 19.89 3.25 15.11 2.477 7.922.527 20.152 1.353-9.523 6.29-22.013 2.196z"/><path fill="#D04074" d="M429.23 175.6l19.203-1.23 40.11 3.796 2.97.28 13.318 4.218-1.53 4.849-23.05-3.55-16.621-2.564H431.882l-10.646 7.924-2.038 8.626-1.37 13.827.545 3.918.913 6.64 1.054 7.679.668 4.884-4.41 1.617-.158-.422-1.511-4.112-.72-1.967-.334-4.744-1.494-20.978-3.162-4.304-3.62 3.39 1.81-25.615 5.658-1.124z"/><path fill="#E99FB6" d="M416.44 236.092l-12.72 10.594 14.494-5.78 1.265 3.426-10.242 12.316 13.616-8.837 3.725 2.459 4.18 2.759 11.684 2.477-21.206 11.578-13.826 17.85 17.218-10.031 1.299-.352 12.299 23.473 24.034-12.176 26.284-12.422-2.46 8.399-43.537 23.578-8.063 27.32v32.292H407.41l-19.502-24.474 4.585-73.633 5.359-29.78 3.987.72 13.09-5.867z"/><path fill="#EC8EAD" d="M416.598 236.513l1.616 4.392-14.494 5.78 12.72-10.594zM414.209 230.012l.72 1.969-13.09 5.868 12.036-12.58z"/><path fill="#C81862" d="M402.56 443.496l8.258 79.746-10.138 14.53-9.399 38.547-17.359-18.606-28.637-64.39z"/><path fill="#E86E97" d="M407.41 177.762l-1.81 25.616-2.003 1.88-18.114 17.007h-.017l-3.004-17.745z"/><path fill="#EC8EAD" d="M403.597 205.258l2.003-1.88 3.62-3.391 3.161 4.305 1.493 20.977-12.035 12.58-3.987-.72z"/><path fill="#F1A9C1" d="M386.537 228.537l-1.476 15.373-4.461-.422-8.856-21.627 4.832-3.057zM385.061 243.91l-1.897 19.783-10.313 13.598-6.712 13.265-2.793-.421 1.775-11.491 15.478-35.156z"/><path fill="#E86E97" d="M383.163 263.693l-1.159 12.07-7.853 18.694-9.03 9.013 1.019-12.914 6.71-13.264z"/><path fill="#F1A9C1" d="M382.004 275.763l-5.429 56.608-8.047 2.038-10.208-11.561 5.026-32.713 2.793.421-1.019 12.914 9.03-9.014z"/><path fill="#E86E97" d="M371.744 221.86l8.855 21.628-15.478 35.157 2.318-54.061z"/><path fill="#E45D8C" d="M345.285 493.322l28.638 64.391 17.358 18.606 91.377 97.913-34.207 34.91-77.322-133.755-18.94-60.156z"/></g></svg>