
<svg width="1081px" height="965px" viewBox="0 0 1081 965" version="1.1" xmlns="http://www.w3.org/2000/svg" xmlns:xlink="http://www.w3.org/1999/xlink">
    <g id="Page-1" stroke="none" stroke-width="1" fill="none" fill-rule="evenodd">
        <g id="Group-133">
            <polygon id="Fill-3" fill="#D94178" points="827.689398 674.653004 692.509997 750.13336 601.250238 952.911523 673.346363 739.437933"></polygon>
            <polygon id="Fill-5" fill="#E34C82" points="797.021193 500.141845 738.697588 597.470899 667.14706 672.405658 632.2231 724.791598 640.408969 671.837168 713.901519 597.470899 783.466149 491.300686"></polygon>
            <polygon id="Fill-7" fill="#C81862" points="716.717737 456.661066 702.289927 427.54314 705.432835 405.279521 737.846284 430.184328"></polygon>
            <polygon id="Fill-9" fill="#E86E97" points="468.450672 743.366807 442.365963 759.388486 471.637457 729.703024 532.951356 668.453987 587.454825 597.056073 615.043743 567.086367 641.107467 538.798283 641.128452 538.776345 716.717546 456.661066 737.847047 430.184328 705.432645 405.279521 742.910039 405.279521 765.743102 427.54314 783.466435 491.300781 713.901805 597.470994 640.408301 671.837263 632.222432 724.79074"></polygon>
            <polygon id="Fill-11" fill="#C50D5F" points="690.240235 259.513908 711.085492 365.399876 705.433026 405.279044 702.290118 427.542663 680.112344 382.861856 692.510379 360.33593 692.510379 315.829676 683.496575 284.288992 670.53005 276.409306 612.512628 313.013935 574.205392 269.074263 574.205392 202.042083 562.614307 187.96338 598.369064 157.142846 592.736628 149.830696 557.004764 181.110027 549.779413 172.356621 585.555154 141.535134 579.924626 134.201999 544.148885 165.502315 536.748981 156.510449 572.808013 125.448594 567.176532 118.115459 531.1175 149.656143 503.81092 116.433836 478.447315 116.433836 391.137414 155.85516 303.259023 183.466016 303.259023 297.253609 306.074764 313.734086 307.777371 323.709362 258.207172 242.598479 270.03767 187.395844 252.008154 172.749604 289.18032 109.667283 394.52069 37.5711572 503.81092 37.5711572 503.81092 0.944589445 538.73488 43.2026387 602.930335 29.6914709 589.419167 55.6006732 636.741162 74.7433225 690.240235 177.835488"></polygon>
            <polygon id="Fill-13" fill="#F3BACD" points="680.112249 382.862142 702.290022 427.542949 716.717832 456.660875 641.128738 538.776154 660.402064 500.316303 667.146678 449.611031 649.685652 504.245177 615.044029 567.08713 587.454157 597.056836 532.951642 668.453796 487.876898 686.200021 471.637743 653.480389 549.998701 624.516031 598.433829 544.539266 609.762607 496.933026 649.685652 421.736915 658.70041 421.736915"></polygon>
            <path d="M671.381449,360.051971 L671.381449,334.710305 L640.408301,320.347357 L640.408301,337.810291 L648.287988,351.88804 L640.408301,364.832626 L640.408301,377.797243 L671.381449,360.051971 Z M680.111963,294.699507 L667.147346,286.820774 L647.436207,302.318794 L647.436207,313.296559 L666.317504,300.35388 L680.111963,324.560475 L680.111963,294.699507 Z M683.496193,284.288325 L692.509997,315.829962 L692.509997,360.336216 L680.111963,382.862142 L658.700124,421.736915 L649.685366,421.736915 L584.071549,519.174707 L551.111548,461.899374 L490.190632,425.14213 L482.966235,400.890704 L441.056338,380.700737 L440.707232,380.046401 L439.026563,379.71828 L397.750971,371.489487 L397.750971,286.820774 L419.512869,321.548243 L419.512869,331.960379 L451.839519,347.653937 L488.160857,339.1409 L502.108884,333.61911 L488.313472,363.435248 L502.108884,371.489487 L513.938429,386.66034 L554.079904,398.075917 L578.156776,375.549992 L569.294633,360.051971 L599.961598,326.678004 L612.512247,313.014221 L670.529669,276.409592 L683.496193,284.288325 Z" id="Fill-15" fill="#F3BACD"></path>
            <polygon id="Fill-17" fill="#EC8EAD" points="680.112249 294.699793 680.112249 324.560761 666.31779 300.354167 647.436493 313.296845 647.436493 302.318127 667.146678 286.820107"></polygon>
            <polygon id="Fill-19" fill="#EC8EAD" points="671.381449 334.709923 671.381449 360.05159 640.408301 377.797815 640.408301 364.832245 648.287988 351.888613 640.408301 337.809909 640.408301 320.346975"></polygon>
            <polygon id="Fill-21" fill="#F2ACC4" points="667.146869 449.61065 660.402254 500.315921 641.128929 538.775773 641.106991 538.798665 615.04422 567.086748 649.684889 504.244795"></polygon>
            <polygon id="Fill-23" fill="#F1A9C1" points="574.205105 269.074645 612.512342 313.013363 599.961693 326.678099 548.994115 243.863654"></polygon>
            <polygon id="Fill-25" fill="#F2ACC4" points="609.762703 496.932931 598.433925 544.53917 549.998797 624.515936 471.636885 653.480293 462.360774 634.81838 459.130112 628.269303 544.366361 598.038244 591.667372 531.006064"></polygon>
            <polygon id="Fill-27" fill="#F7C7D8" points="548.994401 243.863941 599.961979 326.677432 569.294061 360.052353 520.269458 360.052353 502.109266 371.489869 488.313853 363.434676 502.109266 333.619492 517.955438 327.353705 523.783411 320.652967 536.748981 305.701499 536.748981 284.856242 474.650071 249.778713 431.976147 262.460992 397.750398 286.820202 397.750398 197.545387 415.933483 151.401387 465.351068 123.7457 534.217486 214.24334"></polygon>
            <polygon id="Fill-29" fill="#E34C82" points="601.249856 952.911141 598.434116 962.842541 571.979316 962.842541 578.156395 904.476013 672.232849 697.113687 827.689017 674.652622 673.345982 739.437551"></polygon>
            <polygon id="Fill-31" fill="#E86E97" points="592.73701 149.830505 598.368491 157.142655 562.614689 187.964143 557.005146 181.109836"></polygon>
            <polygon id="Fill-33" fill="#EC92B0" points="591.667658 531.005683 544.366647 598.037863 459.130399 628.269876 446.905963 603.670298 522.386319 585.094231"></polygon>
            <polygon id="Fill-35" fill="#E86E97" points="579.924436 134.201999 585.554963 141.535134 549.779222 172.356621 544.148695 165.502315"></polygon>
            <polygon id="Fill-37" fill="#F2ACC4" points="551.111644 461.899755 584.071644 519.175088 508.307997 566.213792 465.350782 571.365491 513.938525 542.83704 513.938525 491.300972 513.938525 458.909462 497.895861 451.029775 490.190728 425.142511"></polygon>
            <polygon id="Fill-39" fill="#F3BACD" points="569.294251 360.051971 578.156395 375.549992 554.080476 398.075917 513.939002 386.66034 502.108503 371.489487 520.269649 360.051971"></polygon>
            <polygon id="Fill-41" fill="#EC8EAD" points="549.779604 172.356621 557.004955 181.110027 562.614498 187.96338 574.204628 202.042083 574.204628 269.074263 548.994592 243.864227 548.994592 201.627162 478.447505 116.433836 503.81111 116.433836 531.117691 149.656143 536.749172 156.510449 544.149076 165.502315"></polygon>
            <polygon id="Fill-43" fill="#E86E97" points="567.177009 118.115268 572.807536 125.448403 536.749458 156.510258 531.117023 149.655952"></polygon>
            <polygon id="Fill-45" fill="#F1A9C1" points="548.994401 201.627639 548.994401 243.86375 534.217486 214.244103 465.351068 123.746463 478.447315 116.434313"></polygon>
            <polygon id="Fill-47" fill="#E86E97" points="536.749077 284.85586 536.749077 305.701117 474.235245 268.790304 410.847694 297.10128 397.750494 286.820774 431.976242 262.460611 474.650166 249.779285"></polygon>
            <polygon id="Fill-49" fill="#F1A9C1" points="536.749077 305.701594 523.783506 320.653063 515.99062 311.834796 509.703849 304.719137 487.746413 292.255287 459.435437 292.255287 437.477047 309.564653 434.508692 300.986754 474.235245 268.790781"></polygon>
            <polygon id="Fill-51" fill="#D11F69" points="532.951451 668.453987 471.637553 729.703024 442.366058 759.388486 442.345074 759.409471 442.345074 698.881537 462.360488 634.817713 462.360488 686.199258 487.876708 686.199258"></polygon>
            <polygon id="Fill-53" fill="#F1A9C1" points="515.990906 311.83451 523.783793 320.652777 517.95582 327.354468 502.108694 333.619301 488.160666 339.14109 451.839328 347.654128 419.513632 331.96057 430.558165 326.678195 482.6818 326.678195"></polygon>
            <polygon id="Fill-55" fill="#E97EA1" points="509.704326 304.718851 515.991097 311.83451 482.68199 326.677241 430.557402 326.677241 443.937894 320.238809 443.959832 320.238809 472.532161 318.230019 479.430344 317.750236 481.546919 317.597622 494.142398 311.83451"></polygon>
            <polygon id="Fill-57" fill="#F2ACC4" points="513.938906 491.301163 513.938906 542.836277 465.351163 571.364728 451.970672 572.980536 410.847694 582.824183 410.345974 583.129412 372.780825 521.99102 417.330003 540.588072 468.451149 523.126092"></polygon>
            <polygon id="Fill-59" fill="#E99FB6" points="513.938906 458.909652 513.938906 491.301163 488.313949 491.301163 470.894891 487.961763 488.313949 475.519852 467.751983 477.157598 476.482496 460.328015 497.896242 451.029012"></polygon>
            <polygon id="Fill-61" fill="#F2ACC4" points="513.938906 491.301163 468.451149 523.126092 468.451149 509.330679 450.006712 502.847417 470.873907 487.961763 470.894891 487.961763 488.313949 491.301163"></polygon>
            <polygon id="Fill-63" fill="#F8E1EE" points="509.704326 304.718851 494.142398 311.83451 496.128297 300.986468"></polygon>
            <polygon id="Fill-65" fill="#F2ACC4" points="490.190632 425.142321 497.895766 451.029584 470.568201 422.303688 454.502645 413.28893 454.502645 405.388259 441.056338 380.700928 482.966235 400.890895"></polygon>
            <polygon id="Fill-67" fill="#F2ACC4" points="470.567914 422.304069 497.895479 451.029012 476.482687 460.328015 467.752174 477.157598 434.792173 479.753955 423.74764 433.283741 435.927245 433.283741 454.502359 421.169951 454.502359 413.289311"></polygon>
            <polygon id="Fill-69" fill="#E5618D" points="488.313663 475.519947 470.894605 487.961859 470.873621 487.961859 461.836924 485.102241 467.751697 477.157694"></polygon>
            <polygon id="Fill-71" fill="#C81862" points="471.637266 653.480293 487.876421 686.199926 462.360202 686.199926 462.360202 634.81838"></polygon>
            <polygon id="Fill-73" fill="#EC8EAD" points="480.782605 302.427437 483.729976 309.150113 479.014183 311.94487 476.133581 305.701976 475.784475 300.659014"></polygon>
            <polygon id="Fill-75" fill="#D04074" points="480.782605 302.427437 475.784475 300.659014 475.784475 298.803792 488.160571 298.803792 496.128011 300.986182 494.142112 311.834224 481.547586 317.597335 479.430058 317.74995 479.014183 311.94487 483.729976 309.150113"></polygon>
            <polygon id="Fill-77" fill="#D04074" points="479.01466 311.944393 479.430535 317.750427 472.532351 318.230209 465.350877 308.517239 466.616625 298.804269 475.783998 298.804269 475.783998 300.659491 476.133104 305.701499"></polygon>
            <polygon id="Fill-79" fill="#EC8EAD" points="474.235245 268.790591 434.508692 300.986564 437.477047 309.564462 419.513346 308.517144 419.513346 321.548529 397.750494 286.820107 410.847694 297.101566"></polygon>
            <polygon id="Fill-81" fill="#F8E1EE" points="465.350686 308.517525 472.532161 318.230496 443.959832 320.238332 443.937894 320.238332 442.54147 320.34707 466.616434 298.803602"></polygon>
            <polygon id="Fill-83" fill="#E99FB6" points="468.450672 509.330965 468.450672 523.126378 417.329526 540.588358 372.780349 521.990352 363.26387 493.614515 372.780349 430.184042 390.787926 454.674881 408.315721 454.674881 408.315721 433.283073 423.747926 433.283073 434.79246 479.754241 419.512869 469.887703 408.315721 477.157884 409.166548 485.102432 381.838029 501.167034 421.695259 507.060822 450.006235 502.847703"></polygon>
            <polygon id="Fill-85" fill="#E86E97" points="467.752078 477.157407 461.837306 485.101955 448.17257 490.450145 435.076323 490.450145 415.933674 495.666706 408.31534 495.514091 409.166167 485.101955 426.344856 485.101955 434.792078 479.754718"></polygon>
            <polygon id="Fill-87" fill="#F2ACC4" points="454.502645 413.289216 454.502645 421.169856 435.926577 433.283646 423.747926 433.283646 408.315721 433.283646 402.68424 433.283646 397.903585 430.184614 371.841768 413.289216 385.221306 403.423631 418.465551 403.423631 418.465551 409.905939 404.386847 418.06987 412.833116 422.303974 433.962617 422.303974 439.026563 418.06987 434.224924 409.905939 434.224924 403.423631 437.323956 403.423631"></polygon>
            <polygon id="Fill-89" fill="#F3BACD" points="454.502645 405.388354 454.502645 413.289025 437.323956 403.42344 434.224924 403.42344 418.465551 403.42344 385.221306 403.42344 375.661904 392.160477 380.441605 360.052258 380.441605 342.088557 380.441605 333.007984 380.441605 320.347643 357.194575 293.71829 331.852909 286.820107 320.24084 291.055164 320.24084 226.139559 356.365687 184.73329 415.933101 151.402245 397.750971 197.546246 397.750971 286.820107 397.750971 371.489774 439.026563 379.718566 441.056338 380.701023"></polygon>
            <polygon id="Fill-91" fill="#E5618D" points="448.172188 490.449764 438.328542 496.933026 428.593633 496.933026 415.933292 495.667278 435.075941 490.449764"></polygon>
            <polygon id="Fill-93" fill="#EC8EAD" points="487.746413 292.255574 509.704803 304.718469 496.12782 300.986087 488.161334 298.803697 475.784284 298.803697 466.616911 298.803697 442.540993 320.347166 443.937417 320.238428 430.557879 326.677813 419.513346 331.960189 419.513346 321.548052 419.513346 308.517621 437.477047 309.563985 459.435437 292.255574"></polygon>
            <polygon id="Fill-95" fill="#E34C82" points="434.225115 409.906035 439.026754 418.069966 433.962808 422.304069 412.833307 422.304069 404.387038 418.069966 418.465742 409.906035"></polygon>
            <polygon id="Fill-97" fill="#E99FB6" points="434.792364 479.754432 426.345142 485.101669 409.166453 485.101669 408.315626 477.157121 419.512774 469.887894"></polygon>
            <polygon id="Fill-99" fill="#E34C82" points="434.508215 764.211682 442.344978 759.410043 442.365963 759.388105 468.450672 743.366425 632.222432 724.791312 456.052637 772.375613 434.508215 796.319902"></polygon>
            <polygon id="Fill-101" fill="#E34C82" points="434.508215 796.319997 399.868499 786.737703 342.701904 711.258301 373.107516 739.437647"></polygon>
            <path d="M442.344883,759.409852 L434.508119,764.211491 L434.508119,796.319711 L373.107421,739.438314 C375.377564,737.734753 418.879423,665.507951 418.879423,665.507951 L442.344883,698.881919 L442.344883,759.409852 Z" id="Fill-103" fill="#E86E97"></path>
            <polygon id="Fill-105" fill="#F2ACC4" points="418.465456 409.905844 434.224828 409.905844 434.224828 403.423536 418.465456 403.423536"></polygon>
            <polygon id="Fill-107" fill="#E5618D" points="421.695641 507.060917 381.838411 501.167129 409.165976 485.102527 408.316103 495.514663"></polygon>
            <polygon id="Fill-108" fill="#F2B0C7" points="391.137318 155.855351 478.447219 116.434027 465.350973 123.746177 415.933387 151.401864 356.365973 184.732908 320.241126 226.140131 320.241126 291.054782 303.258928 297.2538 303.258928 183.466207"></polygon>
            <polygon id="Fill-109" fill="#E97EA1" points="421.695641 507.060917 408.316103 495.514663 415.933483 495.667278 428.59287 496.933026 438.327779 496.933026 448.172379 490.449764 461.837115 485.102527 470.873811 487.962145 450.006616 502.847798"></polygon>
            <polygon id="Fill-110" fill="#EC92B0" points="410.847599 583.959827 410.345878 583.129984 410.847599 582.824755 451.970576 572.980155 465.351068 571.365301 508.308283 566.214555 584.070976 519.174898 649.685747 421.737106 609.762703 496.933217 591.667372 531.005396 522.386987 585.093944 446.906631 603.670012 421.695641 589.897491"></polygon>
            <polygon id="Fill-111" fill="#E99FB6" points="410.345497 583.129794 410.847217 583.959636 368.043571 537.205177 307.777944 400.890704 317.490914 371.729856 335.367815 375.549992 345.95355 442.014636 363.26387 493.614611 372.780349 521.990448"></polygon>
            <polygon id="Fill-112" fill="#E99FB6" points="408.315817 433.28355 408.315817 454.675358 390.788022 454.675358 372.780444 430.184519 397.903681 430.184519 402.684335 433.28355"></polygon>
            <polygon id="Fill-113" fill="#E34C82" points="421.695641 589.89711 407.486261 643.680428 342.702286 711.258206 399.039039 640.297152 410.847599 595.703144"></polygon>
            <polygon id="Fill-114" fill="#EC8EAD" points="397.903585 430.184519 372.780349 430.184519 363.26387 413.28912 365.839242 403.423536 371.841768 413.28912"></polygon>
            <polygon id="Fill-115" fill="#F2B0C7" points="375.661618 392.160286 385.22102 403.424203 371.841482 413.288834 365.838956 403.424203 363.263584 399.211084 367.192458 387.663877 380.442273 360.052067"></polygon>
            <polygon id="Fill-116" fill="#E99FB6" points="380.441987 342.088271 380.441987 360.051971 345.953932 377.798196 335.367243 375.549992 317.491295 371.729856 322.423611 356.887125 339.885591 359.003699"></polygon>
            <polygon id="Fill-117" fill="#E97EA1" points="380.441987 333.008079 380.441987 342.088652 339.885591 359.004081 322.423611 356.886552 322.423611 345.973649 338.182984 347.653365 349.337209 343.79126 362.629947 339.185158 370.182465 336.564955"></polygon>
            <polygon id="Fill-118" fill="#E97EA1" points="380.441987 320.347357 380.441987 333.007698 372.78073 327.354278 363.263298 320.347357"></polygon>
            <polygon id="Fill-119" fill="#E86E97" points="357.194861 293.718004 380.441891 320.347357 350.450246 305.701117 306.074669 313.733418 303.258928 297.253895 320.241126 291.054878 331.853195 286.820774"></polygon>
            <polygon id="Fill-120" fill="#F2ACC4" points="380.441987 360.051971 367.192172 387.663781 363.263298 399.210989 365.83867 403.424108 363.263298 413.288739 372.78073 430.184137 363.263298 493.614611 345.953932 442.014636 335.367243 375.549992 345.953932 377.797243"></polygon>
            <polygon id="Fill-121" fill="#F1A9C1" points="380.441987 320.347357 363.263298 320.347357 355.645918 320.347357 348.332813 320.347357 306.074764 313.733418 350.450342 305.702071"></polygon>
            <polygon id="Fill-122" fill="#F8E1EE" points="380.441987 333.008079 370.182465 336.564955 372.78073 327.353705"></polygon>
            <path d="M373.107516,739.437838 L342.701904,711.258492 L407.485879,643.679761 L421.695259,589.897396 L446.906249,603.669916 L459.130685,628.269494 L462.360393,634.817617 L442.344978,698.881442 L418.879518,665.507474 C418.879518,665.507474 375.37766,737.73523 373.107516,739.437838" id="Fill-123" fill="#D94178"></path>
            <polygon id="Fill-124" fill="#D04074" points="372.780539 327.353992 370.182275 336.565241 362.629756 339.18449 360.578042 333.291656 355.645727 323.709362 355.645727 320.34707 363.263107 320.34707"></polygon>
            <polygon id="Fill-125" fill="#D04074" points="360.578042 333.291275 362.629756 339.185063 349.337018 343.791164 342.54948 330.759779 345.517836 321.547576 348.332622 320.347643 355.645727 320.347643 355.645727 323.708981 353.265892 328.64225 355.645727 333.989487"></polygon>
            <polygon id="Fill-126" fill="#F1A9C1" points="355.645822 323.709076 360.578138 333.29137 355.645822 333.989582 353.265987 328.642346"></polygon>
            <polygon id="Fill-127" fill="#F8E1EE" points="342.549099 330.759493 349.336636 343.790878 338.183365 347.653937 322.423039 345.973268 322.423039 331.327028 345.517454 321.548243"></polygon>
            <polygon id="Fill-128" fill="#E97EA1" points="317.491295 371.730046 307.777371 400.890895 307.777371 323.708885 306.074764 313.733609 348.332813 320.347547 345.518026 321.548434 322.423611 331.327219 322.423611 345.973459 322.423611 356.886362"></polygon>
            <polygon id="Fill-129" fill="#E86E97" points="598.433925 962.842637 601.249666 952.911237 692.510379 750.133074 827.68978 674.652718 672.232658 697.113782 578.156204 904.476108 571.979125 962.842637 147.493426 964.053891 165.472365 873.492968 274.818325 701.413701 322.423611 643.112988 410.847599 595.70324 399.039039 640.297247 342.702286 711.258301 399.867927 786.737703 434.508596 796.319997 456.053019 772.374755 632.222813 724.791407 667.146774 672.405467 738.698256 597.470708 797.020907 500.141654 948.810508 599.173316 1012.45941 665.507284 1060.32796 782.808829 1080.60568 917.987276 1080.60568 962.842637"></polygon>
        </g>
    </g>
</svg>