
<svg width="1081px" height="965px" viewBox="0 0 1081 965" version="1.1" xmlns="http://www.w3.org/2000/svg" xmlns:xlink="http://www.w3.org/1999/xlink">
    <g id="Page-1" stroke="none" stroke-width="1" fill="none" fill-rule="evenodd">
        <g id="Group-192">
            <polygon id="Fill-3" fill="#962151" points="913.28088 823.398798 913.28088 964.575564 758.332277 964.575564 796.69017 838.59588 734.863249 801.969274 776.344173 767.107819 711.665671 649.575564 828.772043 690.288031 892.934882 742.112755"></polygon>
            <polygon id="Fill-5" fill="#E34C82" points="655.234783 660.023544 651.444478 637.375911 648.776284 621.263658 648.776284 558.575564 703.569124 635.301319 711.635439 649.96115 711.665399 649.96115 776.3439 767.350571 734.862977 802.169353 796.689898 838.751124 758.332913 964.575564 637.830245 964.575564 665.81768 755.213585 668.15269 737.683072"></polygon>
            <polygon id="Fill-7" fill="#F0ABC2" points="695.32151 266.217365 672.276451 260.940896 550.288528 253.117887 446.705603 253.117887 381.754744 254.663969 335.361403 258.454274 335.361403 233.559002 350.674238 231.80139 372.173215 229.344727 406.9832 225.34289 516.933839 223.371931 635.100589 229.253941 694.411836 237.986624 721.156415 241.928542 736.044372 244.111939 740.745259 276.587823"></polygon>
            <polygon id="Fill-9" fill="#E97EA1" points="740.74535 276.587732 707.663017 334.837694 695.321601 290.656802 695.321601 266.217274"></polygon>
            <polygon id="Fill-11" fill="#E97EA1" points="721.156415 209.665097 721.156415 241.928542 694.411836 237.986624 695.32151 231.80139 695.32151 205.966485 702.478152 205.966485 708.208549 231.80139 713.939854 207.724097 719.640292 205.601526"></polygon>
            <polygon id="Fill-13" fill="#FADEEA" points="719.215687 390.449421 719.215687 432.900844 676.945836 492.182133 687.134722 458.948188 661.693827 506.463641 648.775921 555.950961 648.775921 506.463641 664.726072 446.606771 679.311713 446.606771 697.50518 411.371908 697.50518 355.032079 682.525529 339.476846 668.152327 354.456497 668.152327 337.141836 658.570797 289.898741 695.321782 290.656802 707.662291 334.837694 712.575617 352.394753"></polygon>
            <polygon id="Fill-15" fill="#F3BACD" points="713.939673 207.72437 708.209275 231.801662 702.47797 205.965849"></polygon>
            <path d="M697.505089,355.032261 L697.505089,411.37209 L679.311622,446.606953 L664.726889,446.606953 L668.152236,433.689954 L668.152236,354.455771 L682.525438,339.477028 L697.505089,355.032261 Z M692.80511,405.398387 L692.80511,371.163983 L687.801907,362.370474 L687.801907,395.513633 L678.128683,415.223222 L684.011601,422.136558 L692.80511,405.398387 Z" id="Fill-17" fill="#F3BACD"></path>
            <polygon id="Fill-19" fill="#E34C82" points="695.32151 266.217365 695.32151 290.656893 658.571433 289.898831 597.197533 283.319587 534.399204 276.587823 440.247104 281.955077 414.927862 281.955077 381.754744 276.587823 381.754744 254.663969 446.705603 253.117887 550.288528 253.117887 672.276451 260.940896"></polygon>
            <polygon id="Fill-21" fill="#F3BACD" points="695.32151 205.966303 695.32151 231.801208 681.737236 228.556525 668.152054 198.931314 695.32151 198.931314"></polygon>
            <polygon id="Fill-23" fill="#EC8EAD" points="692.805382 371.16362 692.805382 405.398024 684.010965 422.136195 678.128956 415.222859 687.801271 395.51327 687.801271 362.370111"></polygon>
            <polygon id="Fill-25" fill="#F7C7D8" points="668.152236 354.456043 668.152236 433.689319 664.726889 446.607225 648.77583 506.464095 601.836867 552.221028 561.355495 566.897455 560.567474 566.897455 540.009038 544.216447 558.020026 529.721592 558.020026 501.369198 544.618231 501.369198 544.618231 494.85078 562.508474 485.601526 576.335146 481.932874 591.284837 495.729586 598.743796 495.729586 598.743796 479.26468 606.172795 477.232895 608.295366 484.935159 630.067608 497.064137 630.067608 392.783977 642.044974 387.599202"></polygon>
            <polygon id="Fill-27" fill="#F7C7D8" points="658.570979 289.898831 668.152508 337.141927 653.476989 335.777417 624.972983 321.67748 617.695596 318.068746 581.308662 318.068746 562.811063 325.680225 555.079747 338.598131 551.077003 339.476937 527.000618 339.476937 499.133928 320.404664 468.599044 314.824063 468.599044 300.026891 566.480623 293.507565 597.197079 293.507565 597.197079 283.319587"></polygon>
            <polygon id="Fill-29" fill="#E97EA1" points="655.234783 644.917287 668.15269 713.022044 665.81768 728.395705 648.776284 700.135005"></polygon>
            <polygon id="Fill-31" fill="#E99FB6" points="648.776012 700.135186 665.817408 728.395887 611.782629 731.154866 651.444205 625.056267 655.234511 644.917469"></polygon>
            <polygon id="Fill-33" fill="#E34C82" points="658.964626 110.298172 624.973528 110.298172 624.973528 84.8572771 626.003946 80.1872574 645.077127 98.9572141"></polygon>
            <polygon id="Fill-35" fill="#F0ABC2" points="653.476717 335.777599 627.065323 333.321844 624.518782 333.321844 612.783814 333.321844 624.973619 321.677662"></polygon>
            <polygon id="Fill-37" fill="#F3BACD" points="648.776012 610.925826 651.444205 625.055723 611.782629 731.155229 576.608592 732.974576 590.344478 649.646863 580.671255 630.877814 528.971486 728.820219 488.18689 725.272312 511.051284 699.529101 480.788758 642.006333 496.496511 585.970636 563.690686 585.970636 612.115812 566.897455 648.776012 506.464095 648.776012 555.950507"></polygon>
            <polygon id="Fill-39" fill="#E97EA1" points="456.409512 74.0015694 438.094392 89.3752306 433.000403 103.839219 461.71594 103.839219 462.170777 109.509697 542.373644 119.697676 624.973255 111.874666 624.973255 110.297718 658.964353 110.297718 645.076855 98.9567601 626.004582 80.1868035 627.975541 71.24259 660.147292 91.5286689 689.469278 122.427604 703.176113 161.14864 719.640111 205.601889 713.939673 207.72446 702.47797 205.96594 695.321328 205.96594 695.321328 198.930951 668.151873 198.930951 681.737054 228.556162 695.321328 231.800845 694.411655 237.986987 635.100407 229.254304 516.933657 223.371387 406.983018 225.342346 372.173033 229.344182 371.475798 223.371387 390.275714 190.410707 365.017299 190.410707 363.561095 198.930951 371.779023 198.930951 357.405821 223.371387 350.674056 223.371387 350.674056 196.777513 394.85404 106.779769 429.300883 79.0047728 453.952849 66.4817845"></polygon>
            <polygon id="Fill-41" fill="#F3BACD" points="630.067426 392.783705 630.067426 497.063865 608.296092 484.934887 606.173521 477.23353 599.501675 452.853013 599.501675 419.98312 615.634306 399.060633"></polygon>
            <polygon id="Fill-43" fill="#F0ABC2" points="629.61259 63.7527645 627.974814 71.24259 626.003855 80.1877113 624.973437 84.8568232 624.973437 110.298626 624.973437 111.874666 542.373825 119.697676 462.17005 109.509697 470.964467 78.3983239 468.962641 70.9992842 494.828413 67.269805 548.438315 60.598867 542.950315 45.5592974 532.003368 42.2238284 523.968828 34.0059011 567.087526 34.0059011 604.29244 46.9238074"></polygon>
            <polygon id="Fill-45" fill="#F3BACD" points="624.518328 339.780434 640.770795 342.114536 653.476263 348.573943 653.476263 359.338411 638.041775 381.443837 599.501403 383.929551 580.671528 382.413429 564.024142 367.797828 566.480805 351.060565 576.760477 364.704757 598.623505 371.314869 618.877809 367.070634 629.430746 364.03839 628.824297 353.455493 620.757982 344.510372 611.084759 339.780434"></polygon>
            <polygon id="Fill-47" fill="#E97EA1" points="624.973165 321.677389 612.78336 333.321571 579.247099 333.321571 562.811244 325.680134 581.307936 318.068655 617.69487 318.068655"></polygon>
            <polygon id="Fill-49" fill="#FCEBF2" points="618.877899 355.335485 606.051687 364.038208 604.293166 364.038208 609.265503 356.488464 609.265503 349.453475"></polygon>
            <polygon id="Fill-51" fill="#E34C82" points="653.476717 359.338411 653.476717 348.573943 640.771249 342.114536 624.518782 339.780434 624.518782 333.321935 627.065323 333.321935 653.476717 335.77769 668.152236 337.1422 668.152236 354.455953 642.044974 387.599111 630.067608 392.783886 615.633579 399.060814 611.419304 399.060814 611.419304 392.783886 638.042229 381.443837"></polygon>
            <polygon id="Fill-53" fill="#962151" points="602.321935 346.905936 603.474914 354.062578 597.53117 356.729864 592.043171 355.911884 591.739946 348.330365 594.80215 345.541426"></polygon>
            <polygon id="Fill-55" fill="#F3BACD" points="597.197533 283.319496 597.197533 293.507475 566.481077 293.507475 468.599498 300.0268 468.599498 314.823972 448.676562 319.645604 440.247104 281.954986 534.399204 276.587732"></polygon>
            <path d="M600.472538,344.085676 L609.266047,349.452931 L609.266047,356.48792 L604.292803,364.038572 L591.285019,364.038572 L587.554632,358.24644 L585.219622,352.303604 L585.977683,345.844197 L600.472538,344.085676 Z M603.474823,354.062124 L602.321844,346.905482 L594.802059,345.54188 L591.739856,348.330819 L592.04308,355.91143 L597.531079,356.730318 L603.474823,354.062124 Z" id="Fill-57" fill="#D04074"></path>
            <polygon id="Fill-59" fill="#E99FB6" points="618.877899 367.070271 598.622688 371.315414 576.75966 364.705302 591.284474 364.038027 604.293166 364.038027 606.051687 364.038027 618.877899 355.335304 629.430837 364.038027"></polygon>
            <polygon id="Fill-61" fill="#E99FB6" points="590.344206 408.642888 590.344206 452.852832 590.101808 452.852832 565.055832 428.595784 565.055832 415.223041 557.050343 408.642888 571.029535 408.642888"></polygon>
            <polygon id="Fill-63" fill="#E99FB6" points="580.671618 630.87736 590.343934 649.647317 576.608048 732.974122 528.971849 728.820673"></polygon>
            <polygon id="Fill-65" fill="#FCEBF2" points="587.555086 358.246167 591.284565 364.038299 575.03119 354.334209 585.978137 345.844832 585.220076 352.303331"></polygon>
            <polygon id="Fill-67" fill="#F3BACD" points="586.280998 479.264317 598.744068 479.264317 598.744068 495.730131 591.28511 495.730131 576.335418 481.932511"></polygon>
            <polygon id="Fill-69" fill="#F0ABC2" points="579.246917 333.321753 555.079747 338.598222 562.811063 325.680315"></polygon>
            <polygon id="Fill-71" fill="#E97EA1" points="588.251867 339.780434 611.084486 339.780434 620.758617 344.510372 628.824024 353.455493 629.430473 364.03839 618.877536 355.335667 609.265139 349.452749 600.472538 344.085495 585.977683 345.844923 575.030736 354.3343 574.394328 354.061942 566.48144 351.060565 576.305368 344.510372"></polygon>
            <polygon id="Fill-73" fill="#F3BACD" points="576.760023 364.704848 566.481259 351.060656 574.395054 354.062033 575.031462 354.33439 591.284837 364.038481"></polygon>
            <polygon id="Fill-75" fill="#F7C7D8" points="571.029172 408.642888 559.567469 387.023167 573.666498 395.088574 590.982067 399.060451 611.41885 399.060451 615.634033 399.060451 599.501403 419.982938 599.501403 452.852832 590.343843 452.852832 590.343843 408.642888"></polygon>
            <polygon id="Fill-77" fill="#F7C7D8" points="583.067182 389.661219 564.085695 381.443292 555.079747 362.673335 555.079747 347.785378 579.550142 339.780797 588.251957 339.780797 576.305459 344.510735 566.480623 351.06002 564.023961 367.798192 580.671346 382.413792 599.502129 383.929914 638.042502 381.443292 611.418669 392.783342 598.50167 392.783342"></polygon>
            <polygon id="Fill-79" fill="#E5618D" points="546.953241 461.858961 586.280726 479.264408 561.355495 476.808653 552.532934 476.808653 508.079685 476.808653 499.618452 471.04648 508.806879 465.953399 523.179173 460.676023 532.974049 464.922073 534.945008 465.77092"></polygon>
            <polygon id="Fill-81" fill="#E97EA1" points="561.355767 476.808471 586.280998 479.264226 576.335418 481.933328 562.508746 485.60198 544.617596 494.850326 530.669271 494.850326 552.532299 476.808471"></polygon>
            <polygon id="Fill-83" fill="#F3BACD" points="540.008675 544.215993 560.568019 566.897001 509.68623 566.897001 509.68623 522.686149 539.614665 501.369652 544.617868 501.369652 558.02057 501.369652 558.02057 529.721138"></polygon>
            <polygon id="Fill-85" fill="#E34C82" points="557.050524 419.98312 557.050524 428.595057 550.288801 428.595057 543.527077 425.259588 547.832138 419.98312"></polygon>
            <polygon id="Fill-87" fill="#E97EA1" points="552.53248 476.808471 530.669452 494.850326 522.451525 494.850326 508.65572 488.846664 494.43413 479.17344 508.079231 476.808471"></polygon>
            <polygon id="Fill-89" fill="#E97EA1" points="542.950315 45.5592066 548.438315 60.5987763 494.828413 67.2697142 468.962641 70.9991934 463.747907 51.6845221 485.245976 41.8297274 523.968828 34.0058103 532.003368 42.2237376"></polygon>
            <polygon id="Fill-91" fill="#F7C7D8" points="565.055468 415.223041 565.055468 428.594876 557.050888 428.594876 557.050888 419.982938 547.831593 419.982938 543.526532 425.260315 539.615482 425.260315 539.615482 411.371908 544.617777 397.301931 544.617777 357.609487 559.567469 387.023167 571.029172 408.642888 557.050888 408.642888"></polygon>
            <polygon id="Fill-93" fill="#E97EA1" points="544.617959 449.214502 544.617959 457.340735 534.823991 460.676204 529.78992 455.643041 529.78992 449.122808"></polygon>
            <polygon id="Fill-95" fill="#EC8EAD" points="544.617959 444.333042 544.617959 449.214592 529.78992 449.122899 528.243838 425.805483 528.637849 425.472299 528.183012 425.108248 528.183012 425.077381 521.876125 419.892606 529.365043 411.371454 539.614755 411.371454 539.614755 425.259861 539.614755 437.206359"></polygon>
            <polygon id="Fill-97" fill="#EC8EAD" points="544.617959 357.609578 544.617959 397.302022 539.614755 411.371999 529.365043 411.371999 524.150308 397.574379 524.150308 363.794812 524.150308 363.764852 528.486236 356.488373 544.041469 356.488373"></polygon>
            <polygon id="Fill-99" fill="#F3BACD" points="565.055468 428.59533 590.102353 452.853286 590.343843 452.853286 599.501403 452.853286 606.173249 477.232895 598.743342 479.26468 586.28118 479.26468 546.953695 461.859234 534.945462 465.770284 532.973595 464.922345 534.823809 460.676295 544.617777 457.340826 544.617777 449.214592 544.617777 444.333042 539.615482 437.206359 539.615482 425.259861 543.526532 425.259861 550.288256 428.59533 557.050888 428.59533"></polygon>
            <polygon id="Fill-101" fill="#E99FB6" points="532.973686 464.922073 523.179718 460.676023 508.807423 465.953399 499.618996 471.04648 480.789121 481.508632 497.557252 432.901026 511.051648 432.901026 522.75484 430.141139 528.243748 425.805211 529.789829 449.123534 529.789829 455.64286 534.8239 460.676023"></polygon>
            <polygon id="Fill-103" fill="#E34C82" points="528.183466 425.077381 528.183466 425.108248 528.243384 425.805483 522.755385 430.141411 512.627325 424.592585 512.627325 419.740994 521.876579 419.892606"></polygon>
            <polygon id="Fill-105" fill="#F0ABC2" points="527.0008 339.477209 521.421107 339.477209 499.134109 332.350527 499.134109 320.404028"></polygon>
            <polygon id="Fill-107" fill="#E99FB6" points="524.150399 363.795266 524.150399 397.574833 510.68687 412.554484 499.619178 398.242108 509.988728 387.599293"></polygon>
            <polygon id="Fill-109" fill="#F3BACD" points="512.627507 419.741085 512.627507 424.592676 522.754659 430.141502 511.051466 432.900481 504.622926 423.683003 504.622926 412.554484 510.686507 412.554484 524.150036 397.574833 529.365678 411.371545 521.87676 419.892697"></polygon>
            <polygon id="Fill-111" fill="#E97EA1" points="504.622654 423.682821 511.051194 432.9003 497.557705 432.9003 488.186799 420.77223 494.646206 403.366783 499.618542 398.242834 510.687143 412.554302 504.622654 412.554302"></polygon>
            <polygon id="Fill-113" fill="#E99FB6" points="480.788667 642.006605 511.051194 699.528465 488.186799 725.272584 402.768289 696.92019 414.654869 657.471052 438.094846 670.782061 455.711823 670.782061 455.711823 620.901639 455.711823 542.942087 496.49642 585.97"></polygon>
            <polygon id="Fill-115" fill="#E34C82" points="508.079412 476.808471 494.434312 479.17344 480.788304 481.50845 499.619087 471.046299"></polygon>
            <polygon id="Fill-117" fill="#F7C7D8" points="499.618724 525.233416 499.618724 555.950779 471.752942 538.575292 471.752942 522.504396 488.186981 533.056426 488.186981 519.168927"></polygon>
            <path d="M471.752669,538.575564 L499.618452,555.951052 L499.618452,525.233689 L488.187616,519.1692 L488.187616,533.056698 L471.752669,522.504669 L471.752669,538.575564 Z M500.893084,566.897091 L443.370316,529.93276 L438.094755,422.136467 L463.141639,432.900935 L497.557615,432.900935 L480.788576,481.508541 L480.788576,495.730131 L490.612504,495.730131 L494.433677,479.173531 L508.655266,488.846754 L522.451979,494.850417 L530.668999,494.850417 L544.618231,494.850417 L544.618231,501.369743 L539.615028,501.369743 L509.685685,522.68624 L509.685685,566.897091 L500.893084,566.897091 Z" id="Fill-119" fill="#F3BACD"></path>
            <polygon id="Fill-121" fill="#F3BACD" points="488.187162 420.772139 497.557161 432.900209 463.141186 432.900209 438.094301 422.136649 419.59761 367.070544 445.91731 403.366692 494.645661 403.366692"></polygon>
            <polygon id="Fill-123" fill="#F7C7D8" points="495.889789 369.405554 488.187525 385.931286 455.711642 385.931286 442.005715 378.319808 427.724206 364.614789 421.872156 348.967862 421.872156 337.415374 441.763317 352.606556 441.763317 361.551677 456.864621 367.797738"></polygon>
            <polygon id="Fill-125" fill="#EC8EAD" points="494.43404 479.173804 490.612867 495.729496 480.788939 495.729496 480.788939 481.507906"></polygon>
            <polygon id="Fill-127" fill="#FCEBF2" points="480.788667 362.400615 486.79233 355.45732 489.096472 344.510372 504.622654 355.45732 491.189084 360.156391 484.03335 362.67388"></polygon>
            <polygon id="Fill-129" fill="#962151" points="480.788667 342.569645 482.850412 347.391277 480.212177 353.455766 474.633392 353.455766 470.236638 349.453022 471.842638 342.569645"></polygon>
            <polygon id="Fill-131" fill="#E99FB6" points="470.38825 330.198269 515.356255 347.390369 515.356255 364.220234 504.410215 382.231222 488.186799 385.931649 495.889971 369.405917 491.189084 360.156663 504.622654 355.456684 489.096472 344.510645 486.36836 342.569645 470.236638 335.807921"></polygon>
            <polygon id="Fill-133" fill="#E99FB6" points="431.059585 330.198269 470.387978 330.198269 470.236365 335.807921 453.953031 339.477482 441.763226 352.606919 421.872065 337.414829"></polygon>
            <polygon id="Fill-135" fill="#D04074" points="482.850866 347.390823 480.789121 342.569191 486.367906 342.569191 489.096926 344.510191 486.792784 355.457138 480.789121 362.400433 470.236184 361.551586 465.961082 354.880648 462.625613 345.783007 467.597949 342.569191 471.843092 342.569191 470.236184 349.452568 474.632938 353.45622 480.212631 353.45622"></polygon>
            <polygon id="Fill-137" fill="#FCEBF2" points="465.960628 354.880648 470.236638 361.551586 462.291975 360.91427 452.46714 352.394934 462.625159 345.783007"></polygon>
            <polygon id="Fill-139" fill="#F3BACD" points="470.236638 361.551314 480.788667 362.401069 484.03335 362.673426 491.189084 360.156845 495.889971 369.40519 456.864803 367.798282 462.291975 360.914906"></polygon>
            <polygon id="Fill-141" fill="#E97EA1" points="470.964467 78.3981423 462.17005 109.510424 461.715214 103.839037 460.199999 85.6455699 456.409693 74.0013878 453.953031 66.481603 451.982072 57.081645 463.747907 51.6844313 468.962641 71.0000104"></polygon>
            <polygon id="Fill-143" fill="#E99FB6" points="462.291975 360.914724 456.863895 367.798101 441.763499 361.551132 441.763499 352.606919 452.46714 352.39448"></polygon>
            <polygon id="Fill-145" fill="#E34C82" points="460.199636 85.645933 461.715758 103.8394 433.000221 103.8394 438.09421 89.3745043 456.40933 74.0017509"></polygon>
            <polygon id="Fill-147" fill="#E97EA1" points="443.370588 529.933214 500.892448 566.897545 509.685957 566.897545 560.567747 566.897545 561.355767 566.897545 601.837139 552.221119 648.776103 506.463278 612.115903 566.897545 563.690777 585.970726 496.496601 585.970726 455.712005 542.941906"></polygon>
            <polygon id="Fill-149" fill="#E97EA1" points="455.711823 620.901639 455.711823 670.782061 438.094846 670.782061 414.654869 657.471052 438.094846 644.857278 436.335418 579.238236"></polygon>
            <polygon id="Fill-151" fill="#E97EA1" points="455.711823 542.941997 455.711823 620.901548 436.335418 579.238145 442.127549 538.575201 443.370407 529.933304"></polygon>
            <polygon id="Fill-153" fill="#E97EA1" points="453.952849 339.477209 470.237092 335.807649 486.367906 342.569373 480.789121 342.569373 471.843092 342.569373 467.597949 342.569373 462.625613 345.783189 452.466686 352.395116 441.763045 352.606647"></polygon>
            <polygon id="Fill-155" fill="#E97EA1" points="470.085025 323.041809 434.576897 323.041809 448.676834 319.645513 468.598863 314.823881 499.133746 320.404482 499.133746 332.350981"></polygon>
            <polygon id="Fill-157" fill="#F7C7D8" points="440.247195 281.955077 448.676653 319.645695 434.576716 323.04199 429.300247 323.04199 414.927953 326.377459 414.927953 281.955077"></polygon>
            <polygon id="Fill-159" fill="#F7C7D8" points="438.094573 422.136649 443.371042 529.932941 413.441699 472.987571 410.257843 448.031472 405.497945 410.583252 405.22468 408.430722 405.22468 345.056812 419.596974 367.070544"></polygon>
            <polygon id="Fill-161" fill="#E34C82" points="442.12764 538.575564 436.335509 584.963667 434.576988 599.008522 414.65496 674.211311 402.76838 719.21471 398.765636 734.262104 376.478639 964.575564 271.622897 964.575564 258.31098 757.472726 328.750747 749.413065 293.515884 708.353535 361.984691 612.464076 372.56668 597.659032"></polygon>
            <polygon id="Fill-163" fill="#E34C82" points="436.335599 579.238508 438.09412 644.856643 414.655051 657.471324 434.577079 591.549966"></polygon>
            <polygon id="Fill-165" fill="#E99FB6" points="436.335599 382.62623 457.470525 391.722964 488.581899 391.722964 509.989182 387.599475 499.618724 398.24229 494.646388 403.367146 445.918037 403.367146 419.597428 367.07009"></polygon>
            <path d="M427.724206,364.614426 L442.005715,378.320352 L455.711642,385.930923 L488.187525,385.930923 L504.410033,382.231403 L515.356073,364.219508 L515.356073,347.390551 L470.388068,330.19845 L431.059675,330.19845 L421.872156,337.415011 L421.872156,348.968407 L427.724206,364.614426 Z M457.47107,391.722147 L436.335236,382.626321 L419.597065,367.070181 L405.224771,345.056449 L405.224771,342.11499 L405.224771,328.621502 L414.927953,326.377278 L429.300247,323.041809 L434.576716,323.041809 L470.084844,323.041809 L499.133565,332.350981 L521.42147,339.477663 L527.001163,339.477663 L551.07664,339.477663 L555.079384,338.597949 L579.246554,333.321481 L612.783723,333.321481 L624.518691,333.321481 L624.518691,339.780888 L611.085122,339.780888 L588.251594,339.780888 L579.549779,339.780888 L555.079384,347.785469 L555.079384,362.673426 L564.085332,381.443383 L583.066819,389.66131 L598.501307,392.783432 L611.419213,392.783432 L611.419213,399.06036 L590.981522,399.06036 L573.666861,395.088483 L559.567832,387.023076 L544.61814,357.609396 L544.041651,356.488192 L528.486418,356.488192 L524.15049,363.764671 L524.15049,363.795538 L509.988819,387.598657 L488.581535,391.722147 L457.47107,391.722147 Z" id="Fill-167" fill="#E34C82"></path>
            <polygon id="Fill-169" fill="#FADEEA" points="414.927771 281.955077 414.927771 326.377459 405.224589 328.620775 394.854131 326.377459 394.854131 343.085671 389.669356 342.115171 381.754653 342.115171 381.754653 407.854959 389.244479 422.712957 396.491906 437.116118 405.224589 476.292899 386.242194 448.032199 386.242194 476.292899 361.984238 395.513542 361.984238 362.370383 366.168553 332.351162 366.168553 332.321203 367.078227 325.680225 381.754653 276.587823"></polygon>
            <polygon id="Fill-171" fill="#F3BACD" points="405.497673 410.583616 410.258478 448.031835 402.010591 448.031835 396.491725 437.116663 389.244297 422.712594 394.672378 419.983574 399.372357 411.371636"></polygon>
            <polygon id="Fill-173" fill="#E34C82" points="405.224589 342.114808 405.224589 345.056267 394.854131 343.085308 394.854131 326.377096 405.224589 328.62132"></polygon>
            <polygon id="Fill-175" fill="#962151" points="402.76838 719.575564 488.18689 751.871245 528.971486 755.913763 576.608592 760.64503 611.782629 758.57258 665.818315 755.429778 637.829972 964.575564 376.478639 964.575564 398.765636 734.600827"></polygon>
            <polygon id="Fill-177" fill="#EC8EAD" points="394.065657 396.543688 399.372085 411.371727 394.672106 419.982757 388.789188 407.79386 388.789188 352.394571 394.065657 352.394571"></polygon>
            <polygon id="Fill-179" fill="#F3BACD" points="390.275533 190.410435 371.475617 223.372022 357.405639 223.372022 371.778841 198.931587 363.560914 198.931587 365.017118 190.410435"></polygon>
            <polygon id="Fill-181" fill="#F3BACD" points="405.224589 408.430994 405.497854 410.583525 399.372539 411.371545 394.065203 396.543506 394.065203 352.394389 388.789642 352.394389 388.789642 407.793678 394.671652 419.983483 389.244479 422.712503 381.754653 407.854505 381.754653 342.114717 389.669356 342.114717 394.854131 343.085217 405.224589 345.056176"></polygon>
            <polygon id="Fill-183" fill="#E97EA1" points="381.754653 254.664332 381.754653 276.587278 367.078227 325.680588 366.169461 332.320658 342.42626 306.848897 324.445232 267.520504 324.445232 259.364311 335.361312 258.484597 335.361312 258.454637"></polygon>
            <polygon id="Fill-185" fill="#962151" points="361.984328 612.575564 293.516429 708.434662 328.751292 749.481192 258.311525 757.539336 271.622534 964.575564 58 964.575564 85.3809864 847.658443 133.108878 713.79468 180.83677 642.41855 295.09247 618.316591"></polygon>
            <polygon id="Fill-187" fill="#E97EA1" points="357.405639 223.371659 371.475617 223.371659 372.172851 229.344454 350.673875 231.801117 350.673875 223.371659"></polygon>
        </g>
    </g>
</svg>