
<svg width="1081px" height="965px" viewBox="0 0 1081 965" version="1.1" xmlns="http://www.w3.org/2000/svg" xmlns:xlink="http://www.w3.org/1999/xlink">
    <g id="Page-1" stroke="none" stroke-width="1" fill="none" fill-rule="evenodd">
        <g id="Group-242">
            <path d="M467.7065,854.0002 L460.6795,844.9352 L449.3475,844.9352 L442.7585,852.1902 L442.7585,862.3982 L449.3475,869.1972 C449.3475,869.1972 460.6795,867.1592 461.5745,867.1592 C462.4885,867.1592 467.7065,854.0002 467.7065,854.0002 L467.7065,854.0002 Z M481.7625,729.9972 L478.3535,717.5402 L466.1075,712.3222 L457.9555,716.8552 L453.8795,726.8342 L458.8695,737.7102 L471.0975,739.2912 L481.7625,729.9972 Z M1080.2395,766.2772 L1080.2395,964.4052 L413.9795,964.4052 L423.2735,849.2392 L448.4505,709.1432 L528.6895,662.2152 L637.4955,601.6882 L672.6345,559.5222 L720.7035,490.5632 L719.1215,467.0732 L783.7245,481.9902 L919.7445,532.3252 L1004.0765,634.3322 L1080.2395,766.2772 Z" id="Fill-3" fill="#D94178"></path>
            <polygon id="Fill-5" fill="#F1A9C1" points="721.3002 267.593 723.4262 270.703 717.4702 316.383 713.4992 315.873 714.0092 289.52 717.0672 270.492"></polygon>
            <polygon id="Fill-7" fill="#F1A9C1" points="721.3002 267.593 717.0672 270.492 704.8382 292.594 713.4992 315.873 717.4702 316.383 712.5332 354.139 701.2012 375.45 685.7932 372.27 693.6992 319.124 700.5862 336.447 706.3662 333.566 707.1052 314.854 696.2812 301.783 701.6582 265.731 717.5232 262.094"></polygon>
            <polygon id="Fill-9" fill="#E45D8C" points="719.1215 467.0735 720.7035 490.5635 672.6345 559.5225 695.3155 494.2355 702.3435 472.5555 707.1045 457.8675 701.6585 428.4915 706.1025 425.9795 717.7515 446.6235"></polygon>
            <polygon id="Fill-11" fill="#E34C82" points="715.0287 168.1341 717.7517 201.4631 717.5227 262.0941 701.6587 265.7311 704.8387 245.0871 697.6877 230.0121 697.6877 186.3181 697.6877 162.0021 675.2517 111.3501 697.6877 131.3971"></polygon>
            <polygon id="Fill-13" fill="#E86E97" points="717.0668 270.492 714.0088 289.52 713.4998 315.873 704.8378 292.594"></polygon>
            <polygon id="Fill-15" fill="#E86E97" points="696.2817 301.783 707.1047 314.854 706.3667 333.566 700.5867 336.447 693.6997 319.124"></polygon>
            <path d="M701.6586,428.4915 L707.1046,457.8675 L702.3436,472.5555 C702.3436,472.0635 684.8796,461.1365 684.8796,461.1365 L679.4326,472.5555 L665.2896,457.8675 L666.7486,434.8345 L675.2516,406.9165 L701.6586,428.4915 Z" id="Fill-17" fill="#C81862"></path>
            <polygon id="Fill-19" fill="#E45D8C" points="699.8481 414.8933 706.1031 425.9793 701.6591 428.4913 675.2511 406.9163 676.9381 401.3303"></polygon>
            <polygon id="Fill-21" fill="#E86E97" points="697.6879 230.0125 704.8379 245.0875 701.6589 265.7305 691.9429 250.4985 682.8409 236.2495 686.9879 217.6615 690.0979 219.9285"></polygon>
            <path d="M702.3432,472.5559 L695.3162,494.2359 L665.2892,553.1809 L482.6572,674.2329 L521.7142,629.3429 L596.6992,578.1119 L661.7582,532.3259 L675.2512,499.2259 L664.4822,470.6589 L665.2892,457.8679 L679.4332,472.5559 L684.8792,461.1359 C684.8792,461.1359 702.3432,472.0639 702.3432,472.5559" id="Fill-23" fill="#E45D8C"></path>
            <path d="M514.7573,334.3738 L482.4473,332.0368 L449.7863,338.5028 L449.0663,346.1278 L448.4503,352.7868 L446.7293,371.1458 L462.7173,401.3998 L487.1913,413.6458 L498.0303,388.8208 L511.4883,390.2088 L544.1503,393.5818 L545.1523,418.0738 L562.9143,420.1118 L590.1993,404.8088 L595.3823,369.7928 L596.1023,365.0148 L596.6993,360.9378 L576.5133,346.9888 L527.2663,335.2698 L514.7573,334.3738 Z M696.2813,301.7828 L693.6993,319.1238 L685.7933,372.2698 L676.9383,401.3298 L675.2513,406.9168 L666.7483,434.8338 L609.6123,491.0558 L571.5233,520.5378 L528.9173,532.3258 L474.0493,519.1658 L445.0253,499.2258 L420.5513,469.3048 L404.2293,432.5678 L400.6803,425.2768 L381.5653,385.8688 L376.5753,332.3708 L382.0043,275.7628 L383.1633,263.6928 L385.0613,243.9098 L386.5363,228.5368 L385.4653,222.2648 L385.4833,222.2648 L403.5973,205.2578 L397.8523,237.1278 L392.4923,266.9078 L387.9073,340.5408 L407.4093,365.0148 L434.4843,365.0148 L434.4843,332.7228 L449.7863,314.0108 L499.9463,306.8778 L523.0143,315.3638 L530.9553,321.2678 L549.7733,317.4198 L566.7623,317.0678 L590.1993,326.2918 L608.2603,333.3898 L618.1163,360.9378 L611.0013,380.8268 L608.2603,388.4868 L627.3053,398.0098 L656.5403,383.7258 L675.2513,354.4728 L682.3673,310.1808 L691.9433,250.4988 L701.6583,265.7308 L696.2813,301.7828 Z" id="Fill-25" fill="#E34C82"></path>
            <polygon id="Fill-27" fill="#F2ACC4" points="697.6879 186.3181 697.6879 230.0121 690.0979 219.9281 686.9879 217.6611 677.6239 210.8621 671.7729 208.9291 675.2509 163.7061"></polygon>
            <polygon id="Fill-29" fill="#F7C7D8" points="697.6879 162.0022 697.6879 186.3182 675.2509 163.7062 649.5129 100.8092 618.8199 57.4482 633.7529 64.0712 675.2509 111.3502"></polygon>
            <polygon id="Fill-31" fill="#D11F69" points="695.3159 494.2356 672.6339 559.5226 637.4959 601.6886 528.6899 662.2146 448.4509 709.1426 482.6579 674.2326 665.2899 553.1806"></polygon>
            <path d="M681.3305,261.6199 L670.2625,253.1339 L676.9375,236.9349 L682.8415,236.2499 L691.9425,250.4979 L682.3675,310.1809 L682.3505,310.1809 L641.5895,321.1439 L601.0045,300.6409 L569.9415,275.9209 L576.5135,294.0699 L590.1995,326.2919 L566.7625,317.0679 L573.1215,306.4209 L558.1525,296.1079 L538.4395,300.6409 L527.2665,291.5749 L536.1745,263.6749 L536.6475,243.4879 L537.0695,225.2689 L535.3125,220.0339 L539.6875,217.6619 L549.8785,220.7359 L559.9625,245.3159 L562.9325,253.2219 L566.0945,261.6379 L572.8935,268.7529 L576.0735,272.0739 L598.2805,279.1009 L641.1325,281.8249 L651.4105,279.2059 L667.0825,294.0699 L659.2465,274.0409 L663.5675,269.3499 L676.9375,281.8249 L666.1505,263.0959 L668.2765,257.9479 C668.9975,258.1229 680.6105,261.4269 681.3305,261.6199" id="Fill-33" fill="#F3BACD"></path>
            <polygon id="Fill-35" fill="#E99FB6" points="682.3676 310.1809 675.2516 354.4729 656.5406 383.7259 627.3046 398.0099 608.2606 388.4869 611.0016 380.8269 635.2116 376.0659 664.0246 355.7559 682.3496 310.1809"></polygon>
            <polygon id="Fill-37" fill="#F2ACC4" points="682.35 310.1809 664.025 355.7559 635.211 376.0659 611.001 380.8269 618.117 360.9379 623.44 358.2149 623.44 329.8759 601.004 300.6409 641.589 321.1439"></polygon>
            <path d="M670.2621,253.1336 L681.3301,261.6196 C680.6111,261.4266 668.9971,258.1236 668.2771,257.9476 L670.2621,253.1336 Z" id="Fill-39" fill="#E99FB6"></path>
            <polygon id="Fill-41" fill="#E99FB6" points="666.1508 263.0955 676.9378 281.8245 663.5678 269.3505"></polygon>
            <polygon id="Fill-43" fill="#F3BACD" points="649.5131 100.8089 675.2511 163.7059 671.7731 208.9299 661.7231 205.6269 640.9041 190.5699 612.6351 182.9449 606.8901 181.3989 588.1971 181.3989 571.9271 194.7689 559.2951 195.4539 533.6791 191.8169 527.2481 189.7789 511.3491 171.8759 481.0771 161.6689 484.4861 116.5509 499.9461 63.5099 540.8651 39.9319 579.3591 39.9319 618.8201 57.4479"></polygon>
            <polygon id="Fill-45" fill="#F3BACD" points="402.56 443.4964 400.68 425.2764 404.229 432.5674 420.551 469.3054 445.025 499.2254 474.049 519.1664 528.917 532.3254 571.523 520.5374 609.613 491.0564 666.748 434.8344 665.289 457.8674 634.772 496.2734 605.871 523.2424 654.168 487.4364 664.482 470.6584 675.251 499.2254 661.758 532.3254 603.271 567.2354 512.139 584.0154 436.416 569.0454 412.838 542.7444 410.818 523.2424"></polygon>
            <polygon id="Fill-47" fill="#EC9CB7" points="665.8344 215.3953 668.7864 228.5373 664.0244 252.3433 653.6594 244.4723 635.2114 231.4883 622.1924 222.3343 596.6994 218.8033 621.2264 201.9373 637.7244 203.8343"></polygon>
            <polygon id="Fill-49" fill="#E99FB6" points="659.2465 274.0413 667.0825 294.0703 651.4105 279.2063 655.4165 278.1873"></polygon>
            <polygon id="Fill-51" fill="#EC92B0" points="665.2895 457.8674 664.4815 470.6584 654.1685 487.4364 605.8705 523.2424 634.7715 496.2734"></polygon>
            <polygon id="Fill-53" fill="#EC8EAD" points="664.0248 252.343 661.1968 258.369 639.8848 245.825 635.2118 231.489 653.6598 244.472"></polygon>
            <polygon id="Fill-55" fill="#E86E97" points="661.7231 205.6267 638.4091 197.9487 598.1581 194.1017 612.6351 182.9447 640.9041 190.5697"></polygon>
            <polygon id="Fill-57" fill="#EC9CB7" points="595.5756 240.7122 596.1896 240.9052 617.9406 242.9432 639.8856 245.8252 661.1966 258.3692 656.3646 268.6122 617.9406 262.0942 583.3646 248.4952 578.4106 235.4592"></polygon>
            <polygon id="Fill-59" fill="#F2ACC4" points="656.3647 268.6121 654.9597 271.6161 636.5987 276.8351 597.5957 273.4261 576.2847 265.5031 567.6757 251.4471 564.4607 234.8971 580.3787 254.1531 610.5267 264.8171"></polygon>
            <polygon id="Fill-61" fill="#F7C7D8" points="639.8852 245.825 617.9412 242.944 620.8402 239.799 620.8052 235.248"></polygon>
            <polygon id="Fill-63" fill="#E99FB6" points="623.4399 329.8762 623.4399 358.2152 618.1169 360.9382 608.2599 333.3902 576.5129 294.0702 569.9419 275.9212 601.0039 300.6412"></polygon>
            <polygon id="Fill-65" fill="#EC8EAD" points="621.226 201.9373 596.7 218.8033 578.411 222.3343 564.46 234.8963 562.914 226.9563 563.828 208.8243 571.98 201.1113 594.205 198.8453"></polygon>
            <polygon id="Fill-67" fill="#FDF8F8" points="615.4809 237.7078 614.1279 240.0448 610.2979 240.9058 608.4189 237.8488 611.6509 236.2318"></polygon>
            <path d="M598.0522,229.5911 L614.0402,231.4881 L620.8052,235.2481 L620.8402,239.7991 L617.9412,242.9441 L596.1902,240.9051 L595.5752,240.7121 L594.8202,234.2641 L598.0522,229.5911 Z M615.4812,237.7081 L611.6512,236.2321 L608.4182,237.8481 L610.2982,240.9051 L614.1282,240.0451 L615.4812,237.7081 Z" id="Fill-69" fill="#D04074"></path>
            <polygon id="Fill-71" fill="#EC9CB7" points="612.6352 182.9446 598.1572 194.1016 594.6972 193.7676 593.2912 193.6266 571.9272 194.7686 588.1972 181.3986 606.8902 181.3986"></polygon>
            <polygon id="Fill-73" fill="#EC8EAD" points="576.5131 294.0701 608.2601 333.3901 590.2001 326.2921"></polygon>
            <polygon id="Fill-75" fill="#F7C7D8" points="603.2709 567.2356 661.7579 532.3256 596.6999 578.1116 521.7139 629.3426 482.6579 674.2326 391.2809 576.3196 400.6799 537.7726 410.8179 523.2426 412.8379 542.7446 436.4169 569.0456 512.1389 584.0146"></polygon>
            <polygon id="Fill-77" fill="#E86E97" points="596.6996 218.8035 622.1926 222.3345 603.6576 223.0555 587.0016 226.9555 564.4606 234.8965 578.4106 222.3345"></polygon>
            <polygon id="Fill-79" fill="#EC8EAD" points="587.0014 226.9558 603.6574 223.0558 622.1924 222.3348 635.2114 231.4888 639.8854 245.8248 620.8054 235.2478 614.0404 231.4888 598.0524 229.5908 578.4104 235.4588 583.3644 248.4958 617.9404 262.0938 656.3644 268.6118 610.5264 264.8168 580.3784 254.1528 564.4604 234.8968"></polygon>
            <polygon id="Fill-81" fill="#F7C7D8" points="598.0522 229.5911 594.8202 234.2641 595.5752 240.7121 578.4102 235.4591"></polygon>
            <polygon id="Fill-83" fill="#D04074" points="641.1323 281.8245 598.2803 279.1005 576.0733 272.0735 572.8943 268.7525 576.2843 265.5025 597.5963 273.4265 636.5993 276.8345 654.9593 271.6165 656.3643 268.6125 661.1963 258.3695 664.0253 252.3435 668.7863 228.5365 665.8343 215.3955 637.7243 203.8345 621.2263 201.9375 594.2043 198.8455 594.6963 193.7675 598.1573 194.1015 638.4083 197.9495 661.7233 205.6265 671.7733 208.9295 677.6233 210.8625 686.9873 217.6615 682.8413 236.2495 676.9383 236.9345 670.2623 253.1335 668.2773 257.9475 666.1513 263.0955 663.5683 269.3505 659.2463 274.0415 655.4163 278.1875 651.4103 279.2065"></polygon>
            <polygon id="Fill-85" fill="#EC8EAD" points="596.6996 360.9383 596.1016 365.0143 596.0846 365.0143 580.8866 358.0393 573.3146 356.7393 562.0176 354.8073 557.5726 354.0513 550.1236 352.7863 545.1516 351.9253 544.1676 351.8553 536.4896 351.3453 528.4436 350.8183 519.3426 350.2213 516.9536 350.0633 514.7576 334.3743 527.2656 335.2703 576.5126 346.9883"></polygon>
            <polygon id="Fill-87" fill="#D04074" points="596.0844 365.0144 596.1024 365.0144 595.3824 369.7934 575.6164 373.6934 580.8874 358.0394"></polygon>
            <polygon id="Fill-89" fill="#F2ACC4" points="595.3823 369.7932 590.1993 404.8092 562.9143 420.1112 545.1523 418.0732 544.1503 393.5822 511.4883 390.2092 512.0163 385.0782 553.6733 387.4682 571.5233 380.8272"></polygon>
            <polygon id="Fill-91" fill="#D04074" points="527.2485 189.7791 533.6795 191.8171 559.2955 195.4541 571.9275 194.7691 593.2915 193.6271 594.6965 193.7671 594.2045 198.8451 571.9795 201.1121 563.8275 208.8241 562.9145 226.9561 564.4605 234.8971 567.6755 251.4471 562.9325 253.2211 559.9625 245.3161 554.3055 211.7761 536.1745 209.2811 528.3385 223.8281 513.9485 250.5331 507.9045 255.6461 505.1115 252.3431 518.9385 228.5371 525.0525 208.8241 525.0525 197.9491 503.3025 187.5131 504.8305 182.6641"></polygon>
            <polygon id="Fill-93" fill="#D04074" points="567.6752 251.447 576.2842 265.503 572.8942 268.753 566.0942 261.637 562.9322 253.221"></polygon>
            <polygon id="Fill-95" fill="#E45D8C" points="573.3149 356.7395 580.8869 358.0395 575.6169 373.6935 568.5369 374.7825 571.5229 367.0525 575.1069 360.9385 573.3149 356.7575"></polygon>
            <polygon id="Fill-97" fill="#EC8EAD" points="573.1215 306.4212 566.7625 317.0682 549.7725 317.4202 530.9555 321.2672 523.0145 315.3642 499.9455 306.8782 486.7515 299.9562 485.2235 293.7362 488.5435 292.9282 502.4935 298.0232 506.1305 303.4692 521.5385 308.9162 532.0805 310.1812 546.2585 307.3172 565.0755 309.3552 560.9815 304.3832"></polygon>
            <polygon id="Fill-99" fill="#EC8EAD" points="571.5229 380.8269 553.6729 387.4679 512.0159 385.0779 517.4619 375.5559 531.7819 374.7299"></polygon>
            <polygon id="Fill-101" fill="#EC92B0" points="566.7621 368.9148 564.3901 375.3098 564.4081 375.4328 563.5811 375.5558 562.0181 374.6068"></polygon>
            <polygon id="Fill-103" fill="#E45D8C" points="562.018 354.8069 573.315 356.7399 573.315 356.7569 575.107 360.9379 571.523 367.0529 570.856 363.1519 567.798 364.2589 567.798 360.4289 565.584 358.8119 562.018 360.4289 562.018 354.8249"></polygon>
            <polygon id="Fill-105" fill="#E34C82" points="560.9819 304.3831 565.0759 309.3551 546.2579 307.3171 555.2019 303.4691"></polygon>
            <polygon id="Fill-107" fill="#EC8EAD" points="558.1528 296.1082 573.1218 306.4212 560.9818 304.3832 555.2018 303.4692 546.2578 307.3172 532.0808 310.1812 521.5388 308.9162 509.6438 298.0232 502.4938 298.0232 488.5438 292.9282 494.0078 278.1872 512.0158 291.7862 527.2658 291.5752 538.4398 300.6412"></polygon>
            <path d="M564.3901,375.3098 L566.7621,368.9148 L562.0181,374.6068 L557.4681,371.8138 L548.0681,369.7928 L540.3201,367.6148 C540.3021,367.2278 539.4591,359.4448 539.4591,359.4448 L539.7411,355.7558 L544.1671,351.8548 L545.1521,351.9258 L550.1231,352.7868 L551.3891,358.0388 L557.5731,354.0508 L562.0181,354.8068 L562.0181,354.8248 L562.0181,360.4288 L565.5841,358.8118 L567.7981,360.4288 L567.7981,364.2588 L570.8561,363.1518 L571.5231,367.0528 L568.5361,374.7828 L564.4081,375.4328 L564.3901,375.3098 Z" id="Fill-109" fill="#F3BACD"></path>
            <polygon id="Fill-111" fill="#F2B0C7" points="560.3139 376.0657 563.5819 375.5557 564.4079 375.4327 568.5369 374.7827 575.6169 373.6937 595.3819 369.7937 571.5229 380.8267 531.7819 374.7307 542.8149 374.0807 542.8329 374.0807"></polygon>
            <polygon id="Fill-113" fill="#E45D8C" points="557.5727 354.0511 551.3887 358.0391 550.1237 352.7861"></polygon>
            <polygon id="Fill-115" fill="#E45D8C" points="544.1674 351.8553 539.7404 355.7553 536.4894 351.3453"></polygon>
            <polygon id="Fill-117" fill="#F2ACC4" points="540.8647 39.9314 499.9457 63.5094 484.4857 116.5504 481.0767 161.6684 444.6907 165.0774 429.2297 175.6004 413.0667 176.6374 418.8467 115.4264 449.7867 78.6894 474.6117 59.3104 518.4817 39.9314"></polygon>
            <path d="M540.3198,367.6145 L538.3178,367.0525 L539.4598,359.4455 C539.4598,359.4455 540.3018,367.2285 540.3198,367.6145" id="Fill-119" fill="#EC92B0"></path>
            <polygon id="Fill-121" fill="#F3BACD" points="536.4897 351.3455 539.7407 355.7555 539.4597 359.4455 538.3177 367.0525 538.3177 371.0235 523.4187 369.8815 523.4187 355.7555 528.4437 350.8185"></polygon>
            <path d="M530.2709,257.7898 L536.6479,243.4878 L536.1739,263.6748 L527.2659,291.5748 L512.0159,291.7858 L494.0079,278.1868 C494.0079,278.1868 510.3299,270.9318 511.3489,270.2288 L512.0159,264.8168 L530.2709,257.7898 Z" id="Fill-123" fill="#E99FB6"></path>
            <polygon id="Fill-125" fill="#EC8EAD" points="528.3383 223.8284 536.1743 209.2814 554.3053 211.7754 559.9623 245.3154 549.8783 220.7364 539.6883 217.6614 535.3133 220.0334"></polygon>
            <polygon id="Fill-127" fill="#E45D8C" points="528.4438 350.8186 523.4188 355.7556 521.7668 353.5246 519.3418 350.2206"></polygon>
            <polygon id="Fill-129" fill="#EC9CB7" points="511.3491 171.8762 527.2481 189.7792 504.8301 182.6642 491.5131 178.4472 488.5431 178.1662"></polygon>
            <polygon id="Fill-131" fill="#EC8EAD" points="525.0522 197.949 525.0522 208.824 518.9392 228.537 494.0082 243.488 465.9492 240.906 440.7902 239.711 427.4912 243.488 421.0082 234.897 443.8482 228.537 474.6992 233.755 496.7132 231.559 506.2362 225.269 506.2362 214.13 506.2362 205.627 480.2512 183.964 503.3022 187.513"></polygon>
            <polygon id="Fill-133" fill="#EC92B0" points="523.4184 355.7556 523.4184 369.8806 522.3294 369.7936 521.2044 369.8456 521.7144 353.5596 521.7674 353.5246"></polygon>
            <polygon id="Fill-135" fill="#E34C82" points="521.5385 308.9158 506.1305 303.4698 502.4935 298.0228 509.6435 298.0228"></polygon>
            <polygon id="Fill-137" fill="#D04074" points="523.4184 369.8811 538.3174 371.0231 538.3174 367.0521 540.3194 367.6141 548.0674 369.7931 557.4684 371.8141 562.0184 374.6071 563.5814 375.5561 560.3144 376.0661 542.8324 374.0801 542.8144 374.0801 519.8524 371.4801 513.4914 370.2501 521.2044 369.8461 522.3294 369.7931"></polygon>
            <polygon id="Fill-139" fill="#F3BACD" points="519.3422 350.221 521.7672 353.524 521.7142 353.559 521.2042 369.846 513.4912 370.25 506.4992 368.915 506.4992 368.897 506.4992 364.083 507.5192 354.825 512.0162 348.658 516.9532 350.063"></polygon>
            <polygon id="Fill-141" fill="#EC8EAD" points="518.9389 228.5369 505.1119 252.3429 489.9149 256.6479 463.6299 254.6099 429.3879 246.0009 427.4909 243.4879 440.7909 239.7109 465.9499 240.9059 494.0079 243.4879"></polygon>
            <polygon id="Fill-143" fill="#E86E97" points="531.7817 374.7303 517.4627 375.5563 512.0157 385.0783 476.1397 377.5943 448.4507 352.7863 449.0657 346.1273 449.0837 346.1273 468.1637 357.0203 480.2337 365.8753 482.4297 366.0333 487.8057 366.4023 496.8887 367.0523 506.4997 368.8973 506.4997 368.9153 513.4917 370.2503 519.8517 371.4803 542.8147 374.0803"></polygon>
            <polygon id="Fill-145" fill="#E86E97" points="514.7573 334.3738 516.9533 350.0628 512.0163 348.6578 487.0323 341.5598 481.4813 342.1038 468.1633 343.4218 449.0833 346.1278 449.0663 346.1278 449.7863 338.5028 482.4473 332.0368"></polygon>
            <path d="M512.0161,264.8172 L511.3491,270.2292 C510.3301,270.9312 494.0081,278.1872 494.0081,278.1872 L488.5431,292.9282 L485.2231,293.7362 L484.0291,288.8522 L486.0841,281.8242 L488.5431,273.4262 L512.0161,264.8172 Z" id="Fill-147" fill="#EC8EAD"></path>
            <polygon id="Fill-149" fill="#EC8EAD" points="512.0161 385.0784 511.4891 390.2084 498.0311 388.8204 487.1911 413.6454 462.7171 401.4004 446.7291 371.1464 448.4511 352.7864 476.1401 377.5944"></polygon>
            <polygon id="Fill-151" fill="#E86E97" points="511.3491 171.8762 488.5431 178.1662 448.4331 174.3712 429.2301 175.6012 444.6911 165.0772 481.0771 161.6682"></polygon>
            <polygon id="Fill-153" fill="#D04074" points="505.1118 252.343 507.9048 255.646 500.8068 261.637 489.9148 261.637 489.9148 256.648"></polygon>
            <polygon id="Fill-155" fill="#EC92B0" points="507.519 354.8245 506.499 364.0835 503.881 363.9605 505.604 351.3635"></polygon>
            <polygon id="Fill-157" fill="#E86E97" points="506.2358 214.1302 506.2358 225.2692 487.3138 214.1302 481.0768 210.4582 491.4428 203.3782"></polygon>
            <polygon id="Fill-159" fill="#EC9CB7" points="506.2358 205.6267 506.2358 214.1297 491.4428 203.3777 471.4488 201.6207 441.6338 213.3567 419.2858 222.3347 418.3728 215.6937 445.7108 201.1117 440.2818 181.3987 463.6308 181.3987 480.2518 183.9637"></polygon>
            <polygon id="Fill-161" fill="#F7C7D8" points="506.2358 225.2688 486.0848 223.9158 488.5438 220.0338 487.3138 214.1298"></polygon>
            <polygon id="Fill-163" fill="#F3BACD" points="505.604 351.3455 505.604 351.3635 503.881 363.9605 497.996 363.6615 487.806 366.4025 486.945 349.3775 490.353 346.1455 496.291 351.1695 498.171 348.0955 504.11 348.6575"></polygon>
            <polygon id="Fill-165" fill="#D04074" points="503.8813 363.9602 506.4993 364.0832 506.4993 368.8972 496.8893 367.0522 487.8063 366.4022 497.9953 363.6612"></polygon>
            <polygon id="Fill-167" fill="#EC8EAD" points="500.8071 261.6375 487.8761 268.6125 456.9371 266.2405 425.9271 274.5505 424.6271 274.9025 407.4101 284.9335 421.2361 267.0835 442.4421 255.5055 471.3261 261.6375 489.9141 261.6375"></polygon>
            <polygon id="Fill-169" fill="#E86E97" points="499.9458 306.8782 449.7868 314.0112 484.0288 288.8522 485.2228 293.7362 486.7518 299.9562"></polygon>
            <polygon id="Fill-171" fill="#D04074" points="489.9145 256.6477 489.9145 261.6377 471.3255 261.6377 442.4415 255.5057 430.7585 253.0287 426.5775 250.2697 429.3885 246.0007 463.6305 254.6097"></polygon>
            <polygon id="Fill-173" fill="#F2ACC4" points="512.0161 264.8172 488.5431 273.4262 487.8761 268.6122 500.8071 261.6372 507.9051 255.6462 513.9491 250.5332 528.3381 223.8282 535.3131 220.0332 537.0701 225.2692 536.6481 243.4882 530.2711 257.7902"></polygon>
            <polygon id="Fill-175" fill="#F3BACD" points="487.8764 268.6121 488.5434 273.4261 462.2604 285.8471 438.2264 298.0231 425.9274 274.5501 456.9374 266.2401"></polygon>
            <polygon id="Fill-177" fill="#F3BACD" points="486.9448 349.3777 487.8058 366.4027 482.4298 366.0337 481.4988 352.3297 484.3448 345.9517"></polygon>
            <polygon id="Fill-179" fill="#E45D8C" points="490.353 346.1453 486.945 349.3773 484.345 345.9523 481.499 342.2093 481.481 342.1043 487.033 341.5593 512.016 348.6573 507.519 354.8243 505.604 351.3633 505.604 351.3453 504.11 348.6573 498.171 348.0953 496.291 351.1693"></polygon>
            <polygon id="Fill-181" fill="#E45D8C" points="484.3452 345.9519 481.4982 352.3289 482.4302 366.0339 480.2342 365.8749 468.1632 357.0199 468.1632 343.4219 481.4812 342.1039 481.4982 342.2099"></polygon>
            <polygon id="Fill-183" fill="#EC8EAD" points="442.5473 305.4021 486.0843 281.8241 484.0283 288.8521 449.7863 314.0111 434.4843 332.7221"></polygon>
            <polygon id="Fill-185" fill="#FDF8F8" points="483.8003 217.8723 483.3433 221.4033 479.0913 221.4033 476.7203 219.6463 479.4433 216.6423"></polygon>
            <path d="M487.3139,214.1302 L488.5429,220.0332 L486.0849,223.9162 L478.1609,223.3892 L463.0509,220.9122 L463.0509,215.9042 L465.9499,210.4582 L481.0769,210.4582 L487.3139,214.1302 Z M483.3429,221.4032 L483.7999,217.8722 L479.4429,216.6422 L476.7199,219.6472 L479.0909,221.4032 L483.3429,221.4032 Z" id="Fill-187" fill="#D04074"></path>
            <polygon id="Fill-189" fill="#F3BACD" points="478.354 717.5403 481.762 729.9973 471.097 739.2913 458.87 737.7103 453.879 726.8343 457.956 716.8553 466.108 712.3223"></polygon>
            <polygon id="Fill-191" fill="#D04074" points="468.1635 343.4217 468.1635 357.0207 449.0835 346.1277"></polygon>
            <path d="M460.6792,844.9348 L467.7062,853.9998 C467.7062,853.9998 462.4892,867.1598 461.5752,867.1598 C460.6792,867.1598 449.3472,869.1978 449.3472,869.1978 L442.7582,862.3988 L442.7582,852.1908 L449.3472,844.9348 L460.6792,844.9348 Z" id="Fill-193" fill="#F3BACD"></path>
            <polygon id="Fill-195" fill="#F7C7D8" points="465.9497 210.4583 463.0517 215.9043 463.0517 220.9123 443.1627 217.6613 464.0697 210.4583"></polygon>
            <polygon id="Fill-197" fill="#E34C82" points="449.7866 78.6892 418.8476 115.4262 413.0666 176.6372 407.4096 177.7622 382.4616 204.5202 400.8206 129.0252 418.1616 97.0662"></polygon>
            <path d="M371.1284,575.3879 L448.4504,709.1429 L423.2744,849.2399 L413.9804,964.4059 L400.6804,964.4059 C398.1144,960.7859 410.3434,849.9239 410.3434,849.9239 L437.5584,709.1429 L372.9394,601.6889 L345.2844,517.9719 L352.1894,515.2309 L371.1284,575.3879 Z" id="Fill-199" fill="#D11F69"></path>
            <polygon id="Fill-201" fill="#E86E97" points="440.2817 181.3987 445.7107 201.1117 418.3727 215.6937 417.8277 211.7757 419.1977 197.9487 421.2357 189.3227 431.8837 181.3987"></polygon>
            <polygon id="Fill-203" fill="#EC8EAD" points="419.2856 222.3347 441.6346 213.3567 471.4486 201.6207 491.4426 203.3777 481.0766 210.4587 465.9496 210.4587 464.0696 210.4587 443.1626 217.6617 420.3406 230.0127"></polygon>
            <path d="M372.9389,601.6887 L437.5579,709.1427 L410.3429,849.9237 C410.3429,849.9237 398.1149,960.7867 400.6799,964.4057 L0.2429,964.4057 L70.0809,744.0517 L158.9459,625.2667 L226.0429,565.4257 L345.2849,517.9717 L372.9389,601.6887 Z" id="Fill-205" fill="#D94178"></path>
            <polygon id="Fill-207" fill="#D04074" points="427.4907 243.4881 429.3877 246.0011 426.5777 250.2701 422.8527 247.8101 420.0947 246.0011 419.4787 244.3321 418.2147 240.9051 416.5977 236.5131 421.0087 234.8971"></polygon>
            <polygon id="Fill-209" fill="#EC8EAD" points="422.853 247.8103 409.237 256.6473 419.479 244.3313 420.094 246.0003"></polygon>
            <polygon id="Fill-211" fill="#EC9CB7" points="443.8481 228.5369 421.0081 234.8969 420.3401 230.0129 443.1621 217.6619 463.0511 220.9119 478.1611 223.3889 486.0841 223.9159 506.2361 225.2689 496.7131 231.5589 474.7001 233.7549"></polygon>
            <polygon id="Fill-213" fill="#D04074" points="429.2299 175.6009 448.4329 174.3709 488.5429 178.1659 491.5129 178.4469 504.8309 182.6639 503.3019 187.5129 480.2509 183.9639 463.6299 181.3989 440.2819 181.3989 431.8829 181.3989 421.2359 189.3229 419.1979 197.9489 417.8279 211.7759 418.3729 215.6939 419.2859 222.3349 420.3399 230.0129 421.0079 234.8969 416.5979 236.5139 416.4399 236.0919 414.9289 231.9799 414.2089 230.0129 413.8749 225.2689 412.3809 204.2909 409.2189 199.9869 405.5999 203.3779 407.4099 177.7619 413.0669 176.6379"></polygon>
            <polygon id="Fill-215" fill="#E99FB6" points="416.4399 236.0916 403.7199 246.6856 418.2139 240.9056 419.4789 244.3316 409.2369 256.6476 422.8529 247.8106 426.5779 250.2696 430.7579 253.0286 442.4419 255.5056 421.2359 267.0836 407.4099 284.9336 424.6279 274.9026 425.9269 274.5506 438.2259 298.0236 462.2599 285.8476 488.5439 273.4256 486.0849 281.8246 442.5469 305.4026 434.4839 332.7226 434.4839 365.0146 407.4099 365.0146 387.9079 340.5406 392.4929 266.9076 397.8519 237.1286 401.8389 237.8486 414.9289 231.9806"></polygon>
            <polygon id="Fill-217" fill="#EC8EAD" points="416.5981 236.5135 418.2141 240.9055 403.7201 246.6855 416.4401 236.0915"></polygon>
            <polygon id="Fill-219" fill="#EC8EAD" points="414.2085 230.0125 414.9295 231.9805 401.8395 237.8485 413.8745 225.2685"></polygon>
            <polygon id="Fill-221" fill="#C81862" points="402.56 443.4964 410.818 523.2424 400.68 537.7724 391.281 576.3194 373.922 557.7134 345.285 493.3224"></polygon>
            <polygon id="Fill-223" fill="#E86E97" points="407.4096 177.762 405.5996 203.378 403.5966 205.258 385.4826 222.265 385.4656 222.265 382.4616 204.52"></polygon>
            <polygon id="Fill-225" fill="#EC8EAD" points="403.5971 205.2576 405.6001 203.3776 409.2191 199.9866 412.3811 204.2916 413.8741 225.2686 401.8391 237.8486 397.8521 237.1286"></polygon>
            <polygon id="Fill-227" fill="#F1A9C1" points="386.5366 228.5369 385.0606 243.9099 380.5996 243.4879 371.7436 221.8609 376.5756 218.8039"></polygon>
            <polygon id="Fill-229" fill="#F1A9C1" points="385.061 243.9099 383.164 263.6929 372.851 277.2909 366.139 290.5559 363.346 290.1349 365.121 278.6439 380.599 243.4879"></polygon>
            <polygon id="Fill-231" fill="#E86E97" points="383.1635 263.6927 382.0045 275.7627 374.1505 294.4567 365.1205 303.4697 366.1395 290.5557 372.8505 277.2917"></polygon>
            <polygon id="Fill-233" fill="#F1A9C1" points="382.0044 275.763 376.5754 332.371 368.5284 334.409 358.3204 322.848 363.3464 290.135 366.1394 290.556 365.1204 303.47 374.1504 294.456"></polygon>
            <polygon id="Fill-235" fill="#E86E97" points="371.7436 221.8606 380.5986 243.4876 365.1206 278.6446 367.4386 224.5836"></polygon>
            <polygon id="Fill-237" fill="#E45D8C" points="345.2846 493.3225 373.9226 557.7135 391.2806 576.3195 482.6576 674.2325 448.4506 709.1425 371.1286 575.3875 352.1886 515.2305"></polygon>
        </g>
    </g>
</svg>