
<svg width="1081px" height="965px" viewBox="0 0 1081 965" version="1.1" xmlns="http://www.w3.org/2000/svg" xmlns:xlink="http://www.w3.org/1999/xlink">
    <g id="Page-1" stroke="none" stroke-width="1" fill="none" fill-rule="evenodd">
        <g id="Group-209">
            <polygon id="Path-2" fill="#D94178" points="330.10259 669.888215 351.814022 600.056401 747.34616 638.866078 868.668194 550.856591 889.660024 567.970583 733.819095 964.854616 576.863134 964.854616"></polygon>
            <polygon id="Fill-2" fill="#C81862" points="1028.12492 787.909605 1046.76119 899.11959 1041.15528 964.831127 1041.15528 964.854616 1020.11149 964.854616 1020.11149 964.831127 1025.734 898.188315 983.647291 692.854616"></polygon>
            <polygon id="Fill-3" fill="#D94178" points="866.999092 550.847559 876.64318 562.190143 704.909202 857.451598 722.536141 896.648854 725.348272 937.733324 712.519782 937.733324 697.68837 902.332553 695.684574 861.248083 704.909202 857.451598 656.501752 799.387717 691.181494 896.011971 691.181494 964.854616 1020.11166 964.75674 1020.11166 964.731926 1025.7333 898.24244 983.647466 693.382533 1028.1251 788.21745 1046.76136 899.172951 1041.15545 964.731926 1041.15545 964.75674 1080.63277 964.731926 1080.83464 900.76378 1001.27353 673.147023 947.569523 614.985265 854.295566 535.854616"></polygon>
            <polygon id="Fill-4" fill="#C81862" points="876.643268 552.549305 704.909289 739.720291 752.308287 682.8948 752.308287 682.87907 866.999179 545.358185"></polygon>
            <polygon id="Fill-5" fill="#D94178" points="854.295392 535.854354 866.998917 545.358622 752.308024 682.878634 742.384296 600.056226 742.384296 545.342892 754.202586 496.453937 724.059131 453.062532 765.41528 475.006415 765.41528 491.841623 806.897268 500.460655"></polygon>
            <polygon id="Fill-6" fill="#C81862" points="724.058956 453.062357 754.202411 496.453762 742.384121 545.343591 733.811404 513.27324 726.652618 491.531222"></polygon>
            <polygon id="Fill-7" fill="#F1A9C1" points="752.308024 282.633598 752.308024 351.494974 742.384296 384.822831 742.384296 275.411893 745.661329 265.581669"></polygon>
            <polygon id="Fill-8" fill="#E03F7B" points="742.383947 545.343241 742.383947 600.055702 736.762307 620.975403 700.794472 641.227464 651.501787 648.13807 609.771619 645.311083 570.852707 600.646441 612.738425 609.467339 673.60122 609.467339 733.81123 568.59182 733.81123 513.273765"></polygon>
            <polygon id="Fill-9" fill="#EC8EAD" points="742.383947 275.412155 742.383947 384.822219 731.155523 317.949784 725.595928 284.776603 725.254243 282.788536 725.254243 239.350816"></polygon>
            <polygon id="Fill-10" fill="#F3BACD" points="731.155785 317.949609 742.384209 384.822044 676.47391 488.719703 653.007736 500.461092 619.741924 494.404262 579.611822 464.492384 615.532467 464.492384 659.825711 464.492384 678.461977 434.425829 687.375505 425.403067 699.396534 405.27597 684.067887 367.941395 655.213398 345.749331 639.18565 313.41507 639.18565 286.532044 655.213398 293.598199 689.783031 293.598199"></polygon>
            <polygon id="Fill-11" fill="#C81862" points="736.762569 620.975228 742.384209 600.056401 752.307937 682.878808 752.307937 682.894538 704.909813 739.720029 733.128121 634.564863"></polygon>
            <polygon id="Fill-12" fill="#BE1F5F" points="736.762569 620.975228 733.128121 634.564863 707.099745 649.349086 662.015643 656.756927 619.741924 656.756927 609.771881 645.311782 651.502049 648.137895 700.794734 641.227289"></polygon>
            <path d="M733.811579,513.273503 L733.811579,568.592432 L673.601569,609.467077 L612.737901,609.467077 L570.852183,600.646179 L471.863082,484.417266 L471.863082,444.940822 L471.863082,432.919793 L495.950581,488.719354 L538.115065,534.115429 L606.137521,559.36693 L670.650492,559.36693 C670.650492,559.36693 725.596277,488.347957 726.652793,491.530611 L733.811579,513.273503 Z" id="Fill-13" fill="#F2ACC4"></path>
            <polygon id="Fill-15" fill="#D11F69" points="733.128034 634.564688 704.909726 739.719854 619.741837 656.757626 662.015556 656.757626 707.099657 649.348911"></polygon>
            <polygon id="Fill-17" fill="#F3BACD" transform="translate(710.515898, 879.854616) rotate(23.000000) translate(-710.515898, -879.854616) " points="722.53649 879.31435 725.347747 902.854616 712.519257 902.854616 697.687845 882.570952 695.684049 859.029896 704.909551 856.854616"></polygon>
            <polygon id="Fill-19" fill="#F1A9C1" points="721.744584 285.4293 707.658588 278.176135 715.03497 271.80908 715.03497 254.679375 715.03497 244.150052 707.642858 236.19866 707.642858 163.299107 690.389064 123.014328 725.254942 173.518205 725.254942 239.350728 725.254942 282.789323 725.595753 284.776515"></polygon>
            <path d="M724.058956,453.062357 L726.652618,491.531222 C725.596103,488.347695 670.650318,559.366668 670.650318,559.366668 L606.137346,559.366668 L595.545977,539.736807 L655.21331,539.736807 L696.088828,510.073983 L723.74873,448.559277 L724.058956,453.062357 Z" id="Fill-21" fill="#EC92B0"></path>
            <polygon id="Fill-23" fill="#E45D8C" points="723.748381 448.559015 696.089353 510.074595 655.212961 539.736545 595.545627 539.736545 606.13787 559.36728 538.115415 534.114905 495.950931 488.719703 471.863431 432.920142 518.142994 493.643117 582.469831 521.302145 655.81943 521.302145"></polygon>
            <polygon id="Fill-25" fill="#E97EA1" points="721.744584 285.4293 703.94724 281.375393 707.642858 278.176135 707.658588 278.176135"></polygon>
            <polygon id="Fill-27" fill="#E86E97" points="715.035232 254.679375 715.035232 271.80908 697.299932 247.519715 679.564632 239.040503 662.123829 239.040503 633.424015 247.45767 622.956737 247.45767 641.080911 227.625943 659.716302 223.12199 683.617666 223.12199 707.643121 240.251694"></polygon>
            <polygon id="Fill-29" fill="#F0ABC2" points="697.299932 247.51989 715.035232 271.809254 676.054275 257.381573 659.623671 257.381573 658.086525 257.785303 628.097745 265.581145 633.424015 247.457845 662.123829 239.039804 679.564632 239.039804"></polygon>
            <polygon id="Fill-31" fill="#F1A9C1" points="703.947065 281.375742 721.74441 285.42965 725.595578 284.776865 731.156047 317.950046 689.783294 293.597763 695.032663 289.063223 700.142212 284.668504 709.31965 287.137202 701.601583 283.410124"></polygon>
            <polygon id="Fill-33" fill="#E97EA1" points="709.32 287.137377 700.141687 284.667805 701.601933 283.410299"></polygon>
            <polygon id="Fill-35" fill="#F7C7D8" points="707.643121 163.299281 707.643121 236.197961 695.498875 223.122165 683.617666 223.122165 659.716302 223.122165 641.080911 227.625244 612.737639 234.132994 622.956737 247.457845 620.953815 260.083595 620.953815 319.906478 630.861813 327.376364 630.861813 345.748719 613.282063 350.858268 597.502496 346.354315 588.976969 327.70232 597.502496 319.595379 597.502496 310.277246 597.502496 260.083595 597.797866 219.907177 554.825047 231.833828 521.156379 231.833828 497.239285 240.74823 497.239285 171.421079 505.921236 150.580026 591.491982 132.937357 595.048654 131.182616 601.121214 128.169493 608.529055 124.50446 616.309167 120.653292 654.017761 101.985567 690.389326 123.013629"></polygon>
            <polygon id="Fill-37" fill="#F1A9C1" points="707.643121 236.198311 715.035232 244.149702 715.035232 254.679026 707.643121 240.251344 683.617666 223.12164 695.498875 223.12164"></polygon>
            <polygon id="Fill-39" fill="#D94178" points="704.909639 739.719854 656.501315 702.913099 656.501315 702.897369 600.049843 659.97174 416.746629 556.758325 390.297918 521.302582 444.001926 488.719266 444.001926 467.195717 471.862819 444.940734 471.862819 484.418052 570.852794 600.646092 609.771706 645.311607 619.741749 656.756752"></polygon>
            <polygon id="Fill-41" fill="#F1A9C1" points="703.947065 281.375742 701.601583 283.410124 691.585225 278.564485"></polygon>
            <polygon id="Fill-43" fill="#E97EA1" points="701.601933 283.410211 700.141687 284.667718 684.829644 280.536909 691.5847 278.564573"></polygon>
            <polygon id="Fill-45" fill="#F2ACC4" points="684.068062 367.941395 699.396709 405.27597 687.37568 425.403067 687.37568 409.406779 674.145207 378.672584 655.212698 356.355556 655.212698 345.748457"></polygon>
            <polygon id="Fill-47" fill="#F1A9C1" points="694.287509 288.193455 695.032925 289.062961 689.783556 293.598374 655.213048 293.598374 639.185301 286.532218 639.185301 280.381884 676.100416 283.083906"></polygon>
            <polygon id="Fill-49" fill="#E97EA1" points="694.287509 288.193455 676.100416 283.083906 681.909939 281.39121"></polygon>
            <polygon id="Fill-51" fill="#FDF8F8" points="692.283713 270.209451 675.448505 275.940325 679.067223 271.607651 679.067223 264.028531"></polygon>
            <polygon id="Fill-53" fill="#C81862" points="691.181145 764.164506 691.181145 807.804092 682.453752 807.804092 682.453752 770.982481 643.176551 710.460498 598.295189 675.999225 468.446054 630.713258 349.003901 606.268343 365.418775 564.833545 365.418775 564.818689 379.784412 556.540468 368.648619 593.844458 466.721898 614.670655 600.04993 659.972351 656.501402 702.897981 656.501402 702.912837"></polygon>
            <polygon id="Fill-55" fill="#F2ACC4" points="687.375854 409.406954 687.375854 425.403242 678.462326 434.426004 678.462326 412.776617 667.046893 413.709042 667.839498 412.776617 649.497729 409.406954 626.963106 409.406954 630.861463 396.051517 619.7414 363.934851 644.699279 363.934851 655.212873 356.355731 674.144508 378.672759"></polygon>
            <polygon id="Fill-57" fill="#F1A9C1" points="684.829294 280.537259 700.141338 284.668068 695.032663 289.062787 694.287247 288.193281 681.909677 281.391035"></polygon>
            <polygon id="Fill-59" fill="#D94178" points="682.45349 906.665636 682.45349 964.683881 375.373701 964.780263 351.814022 865.628643 357.808807 964.780263 330.10259 964.806424 274.007659 741.469847 311.249603 964.806424 244.205015 964.829832 244.205015 964.12073 218.953513 831.518811 231.579264 964.12073 231.579264 964.829832 136.999738 964.854616 161.848383 832.791063 222.758367 711.543024 365.418513 581.854616 349.003639 647.140115 468.445792 685.654635 598.294927 757.00949 643.177163 811.305986"></polygon>
            <polygon id="Fill-62" fill="#F3BACD" points="664.624336 416.520037 678.462151 434.425742 659.825886 464.492296 641.081261 434.425742 656.719259 425.714079"></polygon>
            <polygon id="Fill-64" fill="#E99FB6" points="676.473735 488.719703 742.384034 384.822044 723.748643 448.559015 655.818818 521.302145"></polygon>
            <polygon id="Fill-66" fill="#F2ACC4" points="676.473735 488.719703 655.818818 521.302145 619.741749 494.404262 653.007561 500.461092"></polygon>
            <polygon id="Fill-68" fill="#FDF8F8" points="672.249422 266.000955 672.249422 270.535494 669.034435 269.603943 669.034435 265.799089 671.146592 264.012888"></polygon>
            <path d="M659.017552,261.388378 L673.446107,261.388378 L679.066873,264.012626 L679.066873,264.028356 L679.066873,271.607476 L675.449029,275.94015 L658.81656,275.10123 L655.212698,267.895254 L656.610899,262.941255 L659.017552,261.388378 Z M672.249772,266.000692 L671.146941,264.012626 L669.034784,265.798827 L669.034784,269.60368 L672.249772,270.535231 L672.249772,266.000692 Z" id="Fill-70" fill="#D04074"></path>
            <polygon id="Fill-72" fill="#E99FB6" points="664.624336 416.520037 667.031862 413.70878 667.046718 413.70878 678.462151 412.777229 678.462151 434.425742"></polygon>
            <polygon id="Fill-74" fill="#E97EA1" points="667.031775 413.708955 664.624248 416.520211 656.719172 425.71338 641.081173 434.425917 603.109543 431.615534 588.976357 423.601223 627.165583 423.601223 642.788726 419.702865 655.213485 415.417381"></polygon>
            <polygon id="Fill-76" fill="#F3BACD" points="641.080911 434.425917 659.825537 464.492471 615.533166 464.492471 626.963455 449.148968 614.49238 436.677894"></polygon>
            <polygon id="Fill-78" fill="#E97EA1" points="659.623497 257.38166 676.054974 257.38166 715.035057 271.809342 707.658675 278.176397 707.642946 278.176397 703.947327 281.375655 691.584613 278.564398 684.829557 280.537608 681.909939 281.391385 676.100416 283.084081 639.185301 280.382059 639.185301 274.107634 658.816036 275.10123 675.448505 275.94015 692.283713 270.209276 679.067223 264.028356 679.067223 264.012626 673.445583 261.388378 659.017901 261.388378 658.08635 257.78539"></polygon>
            <polygon id="Fill-80" fill="#E97EA1" points="658.086525 257.785303 659.017202 261.388291 656.611423 262.941168 639.185475 274.107546 628.097745 265.581145"></polygon>
            <polygon id="Fill-82" fill="#FDF8F8" points="655.213135 267.895516 658.816123 275.101492 639.185388 274.107896 656.611336 262.941517"></polygon>
            <polygon id="Fill-84" fill="#EC8EAD" points="630.861551 327.37619 620.953552 319.906303 620.953552 260.084294 628.097483 265.581844 639.185213 274.107372 639.185213 280.381796 639.185213 286.532131 639.185213 313.414284 655.212961 345.748545"></polygon>
            <polygon id="Fill-86" fill="#EF9AB6" points="655.213135 345.748894 630.861726 345.748894 630.861726 327.376539"></polygon>
            <polygon id="Fill-88" fill="#E86E97" points="649.497991 409.406954 667.838886 412.776617 667.047155 413.709042 667.031425 413.709042 653.908439 413.693312 626.652268 421.194658 588.588007 421.194658 602.317462 415.417468 620.348132 413.693312 626.963368 409.406954"></polygon>
            <polygon id="Fill-90" fill="#E34C82" points="643.487476 349.584945 643.487476 355.37699 623.34465 359.275348 633.051657 349.584945"></polygon>
            <polygon id="Fill-92" fill="#F1A9C1" points="641.080911 227.625506 622.956737 247.457233 612.737639 234.132382"></polygon>
            <polygon id="Fill-94" fill="#EC8EAD" points="633.424278 247.457582 628.097134 265.581757 620.953203 260.084207 622.956125 247.457582"></polygon>
            <path d="M630.861551,345.748894 L655.212961,345.748894 L655.212961,356.355993 L644.699367,363.935113 L619.741487,363.935113 L615.393958,368.903969 L611.47987,365.502846 L613.886523,362.737904 L630.861551,345.748894 Z M643.487301,349.585207 L633.051482,349.585207 L623.344475,359.27561 L643.487301,355.377252 L643.487301,349.585207 Z" id="Fill-96" fill="#EB88A9"></path>
            <polygon id="Fill-98" fill="#EF9AB6" points="630.861551 345.748894 613.886523 362.737904 597.503108 346.353616 613.281801 350.858443"></polygon>
            <polygon id="Fill-100" fill="#E99FB6" points="619.741837 363.934764 630.8619 396.05143 626.963543 409.406866 620.347432 413.693225 621.946624 402.869405 621.946624 394.451364 615.393433 368.904493"></polygon>
            <polygon id="Fill-102" fill="#F3BACD" points="626.963193 449.148706 615.532904 464.493083 579.611385 464.493083 557.823051 452.161828 532.275306 425.713992 546.610357 425.512126 581.413316 443.542796 581.413316 431.817137 591.492594 436.677631 614.492118 436.677631"></polygon>
            <polygon id="Fill-104" fill="#F2ACC4" points="621.946974 394.451277 621.946974 402.869318 620.347782 413.694011 615.843829 411.581855 603.108843 401.269252 603.108843 389.637098 609.678638 363.934676 611.479695 365.503283 615.393783 368.904405"></polygon>
            <polygon id="Fill-106" fill="#E86E97" points="616.309429 120.653467 608.529317 124.504635 567.90198 86.9524647 573.229124 82.2938354"></polygon>
            <polygon id="Fill-108" fill="#E99FB6" points="615.843479 411.581418 588.774317 411.581418 553.008348 401.967915 566.038703 366.340892 579.611734 366.340892 597.797954 363.935113 609.678289 363.935113 603.109368 389.637534 603.109368 401.268815"></polygon>
            <polygon id="Fill-110" fill="#E97EA1" points="603.109193 431.615709 641.080824 434.426092 614.492293 436.678068 591.492768 436.678068 570.852707 421.303106 588.976881 423.601398"></polygon>
            <polygon id="Fill-112" fill="#EB88A9" points="597.502759 346.353965 613.887047 362.738254 611.480394 365.503195 609.678463 363.934589 591.492244 350.857919 591.492244 346.353965"></polygon>
            <polygon id="Fill-114" fill="#E34C82" points="609.678638 363.934764 597.797429 363.934764 581.413141 354.616631 591.492419 350.858094"></polygon>
            <polygon id="Fill-116" fill="#E86E97" points="588.774754 411.581418 615.843916 411.581418 620.347869 413.693574 602.3172 415.41773 588.588619 421.19492 573.803522 419.703215"></polygon>
            <polygon id="Fill-118" fill="#E86E97" points="601.121214 128.169756 595.048654 131.182878 563.988504 103.026615 568.802683 98.9727072"></polygon>
            <polygon id="Fill-120" fill="#D11F69" points="600.049756 659.971914 466.722597 614.670218 368.649318 593.844021 379.784237 556.540905 390.298705 521.301883 416.746542 556.7585"></polygon>
            <polygon id="Fill-122" fill="#EC9CB7" points="597.797604 219.907002 597.503108 260.084294 577.064912 240.547064 554.825659 231.833653"></polygon>
            <polygon id="Fill-124" fill="#EB88A9" points="597.797604 363.934764 579.611385 366.341417 569.345971 357.396429 569.345971 346.35414 591.492594 346.35414 591.492594 350.858094 581.413316 354.616631"></polygon>
            <polygon id="Fill-126" fill="#E86E97" points="597.502759 310.277596 597.502759 319.595728 588.976357 327.70267 569.346496 346.353791 569.346496 357.396079 579.611909 366.341067 566.038877 366.341067 556.22351 351.494799"></polygon>
            <polygon id="Fill-128" fill="#EC8EAD" points="597.502759 260.083945 597.502759 310.277596 556.22351 351.494799 566.038877 366.341067 554.219714 366.341067 543.69039 349.584508 569.346496 317.343751 569.346496 302.77625 584.270538 290.445869 584.270538 264.789763 588.774492 263.189698"></polygon>
            <polygon id="Fill-130" fill="#EF9AB6" points="588.976532 327.702582 597.502933 346.353703 591.492419 346.353703 569.34667 346.353703"></polygon>
            <polygon id="Fill-132" fill="#E980A2" points="597.502759 260.083945 588.774492 263.189698 554.825309 231.834177 577.064562 240.546714"></polygon>
            <polygon id="Fill-134" fill="#F2B0C7" points="488.356255 317.949609 488.356255 370.209101 488.356255 421.909313 477.469516 400.150692 477.469516 277.819507 467.328193 265.581757 467.343923 265.581757 483.0763 243.155494 483.432841 142.146867 501.914431 124.831028 568.942416 124.831028 591.492768 132.937969 505.921149 150.579764 497.239198 171.42169 497.239198 240.748842 488.356255 261.589894"></polygon>
            <polygon id="Fill-136" fill="#E5618D" points="591.492331 436.677981 581.413053 431.817486 556.316228 419.702953 588.774579 411.581156 573.803347 419.702953 570.85227 421.303019"></polygon>
            <polygon id="Fill-138" fill="#F2ACC4" points="588.774754 411.581418 556.316403 419.703215 546.61027 425.511864 532.276093 425.713729 532.276093 406.471869 538.115328 389.637534 554.219976 366.340892 566.038266 366.340892 553.008785 401.967915"></polygon>
            <polygon id="Fill-140" fill="#E86E97" points="554.825397 231.83409 588.774579 263.18961 584.270626 264.789676 578.571211 261.466328 569.346583 256.077139 558.723755 249.864759 523.563381 249.864759 496.602579 271.809516 488.355818 261.590418 521.155854 231.83409"></polygon>
            <polygon id="Fill-142" fill="#E25B8A" points="584.270888 264.789589 584.270888 290.445694 569.345971 302.776075 569.345971 285.83338 569.345971 279.325631 573.601744 279.325631 578.571473 271.809429 578.571473 261.466241"></polygon>
            <polygon id="Fill-144" fill="#F2B0C7" points="521.559672 443.946352 582.469656 521.302669 518.344685 473.608302 488.355905 421.908964 488.355905 370.208752"></polygon>
            <polygon id="Fill-146" fill="#EC8EAD" points="464.517111 394.544257 454.422977 326.491216 454.422977 307.885537 454.422977 250.004405 467.328368 265.581232 477.469691 277.818982 477.469691 400.151041 488.35643 421.908789 518.345209 473.609001 582.469307 521.302494 518.143344 493.642593 471.862907 432.919618 466.691313 409.251579"></polygon>
            <polygon id="Fill-148" fill="#E99FB6" points="581.413316 431.817049 581.413316 443.542709 546.610357 425.512039 556.31649 419.70339"></polygon>
            <polygon id="Fill-150" fill="#E25B8A" points="578.571124 261.465979 578.571124 271.809167 573.601395 279.325369 569.346496 279.325369 569.346496 268.671954 569.346496 256.076789"></polygon>
            <polygon id="Fill-152" fill="#E5618D" points="573.803609 419.703128 588.587832 421.194833 626.652967 421.194833 653.908265 413.693487 667.032124 413.709217 655.212961 415.417643 642.788201 419.703128 627.165932 423.601485 588.976707 423.601485 570.852532 421.303193"></polygon>
            <polygon id="Fill-154" fill="#F7C7D8" points="569.346321 302.77625 569.346321 317.343751 543.690215 349.584508 554.219539 366.341067 538.114891 389.636835 532.275656 406.472043 532.275656 425.713904 511.341098 366.341067 511.341098 306.270877 553.412078 306.270877"></polygon>
            <polygon id="Fill-156" fill="#E97EA1" points="569.346321 279.325805 569.346321 285.832681 541.997519 291.252456 533.750757 289.451399 527.057746 287.992027 524.324264 287.401287 517.149748 285.832681 496.602317 290.600545 516.310827 277.539604 530.039409 280.583312 530.039409 280.599042 542.78925 283.425155 546.920932 282.788973"></polygon>
            <polygon id="Fill-158" fill="#F0ABC2" points="569.346321 256.076877 569.346321 268.672042 546.299607 264.789414 530.567229 268.097032 516.310827 277.540129 496.602317 290.601069 496.602317 271.809254 523.563119 249.865371 558.723492 249.865371"></polygon>
            <path d="M551.207029,272.306227 L551.207029,278.906608 L546.92067,282.789236 L542.789861,283.425417 L530.039147,280.599304 L530.039147,280.583574 L527.243619,274.853574 L530.566967,268.097644 L546.299345,264.789152 L548.691142,266.295713 L551.207029,272.306227 Z M547.448491,276.312946 L547.448491,270.753351 L544.824243,270.753351 L542.836177,272.042317 L542.836177,276.499081 L545.725209,277.819507 L547.448491,276.312946 Z" id="Fill-160" fill="#D04074"></path>
            <polygon id="Fill-162" fill="#FDF8F8" points="548.691229 266.2958 569.346146 279.326155 546.920757 282.789323 551.207116 278.906695 551.207116 272.306315"></polygon>
            <polygon id="Fill-164" fill="#E97EA1" points="546.299607 264.789589 569.346321 268.672217 569.346321 279.325631 548.691404 266.29615"></polygon>
            <polygon id="Fill-166" fill="#FDF8F8" points="547.448666 270.753089 547.448666 276.312683 545.72451 277.819244 542.836352 276.499693 542.836352 272.042055 544.824418 270.753089"></polygon>
            <polygon id="Fill-168" fill="#E97EA1" points="533.750845 289.451399 514.81921 296.8907 527.057834 287.992027"></polygon>
            <polygon id="Fill-170" fill="#FDF8F8" points="530.567229 268.097294 527.243882 274.853224 530.039409 280.584099 516.310827 277.539517"></polygon>
            <polygon id="Fill-172" fill="#F1A9C1" points="527.057659 287.991678 514.819909 296.89035 533.75067 289.451049 541.997431 291.25298 569.346233 285.833205 569.346233 302.7759 553.411991 306.270528 511.341011 306.270528 501.634878 295.943069 524.324177 287.401812"></polygon>
            <polygon id="Fill-174" fill="#E97EA1" points="524.324264 287.40155 501.634965 295.942807 517.149748 285.832943"></polygon>
            <polygon id="Fill-176" fill="#EC9CB7" points="521.156029 231.83409 488.355993 261.590418 497.238935 240.748492"></polygon>
            <polygon id="Fill-178" fill="#F1A9C1" points="517.149311 285.832943 501.634528 295.942807 496.602754 290.600807"></polygon>
            <polygon id="Fill-180" fill="#F3BACD" points="488.356255 370.208839 496.603016 290.600545 501.63479 295.943419 511.340924 306.270877 511.340924 366.341067 532.275481 425.713904 557.823226 452.161741 579.611559 464.492996 619.741662 494.404 655.818731 521.301883 582.469132 521.301883 521.560022 443.946439"></polygon>
            <polygon id="Fill-182" fill="#F3BACD" points="496.602579 290.600894 488.355818 370.209189 488.355818 317.949697 488.355818 261.589981 496.602579 271.80908"></polygon>
            <polygon id="Fill-184" fill="#EC8EAD" points="483.433016 142.147042 483.075601 243.155669 467.343224 265.581931 467.328368 265.581931 454.422977 250.00423 470.651716 228.899267 470.651716 224.814774 470.651716 220.31082 470.651716 213.198349 470.651716 208.694396 470.651716 199.749408 470.651716 195.307499 470.651716 168.796744 482.98297 142.566502"></polygon>
            <polygon id="Fill-186" fill="#C50D5F" points="470.651716 228.899267 454.422977 250.00423 454.422977 307.886236 454.422977 326.491041 432.18285 293.598374 432.18285 258.438001 411.543663 211.691788 411.543663 152.971736 451.813585 92.8692124 492.704833 59.2005439 549.203495 30.5933613 596.105257 47.971246 596.105257 36.448326 615.238757 50.5806377 615.238757 33.4509337 651.003853 63.5017583 678.959124 54.4947253 745.086144 80.3369664 761.921352 129.039786 761.921352 216.801337 745.661154 265.581931 742.384121 275.412155 725.254417 239.350816 725.254417 173.518292 690.389414 123.014416 654.017849 101.986354 616.309255 120.653204 573.228949 82.2935732 567.901805 86.9522026 608.529143 124.505247 601.121301 128.169406 568.80277 98.9732315 563.988591 103.026265 595.048742 131.182528 591.492069 132.93727 568.94259 124.831202 501.913731 124.831202 483.433016 142.147042 482.98297 142.566502 470.651716 168.796744 470.651716 195.307499 454.935068 184.420761 452.993317 187.495928 470.651716 199.749408 470.651716 208.694396 452.31082 195.307499 450.21352 198.615118 470.651716 213.198349 470.651716 220.31082 452.993317 208.181431 451.114485 211.288057 470.651716 224.814774"></polygon>
            <polygon id="Fill-188" fill="#E86E97" points="470.651716 220.310645 470.651716 224.814599 451.114485 211.287883 452.993317 208.18213"></polygon>
            <polygon id="Fill-190" fill="#E86E97" points="470.651716 208.694308 470.651716 213.198262 450.21352 198.61503 452.31082 195.307412"></polygon>
            <polygon id="Fill-192" fill="#E86E97" points="470.651716 195.307063 470.651716 199.748971 452.993317 187.495491 454.935068 184.420324"></polygon>
            <polygon id="Fill-194" fill="#F1A9C1" points="466.691575 409.251666 466.72216 409.407216 456.224296 409.407216 426.763337 353.404916 426.763337 307.280028 432.183112 293.597763 454.422365 326.491304 441.99848 326.491304 435.7861 345.158154 442.805941 366.340892 452.418569 366.340892 452.418569 388.84493 458.227218 394.45084 463.492317 394.528615"></polygon>
            <polygon id="Fill-196" fill="#EC8EAD" points="466.691575 409.251666 463.492317 394.528615 464.517373 394.544344"></polygon>
            <polygon id="Fill-198" fill="#E86E97" points="454.422715 352.970338 463.491793 394.529226 458.227568 394.451451 452.418919 388.845541 452.418919 366.341504 442.80629 366.341504 435.78645 345.158766 441.997956 326.491041 454.422715 326.491041"></polygon>
            <polygon id="Fill-200" fill="#EC8EAD" points="454.422715 326.491216 464.516849 394.544257 463.491793 394.528527 454.422715 352.970512"></polygon>
            <polygon id="Fill-202" fill="#C81862" points="375.373701 964.854616 357.808807 964.854616 351.814022 865.854616"></polygon>
            <polygon id="Fill-204" fill="#C81862" points="274.007659 740.854616 330.10259 964.854616 311.249603 964.854616"></polygon>
            <polygon id="Fill-206" fill="#C81862" points="244.205364 964.145803 244.205364 964.854616 231.57874 964.854616 231.57874 964.145803 218.952989 831.854616"></polygon>
        </g>
    </g>
</svg>