<svg width="1081" height="965" xmlns="http://www.w3.org/2000/svg"><g fill="none" fill-rule="evenodd"><path fill="#D94178" d="M330.103 669.888l21.711-69.832 395.532 38.81 121.322-88.01 20.992 17.115-155.84 396.884H576.862z"/><path fill="#C81862" d="M1028.125 787.91l18.636 111.21-5.606 65.711v.024h-21.044v-.024l5.623-66.643-42.087-205.333z"/><path fill="#D94178" d="M867 550.848l9.643 11.342L704.91 857.452l17.627 39.197 2.812 41.084H712.52l-14.832-35.4-2.003-41.085 9.224-3.796-48.407-58.064 34.68 96.624v68.843l328.93-.098v-.025l5.621-66.49-42.086-204.86 44.478 94.835 18.636 110.956-5.606 65.559v.025l39.478-.025.202-63.968-79.561-227.617-53.704-58.162-93.274-79.13z"/><path fill="#C81862" d="M876.643 552.55L704.91 739.72l47.4-56.825v-.016l114.69-137.52z"/><path fill="#D94178" d="M854.295 535.854L867 545.36l-114.691 137.52-9.924-82.823v-54.713l11.819-48.89-30.144-43.39 41.356 21.943v16.836l41.482 8.619z"/><path fill="#C81862" d="M724.059 453.062l30.143 43.392-11.818 48.89-8.573-32.07-7.158-21.743z"/><path fill="#F1A9C1" d="M752.308 282.634v68.861l-9.924 33.328V275.412l3.277-9.83z"/><path fill="#E03F7B" d="M742.384 545.343v54.713l-5.622 20.92-35.968 20.251-49.292 6.911-41.73-2.827-38.92-44.665 41.886 8.821h60.863l60.21-40.875v-55.318z"/><path fill="#EC8EAD" d="M742.384 275.412v109.41l-11.228-66.872-5.56-33.173-.342-1.988V239.35z"/><path fill="#F3BACD" d="M731.156 317.95l11.228 66.872-65.91 103.898-23.466 11.741-33.266-6.057-40.13-29.912h80.214l18.636-30.066 8.914-9.023 12.02-20.127-15.328-37.335-28.855-22.192-16.027-32.334v-26.883l16.027 7.066h34.57z"/><path fill="#C81862" d="M736.763 620.975l5.621-20.919 9.924 82.823v.016L704.91 739.72l28.218-105.155z"/><path fill="#BE1F5F" d="M736.763 620.975l-3.635 13.59-26.028 14.784-45.084 7.408h-42.274l-9.97-11.445 41.73 2.826 49.293-6.91z"/><path d="M733.812 513.274v55.318l-60.21 40.875h-60.864l-41.886-8.82-98.989-116.23V432.92l24.088 55.8 42.164 45.395 68.023 25.252h64.512s54.946-71.019 56.003-67.836l7.159 21.743z" fill="#F2ACC4"/><path fill="#D11F69" d="M733.128 634.565L704.91 739.72l-85.168-82.962h42.274l45.084-7.41z"/><path fill="#F3BACD" d="M721.792 884.054l-6.61 22.767-11.809-5.012-5.727-24.466L705 854.89l9.342 1.602z"/><path fill="#F1A9C1" d="M721.745 285.43l-14.086-7.254 7.376-6.367V244.15l-7.392-7.951v-72.9l-17.254-40.285 34.866 50.504V282.79l.34 1.988z"/><path d="M724.059 453.062l2.594 38.47c-1.057-3.184-56.003 67.835-56.003 67.835h-64.513l-10.591-19.63h59.667l40.876-29.663 27.66-61.515.31 4.503z" fill="#EC92B0"/><path fill="#E45D8C" d="M723.748 448.559l-27.659 61.516-40.876 29.662h-59.667l10.592 19.63-68.023-25.252-42.164-45.395-24.088-55.8 46.28 60.723 64.327 27.66h73.35z"/><path fill="#E97EA1" d="M721.745 285.43l-17.798-4.055 3.696-3.199h.016z"/><path fill="#E86E97" d="M715.035 254.68v17.13L697.3 247.52l-17.735-8.48h-17.441l-28.7 8.418h-10.467l18.124-19.832 18.635-4.504h23.902l24.025 17.13z"/><path fill="#F0ABC2" d="M697.3 247.52l17.735 24.29-38.98-14.428h-16.431l-1.537.403-29.99 7.796 5.327-18.123 28.7-8.418h17.44z"/><path fill="#F1A9C1" d="M703.947 281.376l17.797 4.054 3.852-.653 5.56 33.173-41.373-24.352 5.25-4.535 5.11-4.394 9.177 2.468-7.718-3.727z"/><path fill="#E97EA1" d="M709.32 287.137l-9.178-2.47 1.46-1.257z"/><path fill="#F7C7D8" d="M707.643 163.3v72.898L695.5 223.122h-35.783l-18.635 4.503-28.343 6.508 10.219 13.325-2.003 12.626v59.822l9.908 7.47v18.373l-17.58 5.11-15.78-4.505-8.525-18.652 8.525-8.107V260.084l.296-40.177-42.973 11.927h-33.669l-23.917 8.914v-69.327l8.682-20.841 85.571-17.643 3.557-1.754 6.072-3.014 7.408-3.665 7.78-3.85 37.709-18.668 36.371 21.028z"/><path fill="#F1A9C1" d="M707.643 236.198l7.392 7.952v10.529l-7.392-14.428-24.025-17.13h11.88z"/><path fill="#D94178" d="M704.91 739.72L656.5 702.913v-.016l-56.451-42.925-183.303-103.214-26.45-35.455 53.705-32.584v-21.523l27.86-22.255v39.477l98.99 116.228 38.92 44.666 9.97 11.445z"/><path fill="#F1A9C1" d="M703.947 281.376l-2.345 2.034-10.017-4.846z"/><path fill="#E97EA1" d="M701.602 283.41l-1.46 1.258-15.312-4.131 6.755-1.972z"/><path fill="#F2ACC4" d="M684.068 367.941l15.329 37.335-12.021 20.127v-15.996l-13.23-30.734-18.933-22.317v-10.608z"/><path fill="#F1A9C1" d="M694.288 288.193l.745.87-5.25 4.535h-34.57l-16.028-7.066v-6.15l36.915 2.702z"/><path fill="#E97EA1" d="M694.288 288.193l-18.188-5.11 5.81-1.692z"/><path fill="#FDF8F8" d="M692.284 270.21l-16.835 5.73 3.618-4.332v-7.58z"/><path fill="#C81862" d="M691.181 764.165v43.64h-8.727v-36.823l-39.277-60.522L598.295 676l-129.849-45.287-119.442-24.445 16.415-41.434v-.015l14.365-8.279-11.135 37.304 98.073 20.827 133.328 45.301 56.451 42.926v.015z"/><path fill="#F2ACC4" d="M687.376 409.407v15.996l-8.914 9.023v-21.65l-11.415.933.792-.932-18.341-3.37h-22.535l3.898-13.355-11.12-32.117H644.7l10.514-7.58 18.932 22.318z"/><path fill="#F1A9C1" d="M684.83 280.537l15.311 4.131-5.108 4.395-.746-.87-12.377-6.802z"/><path fill="#D94178" d="M682.453 906.666v58.018l-307.08.096-23.559-99.151 5.995 99.151-27.706.026-56.095-223.336 37.242 223.336-67.045.024v-.71L218.954 831.52l12.625 132.602v.709l-94.58.025 24.85-132.064 60.91-121.248 142.66-129.688-16.415 65.285 119.442 38.515 129.849 71.354 44.882 54.297z"/><path fill="#F3BACD" d="M664.624 416.52l13.838 17.906-18.636 30.066-18.745-30.066 15.638-8.712z"/><path fill="#E99FB6" d="M676.474 488.72l65.91-103.898-18.635 63.737-67.93 72.743z"/><path fill="#F2ACC4" d="M676.474 488.72l-20.655 32.582-36.077-26.898 33.266 6.057z"/><path fill="#FDF8F8" d="M672.25 266.001v4.534l-3.216-.931v-3.805l2.113-1.786z"/><path d="M659.018 261.388h14.428l5.62 2.625v7.595l-3.617 4.332-16.632-.839-3.604-7.206 1.398-4.954 2.407-1.553zm13.232 4.613l-1.103-1.988-2.112 1.786v3.805l3.215.931v-4.534z" fill="#D04074"/><path fill="#E99FB6" d="M664.624 416.52l2.408-2.811h.015l11.415-.932v21.649z"/><path fill="#E97EA1" d="M667.032 413.709l-2.408 2.811-7.905 9.193-15.638 8.713-37.971-2.81-14.134-8.015h38.19l15.623-3.898 12.424-4.286z"/><path fill="#F3BACD" d="M641.08 434.426l18.746 30.066h-44.293l11.43-15.343-12.47-12.471z"/><path fill="#E97EA1" d="M659.623 257.382h16.432l38.98 14.427-7.376 6.367h-.016l-3.696 3.2-12.362-2.812-6.755 1.974-2.92.853-5.81 1.693-36.915-2.702v-6.274l19.631.993 16.633.84 16.835-5.732-13.217-6.18v-.016l-5.621-2.625h-14.428l-.932-3.603z"/><path fill="#E97EA1" d="M658.087 257.785l.93 3.603-2.406 1.553-17.426 11.167-11.087-8.527z"/><path fill="#FDF8F8" d="M655.213 267.896l3.603 7.205-19.63-.993 17.425-11.166z"/><path fill="#EC8EAD" d="M630.862 327.376l-9.908-7.47v-59.822l7.143 5.498 11.088 8.525v39.307l16.028 32.335z"/><path fill="#EF9AB6" d="M655.213 345.749h-24.351v-18.372z"/><path fill="#E86E97" d="M649.498 409.407l18.34 3.37-.79.932h-.017l-13.123-.016-27.256 7.502h-38.064l13.73-5.778 18.03-1.724 6.615-4.286z"/><path fill="#E34C82" d="M643.487 349.585v5.792l-20.142 3.898 9.707-9.69z"/><path fill="#F1A9C1" d="M641.08 227.626l-18.123 19.831-10.22-13.325z"/><path fill="#EC8EAD" d="M633.424 247.458l-5.327 18.124-7.144-5.498 2.003-12.626z"/><path d="M630.862 345.749h24.351v10.607l-10.514 7.58h-24.958l-4.347 4.968-3.914-3.401 2.407-2.765 16.975-16.99zm12.625 3.836h-10.436l-9.707 9.69 20.143-3.898v-5.792z" fill="#EB88A9"/><path fill="#EF9AB6" d="M630.862 345.749l-16.975 16.989-16.384-16.384 15.779 4.504z"/><path fill="#E99FB6" d="M619.742 363.935l11.12 32.116-3.898 13.356-6.617 4.286 1.6-10.824v-8.418l-6.554-25.547z"/><path fill="#F3BACD" d="M626.963 449.149l-11.43 15.344H579.61l-21.788-12.331-25.548-26.448 14.335-.202 34.803 18.03v-11.725l10.08 4.86h23z"/><path fill="#F2ACC4" d="M621.947 394.451v8.418l-1.6 10.825-4.503-2.112-12.735-10.313v-11.632l6.57-25.702 1.8 1.568 3.915 3.401z"/><path fill="#E86E97" d="M616.31 120.653l-7.78 3.852-40.628-37.553 5.327-4.658z"/><path fill="#E99FB6" d="M615.843 411.581h-27.069l-35.766-9.613 13.03-35.627h13.574l18.186-2.406h11.88l-6.569 25.703v11.63z"/><path fill="#E97EA1" d="M603.11 431.616l37.97 2.81-26.588 2.252h-23l-20.64-15.375 18.125 2.298z"/><path fill="#EB88A9" d="M597.503 346.354l16.384 16.384-2.407 2.765-1.802-1.568-18.186-13.077v-4.504z"/><path fill="#E34C82" d="M609.679 363.935h-11.882l-16.384-9.318 10.08-3.759z"/><path fill="#E86E97" d="M588.775 411.581h27.069l4.504 2.113-18.03 1.724-13.73 5.777-14.784-1.492zM601.121 128.17l-6.072 3.013-31.06-28.156 4.814-4.054z"/><path fill="#D11F69" d="M600.05 659.972L466.723 614.67l-98.074-20.826 11.135-37.303L390.3 521.3l26.448 35.457z"/><path fill="#EC9CB7" d="M597.798 219.907l-.295 40.177-20.438-19.537-22.24-8.713z"/><path fill="#EB88A9" d="M597.798 363.935l-18.187 2.406-10.265-8.945v-11.042h22.147v4.504l-10.08 3.759z"/><path fill="#E86E97" d="M597.503 310.278v9.318l-8.527 8.107-19.63 18.65v11.043l10.266 8.945h-13.573l-9.815-14.846z"/><path fill="#EC8EAD" d="M597.503 260.084v50.194l-41.28 41.217 9.816 14.846h-11.82l-10.529-16.756 25.656-32.241v-14.568l14.925-12.33V264.79l4.503-1.6z"/><path fill="#EF9AB6" d="M588.977 327.703l8.526 18.65h-28.156z"/><path fill="#E980A2" d="M597.503 260.084l-8.729 3.106-33.949-31.356 22.24 8.713z"/><path fill="#F2B0C7" d="M488.356 317.95V421.91l-10.886-21.76V277.82l-10.142-12.238h.016l15.732-22.427.357-101.008 18.481-17.316h67.028l22.55 8.107-85.57 17.642-8.683 20.842v69.327l-8.883 20.84z"/><path fill="#E5618D" d="M591.492 436.678l-10.079-4.86-25.097-12.115 32.459-8.122-14.972 8.122-2.95 1.6z"/><path fill="#F2ACC4" d="M588.775 411.581l-32.459 8.122-9.706 5.809-14.334.202v-19.242l5.84-16.834 16.104-23.297h11.818l-13.03 35.627z"/><path fill="#E86E97" d="M554.825 231.834l33.95 31.356-4.504 1.6-5.7-3.324-9.224-5.389-10.623-6.212h-35.16l-26.961 21.945-8.247-10.22 32.8-29.756z"/><path fill="#E25B8A" d="M584.27 264.79v25.656l-14.924 12.33V279.326h4.256l4.97-7.517v-10.343z"/><path fill="#F2B0C7" d="M521.56 443.946l60.91 77.357-64.125-47.695-29.99-51.699v-51.7z"/><path fill="#EC8EAD" d="M464.517 394.544l-10.094-68.053v-76.487l12.905 15.577 10.142 12.238v122.332l10.886 21.758 29.99 51.7 64.123 47.693-64.326-27.66-46.28-60.722-5.172-23.668z"/><path fill="#E99FB6" d="M581.413 431.817v11.726l-34.803-18.031 9.706-5.809z"/><path fill="#E25B8A" d="M578.571 261.466v10.343l-4.97 7.516h-4.255v-23.248z"/><path fill="#E5618D" d="M573.804 419.703l14.784 1.492h38.065l27.255-7.502 13.124.016-11.819 1.709-12.425 4.285-15.622 3.898h-38.19l-18.123-2.298z"/><path fill="#F7C7D8" d="M569.346 302.776v14.568l-25.656 32.24 10.53 16.757-16.105 23.296-5.84 16.835v19.242l-20.934-59.373v-60.07h42.071z"/><path fill="#E97EA1" d="M569.346 279.326v6.507l-27.348 5.42-8.247-1.802-6.693-1.459-2.734-.59-7.174-1.57-20.548 4.769 19.709-13.061 13.728 3.043v.016l12.75 2.826 4.132-.636z"/><path fill="#F0ABC2" d="M569.346 256.077v12.595l-23.046-3.883-15.733 3.308-14.256 9.443-19.709 13.061V271.81l26.961-21.944h35.16z"/><path d="M551.207 272.306v6.6l-4.286 3.883-4.131.636-12.75-2.826v-.015l-2.796-5.73 3.323-6.756 15.732-3.309 2.392 1.507 2.516 6.01zm-3.759 4.007v-5.56h-2.624l-1.988 1.29v4.456l2.89 1.32 1.722-1.506z" fill="#D04074"/><path fill="#FDF8F8" d="M548.691 266.296l20.655 13.03-22.425 3.463 4.286-3.882v-6.6z"/><path fill="#E97EA1" d="M546.3 264.79l23.046 3.882v10.654l-20.655-13.03z"/><path fill="#FDF8F8" d="M547.449 270.753v5.56l-1.724 1.506-2.889-1.32v-4.457l1.988-1.289z"/><path fill="#E97EA1" d="M533.75 289.451l-18.93 7.44 12.238-8.899z"/><path fill="#FDF8F8" d="M530.567 268.097l-3.323 6.756 2.795 5.731-13.728-3.044z"/><path fill="#F1A9C1" d="M527.058 287.992l-12.238 8.898 18.93-7.439 8.247 1.802 27.35-5.42v16.943l-15.935 3.495h-42.071l-9.706-10.328 22.69-8.541z"/><path fill="#E97EA1" d="M524.324 287.402l-22.689 8.54 15.515-10.11z"/><path fill="#EC9CB7" d="M521.156 231.834l-32.8 29.756 8.883-20.842z"/><path fill="#F1A9C1" d="M517.15 285.833l-15.515 10.11-5.032-5.342z"/><path fill="#F3BACD" d="M488.356 370.209l8.247-79.608 5.032 5.342 9.706 10.328v60.07l20.934 59.373 25.548 26.448 21.789 12.331 40.13 29.911 36.077 26.898h-73.35l-60.909-77.356z"/><path fill="#F3BACD" d="M496.603 290.6l-8.247 79.61V261.59l8.247 10.22z"/><path fill="#EC8EAD" d="M483.433 142.147l-.357 101.009-15.733 22.426h-.015l-12.905-15.578 16.229-21.105V168.797l12.331-26.23z"/><path fill="#C50D5F" d="M470.652 228.9l-16.229 21.104v76.487l-22.24-32.893v-35.16l-20.64-46.746v-58.72l40.27-60.103 40.892-33.668 56.498-28.608 46.902 17.378V36.448l19.134 14.133V33.45l35.765 30.05 27.955-9.006 66.127 25.842 16.835 48.703V216.8l-16.26 48.78-3.277 9.831-17.13-36.061v-65.833l-34.865-50.504-36.371-21.028-37.709 18.667-43.08-38.36-5.327 4.66 40.627 37.552-7.408 3.664-32.318-29.196-4.814 4.053 31.06 28.157-3.557 1.754-22.55-8.106h-67.028l-18.481 17.316-.45.42-12.331 26.23v26.51l-15.717-10.886-1.942 3.075 17.659 12.253v8.945l-18.341-13.387-2.097 3.308 20.438 14.583v7.113l-17.659-12.13-1.879 3.107 19.538 13.527z"/><path fill="#E86E97" d="M470.652 220.31v4.505l-19.538-13.527 1.88-3.106zM470.652 208.694v4.504l-20.438-14.583 2.097-3.308zM470.652 195.307v4.442l-17.659-12.254 1.942-3.075z"/><path fill="#F1A9C1" d="M466.692 409.252l.03.155h-10.498l-29.46-56.002V307.28l5.42-13.682 22.238 32.893h-12.424l-6.212 18.667 7.02 21.183h9.613v22.504l5.808 5.606 5.265.078z"/><path fill="#EC8EAD" d="M466.692 409.252l-3.2-14.723 1.025.015z"/><path fill="#E86E97" d="M454.423 352.97l9.069 41.56-5.264-.079-5.81-5.605v-22.504h-9.612l-7.02-21.183 6.212-18.668h12.425z"/><path fill="#EC8EAD" d="M454.423 326.491l10.094 68.053-1.025-.015-9.07-41.558z"/><path fill="#C81862" d="M375.374 964.855h-17.565l-5.995-99zM274.008 740.855l56.095 224H311.25zM244.205 964.146v.709H231.58v-.71l-12.626-132.29z"/></g></svg>