<svg width="2458" height="1559" xmlns="http://www.w3.org/2000/svg"><g fill="none" fill-rule="evenodd"><path fill="#112337" d="M0 929.999h2455v-930H0z"/><path fill="#D94B53" d="M0 1553.999h2455v-235H0z"/><path fill="#CD181A" d="M0 1319.999h2455v-235H0z"/><path fill="#B7191C" d="M0 1086.999h2455v-236H0z"/><path fill="#991918" d="M0 850.999h2455v-235H0z"/><path fill="#000" d="M0 615.999h1625v-616H0zm1828 0h627v-616h-627z"/><path fill="#133759" d="M612.763 341.999L442.022 167.054l-95.784 76.629-62.983-26.843-105.262 95.27-71.472-46.535L0 318.932v-30.115l111.132-55.664 60.533 39.417 98.403-89.06 65.252 27.81L446.972 122l168.084 172.223L737.314 182.31l95.222 101.79 105.428-80.553 68.007 31.618 184.46-91.062 107.041 90.148 169.14-68.829L1625 290.614v40.72l-169.743-134.17-170.3 69.301-104.165-87.727-173.84 85.816-60.23-28.003-120.868 92.353-91.7-98.022z"/><path d="M1828 179.999h627m-627-64h627m-627-64h627m-627 188h627m-627 61h627m-627 61h627m-627 60.5h627" stroke="#133759" stroke-width="9.716"/><path d="M0 449.999h1622m-1622 54h1622m-1622 54h1622" stroke="#133759" stroke-width="10.515"/><path d="M1293.691 836.678c-25.766 8.445-58.946 13.508-95.163 13.508s-69.414-5.063-95.18-13.508c-32.583-10.65-53.321-26.681-53.321-44.603v89.226c0 32.08 66.49 58.088 148.501 58.088 81.99 0 148.484-26.007 148.484-58.088v-89.226c0 17.922-20.74 33.953-53.32 44.603" fill="#E8E8E8"/><path d="M1132.829 829.168c19.29 3.694 41.74 5.821 65.7 5.821 23.939 0 46.388-2.127 65.68-5.821 38.799-7.429 64.865-21.255 64.865-37.09 0-23.701-58.447-42.912-130.545-42.912-72.116 0-130.566 19.21-130.566 42.911 0 15.836 26.066 29.662 64.866 37.091" fill="#133759"/><path d="M1198.529 749.166c72.098 0 130.545 19.21 130.545 42.909 0 15.838-26.067 29.664-64.866 37.093-19.29 3.694-41.74 5.821-65.68 5.821-23.959 0-46.409-2.127-65.7-5.82-38.799-7.43-64.862-21.256-64.862-37.094 0-23.698 58.447-42.909 130.563-42.909m-95.181 87.511c25.766 8.445 58.964 13.509 95.18 13.509 36.218 0 69.398-5.064 95.164-13.509 32.58-10.65 53.32-26.678 53.32-44.602 0-32.08-66.493-58.088-148.483-58.088-82.011 0-148.505 26.007-148.505 58.088 0 17.924 20.741 33.952 53.324 44.602" fill="#FFF"/><path d="M1650.561 757.065c-22.67 7.429-51.859 11.886-83.72 11.886-31.863 0-61.07-4.457-83.737-11.886-28.666-9.366-46.911-23.472-46.911-39.24v78.497c0 28.226 58.497 51.104 130.649 51.104 72.13 0 130.63-22.878 130.63-51.104v-78.496c0 15.767-18.247 29.873-46.91 39.239" fill="#E8E8E8"/><path d="M1509.041 750.457c16.97 3.254 36.722 5.123 57.8 5.123 21.061 0 40.813-1.869 57.783-5.123 34.134-6.534 57.065-18.7 57.065-32.63 0-20.851-51.419-37.756-114.849-37.756-63.445 0-114.864 16.905-114.864 37.756 0 13.93 22.931 26.096 57.065 32.63" fill="#133759"/><path d="M1566.84 680.072c63.43 0 114.85 16.902 114.85 37.753 0 13.934-22.931 26.096-57.065 32.634-16.974 3.25-36.722 5.12-57.785 5.12-21.077 0-40.828-1.87-57.799-5.12-34.133-6.538-57.065-18.7-57.065-32.634 0-20.85 51.42-37.753 114.864-37.753m-83.737 76.992c22.67 7.43 51.874 11.886 83.737 11.886 31.864 0 61.05-4.457 83.72-11.886 28.666-9.366 46.912-23.472 46.912-39.239 0-28.226-58.5-51.104-130.632-51.104-72.148 0-130.648 22.878-130.648 51.104 0 15.767 18.248 29.873 46.911 39.24" fill="#FFF"/><path d="M930.12 608.854c-17.779 5.824-40.671 9.322-65.659 9.322-24.987 0-47.892-3.498-65.67-9.322C776.31 601.505 762 590.445 762 578.08v61.558c0 22.14 45.877 40.083 102.461 40.083 56.572 0 102.45-17.942 102.45-40.083V578.08c0 12.364-14.312 23.424-36.791 30.773" fill="#E8E8E8"/><path d="M819.132 603.671c13.31 2.55 28.8 4.018 45.33 4.018 16.516 0 32.006-1.468 45.316-4.018 26.77-5.126 44.754-14.667 44.754-25.59 0-16.353-40.326-29.609-90.07-29.609-49.758 0-90.084 13.256-90.084 29.608 0 10.924 17.983 20.465 44.754 25.591" fill="#133759"/><path d="M864.462 548.472c49.743 0 90.073 13.256 90.073 29.608 0 10.926-17.987 20.468-44.757 25.59-13.31 2.553-28.797 4.018-45.316 4.018-16.53 0-32.021-1.465-45.33-4.017-26.771-5.123-44.755-14.665-44.755-25.591 0-16.352 40.327-29.608 90.085-29.608m-65.674 60.381c17.779 5.824 40.686 9.322 65.674 9.322 24.987 0 47.88-3.498 65.659-9.322 22.48-7.346 36.79-18.409 36.79-30.773 0-22.135-45.877-40.08-102.45-40.08-56.583 0-102.46 17.945-102.46 40.08 0 12.364 14.308 23.427 36.787 30.773" fill="#FFF"/><path d="M1716.518 1103.952c-36.247 11.877-82.917 19.006-133.864 19.006-50.95 0-97.65-7.129-133.897-19.006-45.833-14.98-75.01-37.533-75.01-62.74v125.51c0 45.135 93.54 81.718 208.907 81.718 115.337 0 208.874-36.583 208.874-81.717v-125.511c0 25.207-29.177 47.76-75.01 62.74" fill="#E8E8E8"/><path d="M1490.231 1093.39c27.136 5.197 58.717 8.189 92.423 8.189 33.674 0 65.255-2.992 92.39-8.19 54.582-10.453 91.247-29.902 91.247-52.18 0-33.337-82.219-60.363-183.637-60.363-101.45 0-183.67 27.026-183.67 60.364 0 22.277 36.666 41.726 91.247 52.18" fill="#133759"/><path d="M1582.653 980.846c101.418 0 183.64 27.026 183.64 60.364 0 22.277-36.669 41.726-91.247 52.18-27.139 5.197-58.717 8.189-92.393 8.189-33.706 0-65.284-2.992-92.423-8.19-54.578-10.453-91.247-29.902-91.247-52.18 0-33.337 82.222-60.363 183.67-60.363m-133.897 123.107c36.25 11.877 82.947 19.003 133.897 19.003 50.947 0 97.617-7.126 133.864-19.003 45.836-14.98 75.013-37.533 75.013-62.743 0-45.132-93.54-81.717-208.877-81.717-115.367 0-208.904 36.585-208.904 81.717 0 25.21 29.177 47.764 75.007 62.743" fill="#FFF"/><path fill="#0B141D" d="M1251.5 1011.648l-4.85-17.324L1257.39 977l16.98 2.077 7.969 19.752v20.789l19.404 4.504 15.247 48.163-10.395 13.859 6.235 33.61-11.78 5.546.693 13.859h-4.853l-6.234 46.082 2.77 21.137-4.85 55.787 7.277 3.465.693 3.465-14.727 7.97-13.34-1.733 1.038-37.42.347-51.283-4.501-38.808-11.438 29.798-10.047 46.43-4.504 39.5 3.117 11.435-10.395 2.08-20.096-4.157 2.772-6.93 7.278-3.464 1.732-41.58 6.93-75.882-5.444-3.464-4.258-13.17-5.893-1.385-3.117-50.587 7.277-37.768 14.207-19.06z"/><path d="M2457.362 1426.074c-73.337 20.52-163.08 32.585-260.091 32.585-109.31 0-209.504-15.291-287.275-40.772-98.334-32.14-160.932-80.528-160.932-134.616v269.285c0 1.887.101 3.765.253 5.637h708.045v-132.12z" fill="#E8E8E8"/><path d="M2457.362 1186.007c-69.39-20.066-160.4-32.25-260.091-32.25-217.658 0-394.063 57.984-394.063 129.514 0 47.791 78.668 89.523 195.773 111.95 58.221 11.151 125.978 17.567 198.29 17.567 72.252 0 140.009-6.416 198.233-17.568 22.084-4.231 42.784-9.152 61.858-14.667v-194.546z" fill="#133759"/><path d="M2457.362 1380.552c-19.074 5.515-39.774 10.439-61.858 14.67-58.224 11.15-125.98 17.568-198.233 17.568-72.312 0-140.069-6.418-198.29-17.568-117.105-22.426-195.773-64.158-195.773-111.949 0-71.533 176.405-129.514 394.063-129.514 99.691 0 190.7 12.18 260.091 32.247v-45.49c-73.343-20.498-163.107-32.568-260.091-32.568-247.52 0-448.207 78.49-448.207 175.325 0 54.085 62.598 102.473 160.932 134.613 77.77 25.484 177.964 40.772 287.275 40.772 97.011 0 186.754-12.061 260.091-32.585v-45.521z" fill="#FFF"/></g></svg>