
<svg width="2458px" height="1559px" viewBox="0 0 2458 1559" version="1.1" xmlns="http://www.w3.org/2000/svg" xmlns:xlink="http://www.w3.org/1999/xlink">
    <defs>
        <polygon id="path-1" points="-0.0001 1554.999 2454.9999 1554.999 2454.9999 0.999 -0.0001 0.999"></polygon>
    </defs>
    <g id="Page-1" stroke="none" stroke-width="1" fill="none" fill-rule="evenodd">
        <g id="Group-69" transform="translate(0.000000, -1.000000)">
            <polygon id="Fill-1" fill="#112337" points="-0.0001 930.999 2454.9999 930.999 2454.9999 0.999 -0.0001 0.999"></polygon>
            <mask id="mask-2" fill="white">
                <use xlink:href="#path-1"></use>
            </mask>
            <g id="Clip-35"></g>
            <polygon id="Fill-34" fill="#D94B53" points="-0.0001 1554.999 2454.9999 1554.999 2454.9999 1319.999 -0.0001 1319.999"></polygon>
            <polygon id="Fill-36" fill="#CD181A" points="-0.0001 1320.999 2454.9999 1320.999 2454.9999 1085.999 -0.0001 1085.999"></polygon>
            <polygon id="Fill-37" fill="#B7191C" points="-0.0001 1087.999 2454.9999 1087.999 2454.9999 851.999 -0.0001 851.999"></polygon>
            <polygon id="Fill-38" fill="#991918" points="-0.0001 851.999 2454.9999 851.999 2454.9999 616.999 -0.0001 616.999"></polygon>
            <polygon id="Fill-39" fill="#000000" points="-0.0001 616.999 1624.9999 616.999 1624.9999 0.999 -0.0001 0.999"></polygon>
            <polygon id="Fill-40" fill="#000000" points="1827.9999 616.999 2454.9999 616.999 2454.9999 0.999 1827.9999 0.999"></polygon>
            <polygon id="Fill-41" fill="#133759" points="612.762972 342.999 442.021877 168.053812 346.238074 244.682818 283.255305 217.839768 177.992531 313.110807 106.520762 266.574973 -0.0001 319.932369 -0.0001 289.817037 111.132376 234.153163 171.664967 273.570122 270.068068 184.5094 335.319521 212.320101 446.971732 122.999 615.056404 295.222211 737.313678 183.309071 832.536497 285.09882 937.964266 204.545662 1005.97114 236.164175 1190.43158 145.101674 1297.47217 235.250079 1466.61282 166.421365 1624.9999 291.613837 1624.9999 332.334538 1455.25703 198.163605 1284.95729 267.465063 1180.79174 179.73763 1006.95286 265.55377 946.721383 237.551017 825.854194 329.904333 734.154021 231.881771"></polygon>
            <path d="M1827.9999,180.999 L2454.9999,180.999" id="Stroke-42" stroke="#133759" stroke-width="9.716"></path>
            <path d="M1827.9999,116.999 L2454.9999,116.999" id="Stroke-43" stroke="#133759" stroke-width="9.716"></path>
            <path d="M1827.9999,52.999 L2454.9999,52.999" id="Stroke-44" stroke="#133759" stroke-width="9.716"></path>
            <path d="M1827.9999,240.999 L2454.9999,240.999" id="Stroke-45" stroke="#133759" stroke-width="9.716"></path>
            <path d="M1827.9999,301.999 L2454.9999,301.999" id="Stroke-46" stroke="#133759" stroke-width="9.716"></path>
            <path d="M1827.9999,362.999 L2454.9999,362.999" id="Stroke-47" stroke="#133759" stroke-width="9.716"></path>
            <path d="M1827.9999,423.499 L2454.9999,423.499" id="Stroke-48" stroke="#133759" stroke-width="9.716"></path>
            <path d="M-0.0001,450.999 L1621.9999,450.999" id="Stroke-49" stroke="#133759" stroke-width="10.515"></path>
            <path d="M-0.0001,504.999 L1621.9999,504.999" id="Stroke-50" stroke="#133759" stroke-width="10.515"></path>
            <path d="M-0.0001,558.999 L1621.9999,558.999" id="Stroke-51" stroke="#133759" stroke-width="10.515"></path>
            <path d="M1293.69135,837.677881 C1267.92528,846.122947 1234.74527,851.18642 1198.52836,851.18642 C1162.31145,851.18642 1129.11361,846.122947 1103.34754,837.677881 C1070.7648,827.027947 1050.02655,810.996586 1050.02655,793.075337 L1050.02655,882.301226 C1050.02655,914.381776 1116.51732,940.388536 1198.52836,940.388536 C1280.51859,940.388536 1347.01234,914.381776 1347.01234,882.301226 L1347.01234,793.075337 C1347.01234,810.996586 1326.27111,827.027947 1293.69135,837.677881" id="Fill-52" fill="#E8E8E8"></path>
            <path d="M1132.8286,830.167954 C1152.11972,833.861556 1174.56957,835.989165 1198.52895,835.989165 C1222.46753,835.989165 1244.91738,833.861556 1264.2085,830.167954 C1303.00766,822.739149 1329.07385,808.912658 1329.07385,793.077418 C1329.07385,769.376559 1270.62699,750.16567 1198.52895,750.16567 C1126.41309,750.16567 1067.96325,769.376559 1067.96325,793.077418 C1067.96325,808.912658 1094.02944,822.739149 1132.8286,830.167954" id="Fill-53" fill="#133759"></path>
            <path d="M1198.52865,750.165967 C1270.62669,750.165967 1329.07356,769.376856 1329.07356,793.074743 C1329.07356,808.912955 1303.00737,822.739446 1264.2082,830.168251 C1244.91708,833.861853 1222.46724,835.989463 1198.52865,835.989463 C1174.56927,835.989463 1152.11943,833.861853 1132.82831,830.168251 C1094.02914,822.739446 1067.96593,808.912955 1067.96593,793.074743 C1067.96593,769.376856 1126.41279,750.165967 1198.52865,750.165967 M1103.34784,837.677287 C1129.1139,846.122352 1162.31175,851.185826 1198.52865,851.185826 C1234.74556,851.185826 1267.92558,846.122352 1293.69164,837.677287 C1326.27141,827.027353 1347.01263,810.998963 1347.01263,793.074743 C1347.01263,760.994193 1280.51889,734.987433 1198.52865,734.987433 C1116.51762,734.987433 1050.02388,760.994193 1050.02388,793.074743 C1050.02388,810.998963 1070.7651,827.027353 1103.34784,837.677287" id="Fill-54" fill="#FFFFFF"></path>
            <path d="M1650.56132,758.064866 C1627.89158,765.493671 1598.70232,769.950954 1566.84166,769.950954 C1534.97803,769.950954 1505.77095,765.493671 1483.10418,758.064866 C1454.4379,748.698629 1436.19276,734.592815 1436.19276,718.82592 L1436.19276,797.321642 C1436.19276,825.548129 1494.69014,848.425876 1566.84166,848.425876 C1638.97239,848.425876 1697.47274,825.548129 1697.47274,797.321642 L1697.47274,718.82592 C1697.47274,734.592815 1679.22462,748.698629 1650.56132,758.064866" id="Fill-55" fill="#E8E8E8"></path>
            <path d="M1509.04111,751.45739 C1526.01147,754.711207 1545.76317,756.580294 1566.84018,756.580294 C1587.90233,756.580294 1607.65403,754.711207 1624.62439,751.45739 C1658.75827,744.923014 1681.6895,732.757603 1681.6895,718.827108 C1681.6895,697.975939 1630.27028,681.070951 1566.84018,681.070951 C1503.39521,681.070951 1451.976,697.975939 1451.976,718.827108 C1451.976,732.757603 1474.90723,744.923014 1509.04111,751.45739" id="Fill-56" fill="#133759"></path>
            <path d="M1566.84048,681.072139 C1630.27058,681.072139 1681.6898,697.974156 1681.6898,718.825325 C1681.6898,732.758791 1658.75856,744.921231 1624.62469,751.458579 C1607.65136,754.709424 1587.90262,756.578511 1566.84048,756.578511 C1545.76347,756.578511 1526.01176,754.709424 1509.0414,751.458579 C1474.90753,744.921231 1451.9763,732.758791 1451.9763,718.825325 C1451.9763,697.974156 1503.39551,681.072139 1566.84048,681.072139 M1483.10299,758.064272 C1505.77273,765.493077 1534.97685,769.95036 1566.84048,769.95036 C1598.7041,769.95036 1627.89039,765.493077 1650.56013,758.064272 C1679.22641,748.698035 1697.47155,734.592221 1697.47155,718.825325 C1697.47155,690.598839 1638.9712,667.721092 1566.84048,667.721092 C1494.69192,667.721092 1436.19157,690.598839 1436.19157,718.825325 C1436.19157,734.592221 1454.43969,748.698035 1483.10299,758.064272" id="Fill-57" fill="#FFFFFF"></path>
            <path d="M930.119795,609.85386 C912.341179,615.678043 889.448575,619.175524 864.461047,619.175524 C839.473519,619.175524 816.569028,615.678043 798.790413,609.85386 C776.31085,602.505286 762,591.445282 762,579.080779 L762,640.638827 C762,662.779637 807.877327,680.721686 864.461047,680.721686 C921.032881,680.721686 966.910208,662.779637 966.910208,640.638827 L966.910208,579.080779 C966.910208,591.445282 952.599358,602.505286 930.119795,609.85386" id="Fill-58" fill="#E8E8E8"></path>
            <path d="M819.131669,604.671228 C832.441115,607.220794 847.931659,608.688726 864.462236,608.688726 C880.977954,608.688726 896.468498,607.220794 909.777945,604.671228 C936.548385,599.545353 954.532036,590.003796 954.532036,579.080482 C954.532036,562.728197 914.205512,549.472238 864.462236,549.472238 C814.704101,549.472238 774.377577,562.728197 774.377577,579.080482 C774.377577,590.003796 792.361228,599.545353 819.131669,604.671228" id="Fill-59" fill="#133759"></path>
            <path d="M864.461938,549.471643 C914.205215,549.471643 954.53471,562.727602 954.53471,579.079887 C954.53471,590.006174 936.548088,599.54773 909.777647,604.670634 C896.468201,607.223171 880.980629,608.688132 864.461938,608.688132 C847.931362,608.688132 832.440818,607.223171 819.131372,604.670634 C792.360931,599.54773 774.37728,590.006174 774.37728,579.079887 C774.37728,562.727602 814.703804,549.471643 864.461938,549.471643 M798.788333,609.852968 C816.566948,615.677151 839.474411,619.174633 864.461938,619.174633 C889.449466,619.174633 912.342071,615.677151 930.120686,609.852968 C952.60025,602.507366 966.911099,591.44439 966.911099,579.079887 C966.911099,556.945021 921.033772,539 864.461938,539 C807.878218,539 762.000891,556.945021 762.000891,579.079887 C762.000891,591.44439 776.308769,602.507366 798.788333,609.852968" id="Fill-60" fill="#FFFFFF"></path>
            <path d="M1716.51811,1104.95231 C1680.27149,1116.82948 1633.60077,1123.95816 1582.65402,1123.95816 C1531.70431,1123.95816 1485.00387,1116.82948 1448.75725,1104.95231 C1402.92449,1089.97287 1373.74712,1067.41902 1373.74712,1042.2116 L1373.74712,1167.72274 C1373.74712,1212.85719 1467.28766,1249.43959 1582.65402,1249.43959 C1697.99067,1249.43959 1791.52824,1212.85719 1791.52824,1167.72274 L1791.52824,1042.2116 C1791.52824,1067.41902 1762.35087,1089.97287 1716.51811,1104.95231" id="Fill-61" fill="#E8E8E8"></path>
            <path d="M1490.23107,1094.38944 C1517.36701,1099.58663 1548.94835,1102.57896 1582.65432,1102.57896 C1616.32761,1102.57896 1647.90894,1099.58663 1675.04488,1094.38944 C1729.62579,1083.93563 1766.2914,1064.48702 1766.2914,1042.20952 C1766.2914,1008.87201 1684.07236,981.846021 1582.65432,981.846021 C1481.20359,981.846021 1398.98455,1008.87201 1398.98455,1042.20952 C1398.98455,1064.48702 1435.65016,1083.93563 1490.23107,1094.38944" id="Fill-62" fill="#133759"></path>
            <path d="M1582.65283,981.846021 C1684.07088,981.846021 1766.29289,1008.87201 1766.29289,1042.20952 C1766.29289,1064.48702 1729.62431,1083.93563 1675.04637,1094.38944 C1647.90746,1099.58663 1616.32909,1102.57896 1582.65283,1102.57896 C1548.94686,1102.57896 1517.3685,1099.58663 1490.22959,1094.38944 C1435.65165,1083.93563 1398.98307,1064.48702 1398.98307,1042.20952 C1398.98307,1008.87201 1481.20508,981.846021 1582.65283,981.846021 M1448.75606,1104.9532 C1485.00565,1116.83038 1531.70312,1123.95608 1582.65283,1123.95608 C1633.59958,1123.95608 1680.2703,1116.83038 1716.51692,1104.9532 C1762.35265,1089.97376 1791.53002,1067.41991 1791.53002,1042.20952 C1791.53002,997.078042 1697.98949,960.492665 1582.65283,960.492665 C1467.28647,960.492665 1373.7489,997.078042 1373.7489,1042.20952 C1373.7489,1067.41991 1402.92627,1089.97376 1448.75606,1104.9532" id="Fill-63" fill="#FFFFFF"></path>
            <polygon id="Fill-64" fill="#0B141D" points="1251.50044 1012.64795 1246.65092 995.323973 1257.39 978 1274.36927 980.077094 1282.3389 999.8288 1282.3389 1020.61757 1301.74293 1025.12239 1316.98981 1073.28482 1306.59543 1087.144 1312.82968 1120.75488 1301.05057 1126.29974 1301.74293 1140.15892 1296.89044 1140.15892 1290.65618 1186.24128 1293.42564 1207.37772 1288.57612 1263.16507 1295.85338 1266.62987 1296.54574 1270.09466 1281.81888 1278.06428 1268.47972 1276.33188 1269.51678 1238.91151 1269.86445 1187.62898 1265.36259 1148.82091 1253.9252 1178.61933 1243.87849 1225.04936 1239.37366 1264.5498 1242.49079 1275.98422 1232.0964 1278.06428 1212 1273.90712 1214.77243 1266.97753 1222.04969 1263.51274 1223.78208 1221.93223 1230.71167 1146.05145 1225.26785 1142.58666 1221.00965 1129.41687 1215.11713 1128.03214 1212 1077.44495 1219.27726 1039.67691 1233.4841 1020.61757"></polygon>
            <path d="M2457.36213,1427.07359 C2384.02497,1447.59492 2294.28204,1459.6593 2197.27076,1459.6593 C2087.96035,1459.6593 1987.76658,1444.36785 1909.99591,1418.88705 C1811.6623,1386.74707 1749.06422,1338.35881 1749.06422,1284.27117 L1749.06422,1553.55642 C1749.06422,1555.44334 1749.16526,1557.32134 1749.3168,1559.1934 L2457.36213,1559.1934 L2457.36213,1427.07359 Z" id="Fill-65" fill="#E8E8E8"></path>
            <path d="M2457.36213,1187.00731 C2387.97115,1166.94062 2296.96235,1154.75738 2197.27076,1154.75738 C1979.61272,1154.75738 1803.20832,1212.74069 1803.20832,1284.27117 C1803.20832,1332.06215 1881.8764,1373.79421 1998.9811,1396.22028 C2057.20213,1407.3724 2124.95877,1413.78792 2197.27076,1413.78792 C2269.52331,1413.78792 2337.27996,1407.3724 2395.50396,1396.22028 C2417.58831,1391.98883 2438.28793,1387.06799 2457.36213,1381.55285 L2457.36213,1187.00731 Z" id="Fill-66" fill="#133759"></path>
            <path d="M2457.36213,1381.55196 C2438.28793,1387.0671 2417.58831,1391.99092 2395.50396,1396.22236 C2337.27996,1407.37151 2269.52331,1413.79 2197.27076,1413.79 C2124.95877,1413.79 2057.20213,1407.37151 1998.9811,1396.22236 C1881.8764,1373.79629 1803.20832,1332.06423 1803.20832,1284.27325 C1803.20832,1212.7398 1979.61272,1154.75946 2197.27076,1154.75946 C2296.96235,1154.75946 2387.97115,1166.93973 2457.36213,1187.00642 L2457.36213,1141.51539 C2384.01903,1121.01783 2294.25529,1108.94751 2197.27076,1108.94751 C1949.7519,1108.94751 1749.06422,1187.43729 1749.06422,1284.27325 C1749.06422,1338.35792 1811.6623,1386.74618 1909.99591,1418.88616 C1987.76658,1444.36993 2087.96035,1459.65841 2197.27076,1459.65841 C2294.28204,1459.65841 2384.02497,1447.597 2457.36213,1427.0727 L2457.36213,1381.55196 Z" id="Fill-67" fill="#FFFFFF"></path>
        </g>
    </g>
</svg>