
<svg width="2459px" height="1554px" viewBox="0 0 2459 1554" version="1.1" xmlns="http://www.w3.org/2000/svg" xmlns:xlink="http://www.w3.org/1999/xlink">
    <g id="Page-1" stroke="none" stroke-width="1" fill="none" fill-rule="evenodd">
        <g id="Group-26" transform="translate(0.000000, -0.000000)">
            <polygon id="Fill-69" fill="#59402E" points="0 470 2459 470 2459 1 0 1"></polygon>
            <polygon id="Fill-2" fill="#DA6915" points="0 776 2459 776 2459 623 0 623"></polygon>
            <polygon id="Fill-3" fill="#BC5317" points="0 623 2459 623 2459 470 0 470"></polygon>
            <polygon id="Fill-4" fill="#F59F49" points="0 1553 2459 1553 2459 930 0 930"></polygon>
            <polygon id="Fill-5" fill="#F08323" points="0 930 2459 930 2459 776 0 776"></polygon>
            <polygon id="Fill-15" fill="#3B692B" points="975 623 947.980649 589.18655 966.97012 557.327052 920.552789 542 854.448634 567.639879 801 582.499083 801 623"></polygon>
            <path d="M1287.86996,516.172364 L1347.81965,513.721349 L1360.62887,518.354833 L1413.49832,513.721349 L1449.46642,521.074393 L1475.62621,552.686088 L1467.72329,559.229231 L1461.45721,582.119576 L1469.36014,619.451726 C1469.36014,619.451726 1456.27811,633.079367 1455.45969,632.802296 C1454.64552,632.53375 1435.29743,632.802296 1435.29743,632.802296 L1445.37856,621.629932 L1432.02372,593.29194 L1433.93338,626.263415 L1405.04551,626.263415 L1413.49832,616.450832 L1404.77697,588.658457 L1381.74596,586.75306 L1388.15269,623.53533 L1381.74596,632.806559 L1358.99628,632.806559 L1367.98617,621.084315 L1350.27493,596.288572 L1348.63808,629.537118 L1322.47829,629.537118 L1331.47245,620.270152 L1321.93267,590.295309 L1297.95109,558.683614 C1297.95109,558.683614 1273.70097,557.319571 1272.88254,556.773954 C1272.06412,556.228337 1263.89265,551.326308 1263.89265,551.326308 L1249.71939,550.235073 L1241.54366,539.335518 L1257.89512,528.163154 L1258.44074,524.075288 L1274.51939,515.899555 L1276.15198,505 L1287.86996,516.172364 Z" id="Fill-21" fill="#2D241D"></path>
            <polygon id="Fill-23" fill="#2D241D" points="1114.82322 480.360675 1152.70098 530.229231 1178.31515 531.593274 1167.4156 539.769006 1149.70435 539.769006 1137.98637 566.201601 1137.44075 588.814875 1121.3621 580.639142 1104.73782 548.486093 1082.3931 585.272626 1087.84501 608.435779 1106.37468 631.057579 1090.56883 631.057579 1079.94208 610.891057 1067.13287 585.818243 1040.70027 589.906109 1019.44678 600.805664 1019.44678 587.72364 1039.60904 584.458463 1060.32118 572.46341 1033.34297 577.642511 1006.63756 578.465199 1000.91285 588.000711 1032.52454 625.60567 1013.44925 625.60567 1005.27352 604.075105 976.117103 589.360492 986.74385 578.188128 973.120471 580.916214 940.144733 615.793086 947.779111 633.240047 933.333044 633.240047 927.612589 617.429937 937.966527 601.078473 941.508776 577.373965 956.496198 564.833295 952.135523 543.856873 961.129681 522.871925 930.609221 532.407437 905.809216 532.407437 899.815952 521.78069 905.536407 496.166522 893 478.996632 916.98158 492.351464 909.624273 520.689456 925.702929 520.689456 972.847662 498.344728 1033.34297 496.980685 1089.7504 476"></polygon>
            <polygon id="Fill-6" fill="#CD181A" points="1710 930 1787 930 1787 0 1710 0"></polygon>
            <polygon id="Fill-7" fill="#CD181A" points="243 1241 411 1241 411 1 243 1"></polygon>
            <polygon id="Fill-8" fill="#CD181A" points="633 1083 801 1083 801 1 633 1"></polygon>
            <polygon id="Fill-9" fill="#CD181A" points="1878 776 1955 776 1955 0 1878 0"></polygon>
            <polygon id="Fill-10" fill="#3B692B" points="0 838.656694 0 1164.70765 702.329287 1202.34316 1196.50516 1164.70765 1522.43909 1266 1655.83804 1202.34316 2131 1077.15875 1693.68824 866.75198 981.094002 768"></polygon>
            <polygon id="Fill-11" fill="#223F1D" points="2006.22655 639.335667 1916 682.94644 1992.68761 776 2459 776 2459 658.864385 2276.90619 607"></polygon>
            <polygon id="Fill-12" fill="#608230" points="903.71957 1085.76058 646 1252.6682 831.346011 1554 2197 1552.84139 2197 1160.50362 1676.87828 962"></polygon>
            <polygon id="Fill-13" fill="#CD181A" points="2029 1394 2197 1394 2197 0 2029 0"></polygon>
            <polygon id="Fill-14" fill="#3B692B" points="2113.37038 1198.37368 1787.68625 1152.42989 1631 1264.73304 1893.09885 1424.6805 2045 1554 2459 1554 2459 1133"></polygon>
            <polygon id="Fill-16" fill="#76A031" points="478.737396 1000.75828 0 953 0 1553 2309 1553 1437.48061 1312.77955 815.593009 953"></polygon>
            <polygon id="Fill-17" fill="#3B692B" points="2113.15419 62.5493333 1925.00588 81.7113333 1851.54764 81.7113333 1826 113.646167 1904.24352 147 2113.15419 147 2242.78177 120.0335 2388.09353 120.0335 2436 93.067 2386.49706 59"></polygon>
            <polygon id="Fill-18" fill="#608230" points="2321.7517 230 2188.87452 242.14356 2091.2173 235.161151 2064 256.427605 2108.82728 290 2243.30499 280.000615 2331.35489 290 2405 239.999385"></polygon>
            <polygon id="Fill-19" fill="#608230" points="764.006147 203.809479 855.110582 214 984.483426 207.226517 1025 147.427437 807.87844 113 671.013088 121.874016 544.128104 137.455415 504 182.179868 638.443614 211.772774"></polygon>
            <polygon id="Fill-20" fill="#1F1C1A" points="1651.53592 285.936909 1663.42962 243.463185 1637.09696 201 1595.47693 206.095793 1575.93691 254.508461 1575.93691 305.47166 1528.37266 316.516936 1491 434.584404 1516.47896 468.558113 1501.19159 550.95503 1530.0695 564.540298 1528.37266 598.519277 1540.26636 598.519277 1555.55374 711.490952 1548.75583 763.302572 1560.64953 900.05637 1542.81162 908.551115 1541.11478 917.051129 1577.21217 936.58588 1609.91589 932.338508 1607.36536 840.598426 1606.51694 714.884634 1617.56221 619.756139 1645.59171 692.804621 1670.22225 806.624716 1681.26753 903.460591 1673.6212 931.484818 1699.10017 936.58588 1748.3718 926.389025 1741.57389 909.404805 1723.73598 900.90479 1719.49388 798.978392 1702.50439 612.963505 1715.84725 604.463491 1726.28651 572.186622 1740.72547 568.79294 1748.3718 444.781259 1730.52862 352.192756 1695.70649 305.47166"></polygon>
        </g>
    </g>
</svg>