<svg width="2459" height="1554" xmlns="http://www.w3.org/2000/svg"><g fill="none" fill-rule="evenodd"><path fill="#59402E" d="M0 470h2459V1H0z"/><path fill="#DA6915" d="M0 776h2459V623H0z"/><path fill="#BC5317" d="M0 623h2459V470H0z"/><path fill="#F59F49" d="M0 1553h2459V930H0z"/><path fill="#F08323" d="M0 930h2459V776H0z"/><path fill="#3B692B" d="M975 623l-27.02-33.813 18.99-31.86L920.553 542l-66.104 25.64L801 582.5V623z"/><path d="M1287.87 516.172l59.95-2.45 12.809 4.633 52.87-4.634 35.967 7.353 26.16 31.612-7.903 6.543-6.266 22.89 7.903 37.333s-13.082 13.627-13.9 13.35c-.814-.268-20.163 0-20.163 0l10.082-11.172-13.355-28.338 1.91 32.971h-28.888l8.452-9.812-8.721-27.793-23.031-1.905 6.407 36.782-6.407 9.272h-22.75l8.99-11.723-17.711-24.795-1.637 33.248h-26.16l8.994-9.267-9.54-29.975-23.98-31.611s-24.251-1.364-25.07-1.91c-.818-.546-8.99-5.448-8.99-5.448l-14.173-1.09-8.175-10.9 16.351-11.173.546-4.088 16.078-8.175 1.633-10.9 11.718 11.172zm-173.047-35.812l37.878 49.87 25.614 1.363-10.9 8.176h-17.71l-11.719 26.433-.545 22.613-16.079-8.176-16.624-32.153-22.345 36.787 5.452 23.163 18.53 22.622h-15.806l-10.627-20.167-12.81-25.073-26.432 4.088-21.253 10.9v-13.082l20.162-3.266 20.712-11.995-26.978 5.18-26.705.822-5.725 9.536 31.612 37.605h-19.076l-8.175-21.53-29.157-14.716 10.627-11.172-13.624 2.728-32.975 34.877 7.634 17.447h-14.446l-5.72-15.81 10.354-16.352 3.542-23.704 14.987-12.54-4.36-20.977 8.994-20.985-30.52 9.535h-24.8l-5.994-10.626 5.72-25.614L893 478.997l23.982 13.354-7.358 28.338h16.079l47.145-22.344 60.495-1.364L1089.75 476z" fill="#2D241D"/><path fill="#CD181A" d="M1710 930h77V0h-77zM243 1241h168V1H243zm390-158h168V1H633zm1245-307h77V0h-77z"/><path fill="#3B692B" d="M0 838.657v326.05l702.33 37.636 494.175-37.635L1522.44 1266l133.399-63.657L2131 1077.16l-437.312-210.407L981.094 768z"/><path fill="#223F1D" d="M2006.227 639.336L1916 682.946 1992.688 776H2459V658.864L2276.906 607z"/><path fill="#608230" d="M903.72 1085.76L646 1252.669 831.346 1554 2197 1552.841v-392.337L1676.878 962z"/><path fill="#CD181A" d="M2029 1394h168V0h-168z"/><path fill="#3B692B" d="M2113.37 1198.374l-325.684-45.944L1631 1264.733l262.099 159.947L2045 1554h414v-421z"/><path fill="#76A031" d="M478.737 1000.758L0 953v600h2309l-871.52-240.22L815.594 953z"/><path fill="#3B692B" d="M2113.154 62.55l-188.148 19.16h-73.458L1826 113.646 1904.244 147h208.91l129.628-26.966h145.312L2436 93.067 2386.497 59z"/><path fill="#608230" d="M2321.752 230l-132.877 12.144-97.658-6.983L2064 256.428 2108.827 290l134.478-10 88.05 10L2405 240zM764.006 203.81L855.111 214l129.372-6.773 40.517-59.8L807.878 113l-136.865 8.874-126.885 15.581L504 182.18l134.444 29.593z"/><path fill="#1F1C1A" d="M1651.536 285.937l11.894-42.474L1637.097 201l-41.62 5.096-19.54 48.412v50.964l-47.564 11.045L1491 434.584l25.479 33.974-15.287 82.397 28.878 13.585-1.697 33.98h11.893l15.288 112.971-6.798 51.812 11.894 136.753-17.838 8.495-1.697 8.5 36.097 19.535 32.704-4.247-2.55-91.74-.85-125.714 11.046-95.129 28.03 73.049 24.63 113.82 11.046 96.836-7.647 28.024 25.48 5.1 49.27-10.196-6.797-16.984-17.838-8.5-4.242-101.927-16.99-186.014 13.343-8.5 10.44-32.277 14.438-3.394 7.647-124.012-17.843-92.588-34.823-46.721z"/></g></svg>